<svg width="28" height="28" viewBox="0 0 28 28" fill="none" xmlns="http://www.w3.org/2000/svg">
<g id="Icons">
<path id="Vector" d="M12.25 23.625C12.25 24.1089 11.858 24.5 11.375 24.5H7.875C5.46263 24.5 3.5 22.5374 3.5 20.125V9.625C3.5 7.21263 5.46263 5.25 7.875 5.25H8.02462C8.386 4.2315 9.359 3.5 10.5 3.5H12.25C13.391 3.5 14.364 4.2315 14.7254 5.25H14.875C17.2874 5.25 19.25 7.21263 19.25 9.625V12.25C19.25 12.733 18.8589 13.125 18.375 13.125C17.8911 13.125 17.5 12.733 17.5 12.25V9.625C17.5 8.17775 16.3223 7 14.875 7H14C13.517 7 13.125 6.608 13.125 6.125C13.125 5.642 12.7321 5.25 12.25 5.25H10.5C10.0179 5.25 9.625 5.64287 9.625 6.125C9.625 6.60713 9.233 7 8.75 7H7.875C6.42775 7 5.25 8.17775 5.25 9.625V20.125C5.25 21.5723 6.42775 22.75 7.875 22.75H11.375C11.858 22.75 12.25 23.1411 12.25 23.625ZM11.1939 9.37387L9.24525 11.3225C9.177 11.3916 9.06675 11.3942 8.995 11.3278L8.02813 10.4414C7.672 10.115 7.11812 10.1404 6.79175 10.4956C6.46538 10.8517 6.489 11.4056 6.846 11.732L7.81287 12.6184C8.18388 12.9587 8.65112 13.1276 9.1175 13.1276C9.61188 13.1276 10.1054 12.9377 10.4825 12.5606L12.4311 10.612C12.7732 10.2699 12.7732 9.71688 12.4311 9.37475C12.089 9.03263 11.536 9.03263 11.1939 9.37475V9.37387ZM11.1939 14.6939L9.24525 16.6425C9.177 16.7116 9.06675 16.7134 8.995 16.6477L8.02813 15.7614C7.672 15.435 7.11812 15.4595 6.79175 15.8156C6.46538 16.1718 6.489 16.7256 6.846 17.052L7.81287 17.9384C8.18388 18.2787 8.65112 18.4476 9.1175 18.4476C9.61188 18.4476 10.1054 18.2569 10.4825 17.8806L12.4311 15.932C12.7732 15.5899 12.7732 15.0369 12.4311 14.6947C12.089 14.3526 11.536 14.3518 11.1939 14.6939ZM24.5 17.9375V21.4375C24.5 23.1262 23.1262 24.5 21.4375 24.5H17.0625C15.3737 24.5 14 23.1262 14 21.4375V17.9375C14 16.2487 15.3737 14.875 17.0625 14.875H21.4375C23.1262 14.875 24.5 16.2487 24.5 17.9375ZM22.75 17.9375C22.75 17.2139 22.1611 16.625 21.4375 16.625H17.0625C16.3389 16.625 15.75 17.2139 15.75 17.9375V21.4375C15.75 22.1611 16.3389 22.75 17.0625 22.75H21.4375C22.1611 22.75 22.75 22.1611 22.75 21.4375V17.9375ZM20.125 18.375H18.375C17.8911 18.375 17.5 18.7661 17.5 19.25C17.5 19.7339 17.8911 20.125 18.375 20.125H20.125C20.6089 20.125 21 19.7339 21 19.25C21 18.7661 20.6089 18.375 20.125 18.375ZM15.75 12.25C15.75 11.767 15.3589 11.375 14.875 11.375H13.5625C13.0795 11.375 12.6875 11.767 12.6875 12.25C12.6875 12.733 13.0795 13.125 13.5625 13.125H14.875C15.3589 13.125 15.75 12.733 15.75 12.25Z" fill="#07412A"/>
</g>
</svg>
