<svg width="28" height="28" viewBox="0 0 28 28" fill="none" xmlns="http://www.w3.org/2000/svg">
<g id="Icons">
<path id="Vector" d="M24.4973 13.9823C24.4954 13.2701 24.276 12.5755 23.8684 11.9915C23.4607 11.4075 22.8844 10.962 22.2165 10.7146L22.1833 10.635C21.3154 8.51208 19.6538 6.81128 17.5517 5.89408L17.2638 5.76809C17.016 5.10224 16.5705 4.5281 15.9871 4.12269C15.4036 3.71728 14.7101 3.5 13.9997 3.5C13.2892 3.5 12.5957 3.71728 12.0123 4.12269C11.4288 4.5281 10.9833 5.10224 10.7355 5.76809L10.3698 5.93257C8.28634 6.87888 6.64652 8.59011 5.78984 10.712C5.12086 10.9558 4.54268 11.3987 4.13322 11.9812C3.72376 12.5637 3.50271 13.2577 3.49985 13.9697C3.49698 14.6816 3.71246 15.3774 4.11723 15.9632C4.52199 16.5489 5.0966 16.9965 5.7636 17.2456L5.87558 17.5081C6.75339 19.5455 8.36551 21.1783 10.3917 22.0819L10.7355 22.2359C10.984 22.9008 11.4297 23.4739 12.0129 23.8785C12.5961 24.2832 13.289 24.5 13.9988 24.5C14.7086 24.5 15.4015 24.2832 15.9847 23.8785C16.5679 23.4739 17.0136 22.9008 17.2621 22.2359L17.5832 22.0933C19.7026 21.1456 21.3689 19.4087 22.2279 17.2517C22.8935 17.0018 23.4672 16.5551 23.8726 15.971C24.278 15.387 24.4959 14.6933 24.4973 13.9823ZM13.9988 5.24842C14.3449 5.24842 14.6832 5.35104 14.9709 5.5433C15.2587 5.73557 15.4829 6.00884 15.6154 6.32857C15.7478 6.64829 15.7824 7.00011 15.7149 7.33953C15.6474 7.67895 15.4808 7.99072 15.2361 8.23543C14.9914 8.48014 14.6796 8.64679 14.3402 8.7143C14.0007 8.78181 13.6489 8.74716 13.3292 8.61473C13.0095 8.48229 12.7362 8.25802 12.5439 7.97028C12.3517 7.68253 12.249 7.34424 12.249 6.99817C12.249 6.53411 12.4334 6.08905 12.7615 5.76091C13.0897 5.43277 13.5347 5.24842 13.9988 5.24842ZM6.9893 12.2343L7.06104 12.2614L7.06978 12.2396C7.50818 12.2788 7.91346 12.4892 8.19775 12.8252C8.48204 13.1613 8.62243 13.5958 8.58849 14.0346C8.55455 14.4735 8.34902 14.8813 8.01645 15.1696C7.68388 15.4579 7.25107 15.6035 6.81185 15.5749C6.37263 15.5462 5.9624 15.3456 5.67009 15.0166C5.37778 14.6875 5.22696 14.2565 5.2503 13.8169C5.27365 13.3774 5.46929 12.9648 5.79482 12.6685C6.12034 12.3723 6.54952 12.2163 6.9893 12.2343ZM13.9988 22.7459C13.6527 22.7459 13.3144 22.6433 13.0267 22.451C12.7389 22.2588 12.5147 21.9855 12.3822 21.6658C12.2498 21.3461 12.2152 20.9942 12.2827 20.6548C12.3502 20.3154 12.5168 20.0036 12.7615 19.7589C13.0062 19.5142 13.318 19.3476 13.6574 19.2801C13.9969 19.2125 14.3487 19.2472 14.6684 19.3796C14.9881 19.5121 15.2614 19.7363 15.4537 20.0241C15.6459 20.3118 15.7486 20.6501 15.7486 20.9962C15.7486 21.4602 15.5642 21.9053 15.2361 22.2334C14.9079 22.5616 14.4629 22.7459 13.9988 22.7459ZM17.4047 20.221C17.2305 19.4477 16.7984 18.7566 16.1793 18.2614C15.5602 17.7662 14.7911 17.4965 13.9984 17.4965C13.2056 17.4965 12.4365 17.7662 11.8174 18.2614C11.1983 18.7566 10.7662 19.4477 10.592 20.221C9.39747 19.5692 8.41607 18.5869 7.76531 17.3917C8.53626 17.2175 9.2253 16.7869 9.71976 16.1703C10.2142 15.5537 10.4849 14.7875 10.4874 13.9971C10.4899 13.2068 10.2242 12.4389 9.73375 11.8191C9.24326 11.1993 8.557 10.7643 7.78718 10.5852C8.44034 9.40682 9.41248 8.43651 10.592 7.78556C10.7669 8.55807 11.1993 9.24817 11.8181 9.74255C12.4369 10.2369 13.2054 10.5062 13.9975 10.5062C14.7895 10.5062 15.5581 10.2369 16.1769 9.74255C16.7957 9.24817 17.2281 8.55807 17.4029 7.78556C18.5816 8.43579 19.5543 9.40361 20.2104 10.579C19.4382 10.7554 18.749 11.1891 18.2558 11.8088C17.7626 12.4286 17.4947 13.1977 17.4963 13.9897C17.4978 14.7818 17.7686 15.5498 18.2642 16.1677C18.7598 16.7855 19.4507 17.2166 20.2235 17.3899C19.5707 18.5813 18.5932 19.563 17.4047 20.221ZM20.9978 15.7321C20.6517 15.7321 20.3134 15.6294 20.0257 15.4372C19.7379 15.2449 19.5137 14.9716 19.3812 14.6519C19.2488 14.3322 19.2142 13.9804 19.2817 13.6409C19.3492 13.3015 19.5158 12.9897 19.7605 12.745C20.0053 12.5003 20.317 12.3337 20.6564 12.2662C20.9959 12.1987 21.3477 12.2333 21.6674 12.3657C21.9871 12.4982 22.2604 12.7224 22.4527 13.0102C22.6449 13.2979 22.7476 13.6362 22.7476 13.9823C22.7476 14.4464 22.5632 14.8914 22.2351 15.2196C21.9069 15.5477 21.4619 15.7321 20.9978 15.7321Z" fill="#07412A"/>
</g>
</svg>
