<svg width="138" height="118" viewBox="0 0 138 118" fill="none" xmlns="http://www.w3.org/2000/svg">
<path d="M37.3285 66.2132C41.3555 70.0889 45.3392 73.9862 49.3879 77.8185C52.3324 80.6116 54.2368 83.7944 55.3176 87.8866C57.1333 94.7285 61.2676 100.336 66.7239 104.926C62.4162 99.4919 59.1703 93.5377 57.2032 86.2627C62.1828 90.9828 66.8595 95.2482 72.6201 97.9979C78.4674 100.813 84.5973 102.004 91.0533 100.986C76.1064 100.466 67.5122 90.4198 59.2215 79.8105C64.9827 81.6292 70.7879 82.4303 76.789 81.4777C74.298 81.1096 71.7201 81.0663 69.3593 80.3301C64.876 78.9228 60.5445 77.104 56.148 75.4369C55.6282 75.242 55.1085 74.8956 54.7405 74.5058C50.2373 69.8507 45.7559 65.1956 41.2311 60.4755C48.0334 60.1291 54.8796 58.7001 61.2287 55.3008C54.4258 56.7514 47.6013 58.2021 40.6479 57.5309C33.6946 56.8597 26.8066 55.7338 19.3336 54.7378C20.4612 52.616 21.3724 50.2343 22.825 48.2423C30.413 37.7629 41.2892 35.0564 53.3957 40.0796C63.488 44.2584 70.2641 51.7715 75.7611 60.822C78.2067 64.8492 80.8256 68.7898 83.5745 72.6221C89.2239 80.4601 96.4562 85.6998 106.529 86.2627C113.331 86.6524 120.111 87.0205 126.849 85.5915C128.647 85.2018 130.38 84.5522 132.46 83.9243C132.027 84.7254 131.68 85.4399 131.289 86.1111C121.792 102.566 108.094 113.847 89.1596 116.662C64.5704 120.299 43.8653 112.786 29.2985 91.7406C24.6017 84.9852 21.6383 77.3855 20.04 69.2661C19.5432 66.6896 18.5688 66.0616 15.9906 66.6246C12.4808 67.3824 9.72855 69.3311 7.47404 72.0808C6.93208 72.752 6.43344 73.4449 5.86984 74.0944C4.33075 75.8915 2.51093 76.173 1.25525 74.8739C-0.000428383 73.5748 0.152365 71.5828 1.95117 70.1971C4.37846 68.3351 6.87075 66.4514 9.5794 65.044C16.7085 61.3632 24.096 60.4755 31.7411 63.615C33.3437 64.2862 34.0149 64.9791 34.0355 66.8195C34.0949 76.4112 37.5344 84.812 43.2056 92.4118C43.3138 92.5633 43.5304 92.65 43.5953 92.6933C42.0164 88.5361 40.1125 84.4006 38.8802 80.0703C37.6696 75.74 37.1523 71.1931 36.3534 66.7545C36.6784 66.5596 37.0035 66.3864 37.3285 66.2132Z" fill="#C0E5C6"/>
<path d="M74.1884 41.1184C74.8397 38.715 75.6642 36.5282 72.6969 35.5972C76.3157 33.7351 79.8261 31.9164 83.1631 30.2059C83.6406 28.647 84.0747 27.1963 84.5088 25.7673C84.7254 25.7673 84.9203 25.7673 85.137 25.7457C85.4614 26.6767 85.8508 27.5861 86.1319 28.5171C86.5426 29.9677 87.6905 30.3358 89.0771 29.9677C91.2654 29.3615 92.3492 28.2573 92.7188 25.9405C92.8927 24.9446 94.3012 24.1651 95.0598 23.3856C95.2331 23.4289 95.0382 23.3423 94.8432 23.3423C90.9873 23.299 90.8575 23.0825 91.921 19.4883C92.0946 18.9254 91.9434 18.2542 91.9437 17.6479C91.7055 17.583 91.4672 17.5397 91.229 17.4747C90.4916 18.9687 89.7325 20.441 89.0384 21.9566C88.9083 22.2381 88.843 22.7794 89.0162 22.9526C90.8347 24.9229 88.9276 26.2653 88.3633 28.149C87.4326 26.7849 86.8919 25.2693 85.8957 24.793C85.0295 24.3816 83.5992 25.2044 82.4077 25.4642C80.9143 23.0608 81.3267 21.6318 83.5805 20.1162C84.7941 19.2935 85.7263 18.0593 86.6802 16.9118C88.7179 14.4651 93.4843 13.2526 96.2347 14.595C96.5596 14.7466 97.0574 15.3745 96.9924 15.4395C96.5371 16.0674 95.9736 16.6086 95.41 17.1932C95.9946 17.6696 96.7525 18.3191 97.6402 19.0553C98.8327 17.3015 100.003 15.6127 101.131 13.9022C101.803 12.8845 103.406 12.1267 102.281 10.5245C101.567 9.50689 100.744 8.55422 99.9648 7.57989C99.3586 6.84373 98.7308 6.15087 97.9082 5.1549C98.9048 4.96003 99.4248 4.87343 99.9664 4.76517C100.01 4.61361 100.053 4.44039 100.097 4.28883C96.4797 3.11964 92.841 1.95044 89.224 0.78125C113.573 0.824553 141.457 31.1802 137.107 60.6266C136.61 58.6346 136.243 57.119 135.832 55.4085C133.535 56.2529 133.818 54.0011 132.931 53.0052C130.851 52.8319 129.549 56.5127 127.081 54.261C125.065 56.0147 123.159 55.3002 121.319 53.4598C121.189 53.7197 121.059 53.9578 120.929 54.2176C121.968 55.8415 122.898 57.5737 124.11 59.0676C124.76 59.8904 125.648 59.6522 126.082 58.548C126.407 57.7036 126.733 56.8592 127.08 55.9714C129.873 57.8335 130.587 59.5656 129.589 62.3803C128.048 66.7756 125.49 70.5647 122.195 73.8124C121.589 74.4187 120.679 74.7435 119.595 75.3714C118.494 69.114 114.879 64.762 110.744 60.5832C110.634 63.5279 114.031 69.3955 120.46 77.4716C122.801 75.6095 125.163 73.7691 127.981 71.5173C126.354 75.7178 124.987 79.3769 123.49 82.9711C123.316 83.4041 122.536 83.7939 121.995 83.8372C115.106 84.5084 108.26 84.2918 101.481 82.8845C95.6542 81.672 91.2371 78.0778 87.6871 73.5959C84.4617 69.5254 81.6915 65.0652 78.7912 60.7132C76.6485 57.5087 74.6141 54.261 72.2333 50.5585C76.4794 50.1904 80.4222 49.8224 84.3649 49.6058C84.6682 49.5842 85.3392 50.6451 85.2955 51.1431C84.9469 54.6507 84.8819 54.6507 88.4341 55.5817C88.8456 55.69 89.3221 55.7333 89.6469 55.9714C92.1803 57.9201 94.4334 57.617 96.666 55.3652C97.0995 54.9321 98.1393 54.9105 98.8758 54.9755C100.154 55.1054 101.388 55.4734 102.666 55.7116C108.276 56.7942 110.422 54.9105 110.1 48.9779C108.237 49.2811 106.396 49.6058 104.554 49.8873C104.229 49.9306 103.818 49.8873 103.536 49.7574C101.522 48.7831 100.202 47.2025 99.5316 44.7992C98.9899 44.9507 98.3616 45.1239 97.5383 45.3621C97.9059 46.423 98.2087 47.3108 98.5547 48.3067C98.2729 48.6965 97.926 49.2161 97.1455 50.3203C95.7604 48.0469 94.7652 45.8601 93.2498 44.1496C91.6694 42.3742 89.5906 41.0318 87.2738 39.1481C88.0083 42.5907 90.022 44.2579 92.6208 45.4054C91.7534 46.986 90.9294 48.5016 90.0186 50.1904C89.0657 49.7357 88.2427 49.346 87.4414 48.9779C87.4415 48.8047 87.4633 48.6532 87.4634 48.4799C88.1783 48.3933 88.9148 48.3717 89.5865 48.1552C89.9981 48.0253 90.5399 47.6355 90.6485 47.2675C90.7353 46.921 90.4541 46.3148 90.1293 46.0333C88.4405 44.4311 86.7518 42.8289 84.9546 41.3782C84.5649 41.0534 83.6983 41.1617 83.0917 41.2916C82.4201 41.4215 81.6831 42.1577 81.1416 42.0061C78.7158 41.2916 77.8701 42.8505 76.916 44.5177C76.4172 45.3621 75.7236 46.1416 74.9867 46.8128C72.5592 49.0429 70.8479 48.9563 68.5312 46.7478C67.1023 45.4054 65.2182 44.3445 66.7794 41.8329C67.625 40.4905 68.5352 39.8409 70.1164 40.1873C71.416 40.5338 72.7372 40.7936 74.1884 41.1184ZM111.253 41.6813C110.583 39.5161 108.287 38.3686 104.994 38.5851C104.323 37.9572 103.782 37.4376 103.219 36.8963C102.828 37.5891 102.416 38.282 102.069 38.9965C101.722 39.6894 101.375 40.4039 101.18 41.1617C100.985 41.9411 100.594 43.0237 100.94 43.5217C101.265 43.9764 102.5 44.0847 103.236 43.9114C105.901 43.2619 108.501 42.4608 111.253 41.6813ZM115.589 35.4889C115.849 35.2724 116.109 35.0559 116.391 34.8394C115.915 34.2115 115.438 33.5836 114.962 32.9557C114.377 33.5836 113.293 34.1682 113.293 34.8177C113.249 35.8787 113.573 37.3077 114.309 37.9572C115.803 39.2563 117.146 40.4255 117.491 42.5257C117.599 43.1536 118.357 43.8465 118.985 44.1929C119.505 44.496 120.479 44.6043 120.891 44.3012C121.303 43.998 121.585 42.8505 121.325 42.4824C120.243 40.9018 118.944 39.4512 117.71 37.9572C117.018 37.1345 116.282 36.3117 115.589 35.4889Z" fill="#C0E5C6"/>
<path d="M66.7417 3.20646C68.1287 2.31874 69.5156 1.43102 70.9459 0.5C72.7849 4.46226 76.7709 4.354 80.1707 6.43256C78.632 7.5368 77.2667 8.51112 75.8797 9.4638C74.4494 10.4381 72.9759 11.3475 71.5023 12.2569C71.0255 12.5383 70.4838 12.9064 69.9638 12.9281C65.1113 13.0796 60.367 13.4694 56.7903 17.5832C56.6171 17.41 56.4439 17.2151 56.2707 17.0419C56.7478 16.0459 56.9868 14.7901 57.7455 14.0756C59.7395 12.1486 61.9285 10.4381 64.0524 8.68434C65.0493 7.88323 66.1762 7.23368 67.1298 6.38927C68.9071 4.83034 68.8207 4.41896 66.8068 3.16316L66.7417 3.20646Z" fill="#C0E5C6"/>
<path d="M53.2615 9.03258C52.3943 10.2234 50.5521 11.7607 50.8333 12.5185C51.5903 14.5321 49.7056 14.6187 49.2068 15.6363C48.9465 16.1776 48.2315 16.4591 47.8196 16.9571C47.4727 17.3685 47.1258 17.8881 46.9956 18.4078C46.4093 20.7029 44.611 21.3308 42.4237 20.2698C41.6007 19.8584 40.4091 20.1399 39.391 20.1832C38.3295 20.2265 37.2679 20.3781 35.7514 20.5296C40.4127 14.0558 44.6837 8.01495 53.0463 6.58594C50.1639 8.79441 47.4765 10.8297 44.7892 12.8866C44.9407 13.1031 45.0705 13.3196 45.222 13.5578C47.8225 11.9989 50.4229 10.4183 53.0233 8.85937C53.1099 8.90267 53.1965 8.96762 53.2615 9.03258Z" fill="#C0E5C6"/>
<path d="M66.8263 3.14208C66.1112 3.57511 65.3745 3.94319 64.7243 4.46283C62.2537 6.36818 59.8696 8.38178 57.3557 10.2222C56.6405 10.7635 55.6223 10.8934 54.2789 11.3697C54.9517 9.20455 55.7322 8.10031 57.5089 7.55902C59.5455 6.93112 61.4741 5.91349 63.4459 5.06907C63.381 4.87421 63.3161 4.701 63.2512 4.50613C62.6664 4.39787 62.0599 4.28962 61.4534 4.18136C62.321 2.40592 64.8994 1.34498 67.3254 1.75636C67.1301 2.276 66.9566 2.75235 66.783 3.25034C66.7397 3.20703 66.8263 3.14208 66.8263 3.14208Z" fill="#C0E5C6"/>
<path d="M78.1621 31.5911C76.3422 32.0674 74.6523 32.5005 73.4173 32.8252C73.6349 31.1148 73.8525 29.4259 74.0485 27.7587C74.1573 26.8061 73.963 25.7668 74.2884 24.9224C74.8742 23.3201 75.8054 23.8831 76.6281 24.7275C76.4331 24.8358 76.2597 24.9224 76.0647 25.0306C76.324 26.0266 76.5401 27.0226 76.8428 27.9969C77.1888 29.0578 77.6214 30.0971 78.1621 31.5911Z" fill="#C0E5C6"/>
<path d="M30.1802 26.8728C30.8524 25.6603 31.4597 24.4045 32.1969 23.2353C33.628 20.9835 34.1912 20.9186 36.3998 22.7157C34.406 24.188 32.4122 25.6386 30.44 27.0893C30.3534 27.0243 30.2668 26.9377 30.1802 26.8728Z" fill="#C0E5C6"/>
<path d="M72.319 16.4788C72.0365 18.0594 70.975 18.1676 69.7837 17.7995C68.3976 17.3665 68.3982 16.3489 68.7671 15.1797C69.9366 15.6127 71.0195 16.0025 72.319 16.4788Z" fill="#C0E5C6"/>
<path d="M69.5615 30.6606C70.0388 29.4048 70.4293 28.4305 70.95 27.0664C71.5779 27.5427 72.8124 28.0407 72.7688 28.4738C72.6162 30.2709 71.0997 30.4441 69.5615 30.6606Z" fill="#C0E5C6"/>
<path d="M44.3709 23.1279C43.5906 23.9507 43.0704 24.492 42.5285 25.0549C42.1388 24.5353 41.4243 23.994 41.4679 23.5176C41.5332 22.8897 42.2051 22.3268 42.617 21.7422C43.0934 22.1103 43.5698 22.5 44.3709 23.1279Z" fill="#C0E5C6"/>
<path d="M38.541 25.2489C36.8964 22.3475 38.4565 21.5464 40.45 20.5938C39.7776 22.196 39.2569 23.4734 38.541 25.2489Z" fill="#C0E5C6"/>
<path d="M99.0769 12.605C96.7163 11.4575 95.8509 9.70368 96.5235 7.86328C97.3025 9.3356 98.1464 10.8729 99.0769 12.605Z" fill="#C0E5C6"/>
<path d="M25.5394 36.5738C24.6715 39.0204 23.8035 41.4887 22.9356 43.9353C22.719 43.8487 22.5241 43.7838 22.3075 43.6972C23.2188 41.2505 24.13 38.8255 25.0413 36.3789C25.2145 36.4439 25.3878 36.5088 25.5394 36.5738Z" fill="#C0E5C6"/>
</svg>
