<svg width="28" height="28" viewBox="0 0 28 28" fill="none" xmlns="http://www.w3.org/2000/svg">
<g id="Icons">
<path id="Vector" d="M23.8584 11.7255C23.0688 10.4325 22.0728 9.27753 20.9099 8.30642L23.359 5.85732C23.5183 5.69236 23.6065 5.47141 23.6045 5.24208C23.6025 5.01274 23.5105 4.79336 23.3483 4.63119C23.1861 4.46901 22.9668 4.37703 22.7374 4.37503C22.5081 4.37304 22.2871 4.4612 22.1222 4.62053L19.4588 7.28742C17.8077 6.30675 15.9202 5.79563 13.9999 5.80922C8.58482 5.80922 5.49896 9.51609 4.14147 11.7255C3.72208 12.4038 3.49994 13.1856 3.49994 13.9831C3.49994 14.7806 3.72208 15.5623 4.14147 16.2406C4.93109 17.5336 5.92711 18.6886 7.09 19.6597L4.64091 22.1088C4.55737 22.1895 4.49073 22.286 4.44489 22.3927C4.39905 22.4994 4.37492 22.6142 4.37391 22.7303C4.3729 22.8465 4.39503 22.9617 4.43901 23.0692C4.48299 23.1767 4.54794 23.2743 4.63006 23.3564C4.71219 23.4386 4.80985 23.5035 4.91734 23.5475C5.02484 23.5915 5.14002 23.6136 5.25615 23.6126C5.37229 23.6116 5.48707 23.5875 5.59378 23.5416C5.7005 23.4958 5.79701 23.4291 5.8777 23.3456L8.54721 20.6761C10.1962 21.6566 12.0815 22.1686 13.9999 22.1569C19.4151 22.1569 22.5009 18.45 23.8584 16.2406C24.2778 15.5623 24.4999 14.7806 24.4999 13.9831C24.4999 13.1856 24.2778 12.4038 23.8584 11.7255ZM5.63191 15.3248C5.38275 14.9216 5.25077 14.457 5.25077 13.9831C5.25077 13.5091 5.38275 13.0445 5.63191 12.6413C6.79873 10.7468 9.43588 7.55857 13.9999 7.55857C15.4521 7.55043 16.884 7.90042 18.1686 8.57757L16.4079 10.3383C15.5682 9.78077 14.5614 9.53096 13.5584 9.63124C12.5555 9.73152 11.6181 10.1757 10.9053 10.8885C10.1926 11.6012 9.7484 12.5386 9.64812 13.5416C9.54783 14.5445 9.79765 15.5513 10.3552 16.391L8.33466 18.4115C7.26327 17.5454 6.34901 16.5012 5.63191 15.3248ZM16.624 13.9831C16.624 14.679 16.3475 15.3464 15.8554 15.8385C15.3633 16.3306 14.6959 16.6071 13.9999 16.6071C13.6103 16.6056 13.226 16.5159 12.876 16.3447L16.3616 12.8591C16.5327 13.2091 16.6225 13.5934 16.624 13.9831ZM11.3759 13.9831C11.3759 13.2871 11.6524 12.6197 12.1445 12.1276C12.6366 11.6355 13.304 11.359 13.9999 11.359C14.3896 11.3605 14.7739 11.4503 15.1239 11.6214L11.6383 15.107C11.4671 14.757 11.3774 14.3727 11.3759 13.9831ZM22.368 15.3248C21.2011 17.2194 18.564 20.4076 13.9999 20.4076C12.5477 20.4157 11.1159 20.0657 9.83123 19.3886L11.592 17.6278C12.4317 18.1854 13.4385 18.4352 14.4414 18.3349C15.4444 18.2346 16.3818 17.7904 17.0945 17.0777C17.8073 16.3649 18.2515 15.4275 18.3518 14.4246C18.452 13.4216 18.2022 12.4148 17.6447 11.5751L19.6652 9.55458C20.7366 10.4208 21.6509 11.4649 22.368 12.6413C22.6171 13.0445 22.7491 13.5091 22.7491 13.9831C22.7491 14.457 22.6171 14.9216 22.368 15.3248Z" fill="#07412A"/>
</g>
</svg>
