<svg width="63" height="63" viewBox="0 0 63 63" fill="none" xmlns="http://www.w3.org/2000/svg">
<g filter="url(#filter0_d_2555_36523)">
<rect x="2.82971" y="2" width="58" height="58" rx="29" fill="#109872"/>
<g clip-path="url(#clip0_2555_36523)">
<path d="M20.2661 33.0572C21.4828 34.2282 22.6865 35.4058 23.9097 36.5637C24.7994 37.4076 25.3748 38.3693 25.7014 39.6057C26.25 41.6729 27.4991 43.3673 29.1477 44.7541C27.8462 43.1121 26.8654 41.3131 26.2711 39.115C27.7757 40.5412 29.1887 41.8299 30.9292 42.6607C32.6959 43.5112 34.548 43.871 36.4986 43.5635C31.9826 43.4065 29.3859 40.3711 26.8809 37.1655C28.6216 37.7151 30.3756 37.9571 32.1888 37.6693C31.4361 37.5581 30.6573 37.545 29.944 37.3226C28.5894 36.8973 27.2806 36.3478 25.9523 35.8441C25.7952 35.7852 25.6382 35.6805 25.527 35.5628C24.1664 34.1563 22.8124 32.7498 21.4452 31.3236C23.5005 31.219 25.569 30.7872 27.4874 29.7601C25.4319 30.1984 23.3699 30.6367 21.269 30.4339C19.1682 30.2311 17.087 29.891 14.8291 29.59C15.1698 28.9489 15.4451 28.2293 15.884 27.6275C18.1766 24.4612 21.4628 23.6434 25.1207 25.1612C28.17 26.4237 30.2173 28.6938 31.8782 31.4283C32.6171 32.6451 33.4084 33.8357 34.239 34.9936C35.9459 37.3618 38.1311 38.9449 41.1745 39.115C43.2296 39.2328 45.2782 39.344 47.314 38.9122C47.8573 38.7945 48.3811 38.5982 49.0095 38.4085C48.8785 38.6506 48.7736 38.8664 48.6557 39.0692C45.786 44.0411 41.6475 47.4494 35.9265 48.2999C28.497 49.3989 22.2411 47.1289 17.8399 40.7701C16.4208 38.7291 15.5254 36.4329 15.0425 33.9796C14.8924 33.2012 14.598 33.0114 13.819 33.1815C12.7586 33.4105 11.927 33.9993 11.2458 34.8301C11.0821 35.0329 10.9314 35.2422 10.7611 35.4385C10.2961 35.9815 9.74623 36.0665 9.36684 35.674C8.98744 35.2815 9.03361 34.6796 9.5771 34.2609C10.3105 33.6983 11.0635 33.1292 11.8819 32.704C14.0359 31.5918 16.268 31.3236 18.5779 32.2722C19.0621 32.475 19.2649 32.6843 19.2711 33.2404C19.2891 36.1385 20.3283 38.6767 22.0418 40.9729C22.0745 41.0187 22.1399 41.0449 22.1596 41.058C21.6825 39.8019 21.1072 38.5524 20.7349 37.244C20.3692 35.9357 20.2129 34.5619 19.9715 33.2208C20.0697 33.1619 20.1679 33.1096 20.2661 33.0572Z" fill="#C0E5C6"/>
<path d="M31.4031 25.4766C31.5999 24.7505 31.849 24.0897 30.9525 23.8084C32.0458 23.2458 33.1065 22.6963 34.1147 22.1795C34.259 21.7085 34.3902 21.2702 34.5213 20.8384C34.5868 20.8384 34.6457 20.8384 34.7111 20.8319C34.8091 21.1132 34.9268 21.3879 35.0117 21.6692C35.1358 22.1075 35.4827 22.2188 35.9016 22.1075C36.5628 21.9244 36.8902 21.5907 37.0019 20.8908C37.0544 20.5898 37.48 20.3543 37.7092 20.1188C37.7616 20.1319 37.7027 20.1057 37.6438 20.1057C36.4788 20.0926 36.4395 20.0272 36.7609 18.9413C36.8133 18.7712 36.7676 18.5684 36.7677 18.3852C36.6957 18.3656 36.6238 18.3525 36.5518 18.3329C36.329 18.7843 36.0996 19.2291 35.8899 19.687C35.8506 19.7721 35.8309 19.9356 35.8832 19.988C36.4327 20.5833 35.8564 20.9889 35.6859 21.558C35.4047 21.1459 35.2414 20.688 34.9404 20.544C34.6786 20.4197 34.2465 20.6683 33.8865 20.7468C33.4353 20.0207 33.5599 19.5889 34.2409 19.131C34.6075 18.8824 34.8892 18.5095 35.1774 18.1628C35.7931 17.4235 37.2332 17.0572 38.0642 17.4628C38.1624 17.5086 38.3128 17.6983 38.2932 17.7179C38.1556 17.9076 37.9853 18.0712 37.815 18.2478C37.9917 18.3917 38.2207 18.588 38.4889 18.8104C38.8492 18.2805 39.2029 17.7703 39.5436 17.2535C39.7466 16.946 40.2311 16.717 39.891 16.2329C39.6752 15.9254 39.4267 15.6376 39.1912 15.3432C39.0081 15.1208 38.8184 14.9115 38.5699 14.6105C38.871 14.5516 39.0281 14.5255 39.1917 14.4928C39.2048 14.447 39.218 14.3946 39.2311 14.3489C38.1382 13.9956 37.0388 13.6423 35.946 13.2891C43.3028 13.3021 51.7277 22.4739 50.4135 31.3709C50.2633 30.769 50.1523 30.3111 50.0282 29.7943C49.3343 30.0494 49.4198 29.3691 49.1516 29.0681C48.5233 29.0158 48.1299 30.1279 47.3842 29.4476C46.7752 29.9774 46.1993 29.7616 45.6433 29.2055C45.604 29.284 45.5647 29.356 45.5253 29.4345C45.8392 29.9251 46.1204 30.4485 46.4866 30.8999C46.6828 31.1484 46.9512 31.0765 47.0823 30.7428C47.1807 30.4877 47.279 30.2326 47.3839 29.9644C48.2279 30.527 48.4436 31.0503 48.142 31.9008C47.6765 33.2288 46.9035 34.3736 45.9081 35.3549C45.7247 35.5381 45.4497 35.6362 45.1224 35.8259C44.7897 33.9353 43.6974 32.6204 42.448 31.3578C42.4147 32.2475 43.4413 34.0203 45.3838 36.4605C46.091 35.8979 46.8048 35.3418 47.656 34.6614C47.1644 35.9306 46.7514 37.0362 46.2992 38.1221C46.2467 38.2529 46.011 38.3707 45.8474 38.3838C43.7659 38.5866 41.6977 38.5212 39.6493 38.0959C37.8888 37.7296 36.5542 36.6436 35.4816 35.2895C34.5071 34.0596 33.6701 32.712 32.7938 31.397C32.1464 30.4288 31.5317 29.4476 30.8124 28.3289C32.0953 28.2177 33.2866 28.1065 34.4779 28.041C34.5695 28.0345 34.7722 28.3551 34.759 28.5055C34.6537 29.5653 34.6341 29.5653 35.7073 29.8466C35.8316 29.8793 35.9756 29.8924 36.0738 29.9644C36.8392 30.5531 37.52 30.4615 38.1945 29.7812C38.3255 29.6504 38.6397 29.6438 38.8622 29.6634C39.2483 29.7027 39.6214 29.8139 40.0075 29.8859C41.7025 30.213 42.3508 29.6438 42.2537 27.8513C41.6907 27.9429 41.1343 28.041 40.5779 28.1261C40.4797 28.1392 40.3554 28.1261 40.2703 28.0868C39.6618 27.7925 39.2628 27.3149 39.0603 26.5887C38.8967 26.6345 38.7068 26.6869 38.4581 26.7588C38.5692 27.0794 38.6606 27.3476 38.7652 27.6485C38.68 27.7663 38.5752 27.9233 38.3394 28.2569C37.9209 27.57 37.6202 26.9093 37.1623 26.3925C36.6849 25.8561 36.0568 25.4505 35.3567 24.8813C35.5787 25.9215 36.1871 26.4252 36.9723 26.7719C36.7102 27.2495 36.4612 27.7074 36.1861 28.2177C35.8981 28.0803 35.6495 27.9625 35.4074 27.8513C35.4074 27.799 35.414 27.7532 35.414 27.7009C35.63 27.6747 35.8526 27.6682 36.0555 27.6027C36.1799 27.5635 36.3436 27.4457 36.3764 27.3345C36.4026 27.2299 36.3176 27.0467 36.2195 26.9616C35.7093 26.4775 35.199 25.9934 34.656 25.5551C34.5383 25.457 34.2764 25.4897 34.0932 25.529C33.8902 25.5682 33.6676 25.7906 33.504 25.7448C32.771 25.529 32.5155 26 32.2272 26.5037C32.0765 26.7588 31.8669 26.9943 31.6443 27.1971C30.9108 27.871 30.3938 27.8448 29.6938 27.1775C29.2621 26.7719 28.6928 26.4514 29.1645 25.6925C29.42 25.2869 29.695 25.0906 30.1728 25.1953C30.5654 25.3 30.9646 25.3785 31.4031 25.4766ZM42.6018 25.6467C42.3993 24.9925 41.7057 24.6458 40.7108 24.7112C40.508 24.5215 40.3445 24.3645 40.1744 24.2009C40.0565 24.4103 39.932 24.6196 39.8271 24.8355C39.7223 25.0449 39.6175 25.2607 39.5584 25.4897C39.4994 25.7252 39.3814 26.0523 39.486 26.2028C39.5841 26.3402 39.9572 26.3729 40.1797 26.3205C40.9849 26.1243 41.7705 25.8822 42.6018 25.6467ZM43.912 23.7757C43.9905 23.7103 44.0691 23.6449 44.1542 23.5795C44.0104 23.3898 43.8665 23.2 43.7226 23.0103C43.5458 23.2 43.2184 23.3767 43.2183 23.5729C43.205 23.8935 43.3029 24.3252 43.5254 24.5215C43.9768 24.914 44.3824 25.2673 44.4867 25.9018C44.5193 26.0916 44.7483 26.3009 44.938 26.4056C45.0951 26.4972 45.3896 26.5299 45.514 26.4383C45.6384 26.3467 45.7237 26 45.6452 25.8888C45.3182 25.4112 44.9258 24.9729 44.553 24.5215C44.3437 24.2729 44.1213 24.0243 43.912 23.7757Z" fill="#C0E5C6"/>
<path d="M29.1531 14.0209C29.5722 13.7526 29.9912 13.4844 30.4233 13.2031C30.979 14.4003 32.1833 14.3676 33.2106 14.9956C32.7457 15.3292 32.3331 15.6236 31.9141 15.9115C31.4819 16.2059 31.0367 16.4806 30.5915 16.7554C30.4474 16.8404 30.2837 16.9516 30.1266 16.9582C28.6605 17.004 27.227 17.1217 26.1463 18.3647C26.094 18.3123 26.0417 18.2535 25.9893 18.2011C26.1335 17.9002 26.2057 17.5208 26.4349 17.3049C27.0374 16.7227 27.6988 16.2059 28.3405 15.676C28.6418 15.4339 28.9822 15.2377 29.2704 14.9825C29.8073 14.5115 29.7812 14.3872 29.1727 14.0078L29.1531 14.0209Z" fill="#C0E5C6"/>
<path d="M25.0801 15.7783C24.8181 16.1381 24.2615 16.6026 24.3465 16.8315C24.5752 17.4399 24.0058 17.4661 23.855 17.7736C23.7764 17.9371 23.5604 18.0222 23.4359 18.1726C23.3311 18.2969 23.2263 18.4539 23.1869 18.6109C23.0098 19.3044 22.4665 19.4941 21.8056 19.1735C21.5569 19.0492 21.1969 19.1343 20.8893 19.1474C20.5685 19.1605 20.2478 19.2063 19.7896 19.252C21.198 17.296 22.4884 15.4708 25.0151 15.0391C24.1442 15.7063 23.3323 16.3213 22.5203 16.9428C22.5661 17.0082 22.6053 17.0736 22.6511 17.1456C23.4368 16.6745 24.2225 16.197 25.0082 15.726C25.0344 15.739 25.0605 15.7587 25.0801 15.7783Z" fill="#C0E5C6"/>
<path d="M29.1786 14.0001C28.9626 14.1309 28.74 14.2421 28.5435 14.3991C27.797 14.9748 27.0767 15.5832 26.3171 16.1393C26.1011 16.3028 25.7934 16.3421 25.3875 16.486C25.5908 15.8318 25.8266 15.4982 26.3634 15.3346C26.9788 15.1449 27.5615 14.8374 28.1572 14.5823C28.1376 14.5234 28.118 14.4711 28.0984 14.4122C27.9217 14.3795 27.7385 14.3468 27.5552 14.3141C27.8174 13.7777 28.5964 13.4571 29.3294 13.5814C29.2704 13.7384 29.218 13.8823 29.1655 14.0328C29.1524 14.0197 29.1786 14.0001 29.1786 14.0001Z" fill="#C0E5C6"/>
<path d="M32.6037 22.5965C32.0538 22.7405 31.5432 22.8713 31.1701 22.9694C31.2358 22.4526 31.3016 21.9423 31.3608 21.4386C31.3937 21.1508 31.3349 20.8368 31.4333 20.5816C31.6103 20.0975 31.8916 20.2676 32.1402 20.5228C32.0813 20.5555 32.0289 20.5816 31.9699 20.6143C32.0483 20.9153 32.1136 21.2162 32.2051 21.5106C32.3096 21.8311 32.4403 22.1451 32.6037 22.5965Z" fill="#C0E5C6"/>
<path d="M18.1063 21.1738C18.3095 20.8075 18.4929 20.4281 18.7157 20.0748C19.1481 19.3944 19.3183 19.3748 19.9855 19.9178C19.3831 20.3626 18.7807 20.801 18.1849 21.2393C18.1587 21.2196 18.1325 21.1935 18.1063 21.1738Z" fill="#C0E5C6"/>
<path d="M30.8383 18.0292C30.7529 18.5068 30.4322 18.5395 30.0723 18.4283C29.6534 18.2974 29.6536 17.99 29.7651 17.6367C30.1185 17.7676 30.4456 17.8853 30.8383 18.0292Z" fill="#C0E5C6"/>
<path d="M30.0051 22.3164C30.1493 21.937 30.2673 21.6426 30.4246 21.2305C30.6144 21.3744 30.9873 21.5249 30.9742 21.6557C30.928 22.1987 30.4699 22.251 30.0051 22.3164Z" fill="#C0E5C6"/>
<path d="M22.394 20.0398C22.1582 20.2884 22.001 20.4519 21.8373 20.622C21.7196 20.465 21.5037 20.3015 21.5169 20.1575C21.5366 19.9678 21.7396 19.7977 21.8641 19.6211C22.008 19.7323 22.1519 19.8501 22.394 20.0398Z" fill="#C0E5C6"/>
<path d="M20.6325 20.6799C20.1356 19.8033 20.607 19.5613 21.2093 19.2734C21.0061 19.7575 20.8488 20.1435 20.6325 20.6799Z" fill="#C0E5C6"/>
<path d="M38.9229 16.8624C38.2097 16.5156 37.9482 15.9857 38.1514 15.4297C38.3868 15.8745 38.6418 16.339 38.9229 16.8624Z" fill="#C0E5C6"/>
<path d="M16.7041 24.1018C16.4419 24.8411 16.1797 25.5869 15.9174 26.3261C15.852 26.2999 15.7931 26.2803 15.7277 26.2541C16.003 25.5149 16.2783 24.7822 16.5536 24.043C16.606 24.0626 16.6583 24.0822 16.7041 24.1018Z" fill="#C0E5C6"/>
<mask id="mask0_2555_36523" style="mask-type:alpha" maskUnits="userSpaceOnUse" x="9" y="13" width="42" height="36">
<rect x="9.11139" y="13.1992" width="41.3935" height="35.3507" fill="#D9D9D9"/>
</mask>
<g mask="url(#mask0_2555_36523)">
<path d="M20.2661 33.0572C21.4828 34.2282 22.6865 35.4058 23.9097 36.5637C24.7994 37.4076 25.3748 38.3693 25.7014 39.6057C26.25 41.6729 27.4991 43.3673 29.1477 44.7541C27.8462 43.1121 26.8654 41.3131 26.2711 39.115C27.7757 40.5412 29.1887 41.8299 30.9292 42.6607C32.6959 43.5112 34.548 43.871 36.4986 43.5635C31.9825 43.4065 29.3859 40.3711 26.8809 37.1655C28.6216 37.7151 30.3756 37.9571 32.1888 37.6693C31.4361 37.5581 30.6573 37.545 29.944 37.3226C28.5894 36.8973 27.2806 36.3478 25.9523 35.8441C25.7952 35.7852 25.6382 35.6805 25.527 35.5628C24.1664 34.1563 22.8124 32.7498 21.4452 31.3236C23.5005 31.219 25.569 30.7872 27.4874 29.7601C25.4319 30.1984 23.3699 30.6367 21.269 30.4339C19.1682 30.2311 17.087 29.891 14.8291 29.59C15.1698 28.9489 15.4451 28.2293 15.884 27.6275C18.1766 24.4612 21.4628 23.6434 25.1207 25.1612C28.17 26.4237 30.2173 28.6938 31.8782 31.4283C32.6171 32.6451 33.4084 33.8357 34.239 34.9936C35.9459 37.3618 38.1311 38.9449 41.1745 39.115C43.2296 39.2328 45.2782 39.344 47.314 38.9122C47.8573 38.7945 48.381 38.5982 49.0095 38.4085C48.8785 38.6506 48.7736 38.8664 48.6557 39.0692C45.786 44.0411 41.6475 47.4494 35.9265 48.2999C28.497 49.3989 22.2411 47.1289 17.8399 40.7701C16.4208 38.7291 15.5254 36.4329 15.0425 33.9796C14.8924 33.2012 14.598 33.0114 13.819 33.1815C12.7586 33.4105 11.927 33.9993 11.2458 34.8301C11.082 35.0329 10.9314 35.2422 10.7611 35.4385C10.2961 35.9815 9.74623 36.0665 9.36684 35.674C8.98744 35.2815 9.03361 34.6796 9.5771 34.2609C10.3105 33.6983 11.0635 33.1292 11.8819 32.704C14.0359 31.5918 16.268 31.3236 18.5779 32.2722C19.0621 32.475 19.2649 32.6843 19.2711 33.2404C19.2891 36.1385 20.3283 38.6767 22.0418 40.9729C22.0745 41.0187 22.1399 41.0449 22.1596 41.058C21.6825 39.8019 21.1072 38.5524 20.7349 37.244C20.3692 35.9357 20.2129 34.5619 19.9715 33.2208C20.0697 33.1619 20.1679 33.1096 20.2661 33.0572Z" fill="white"/>
<path d="M31.4031 25.4766C31.5999 24.7505 31.849 24.0897 30.9525 23.8084C32.0458 23.2458 33.1065 22.6963 34.1147 22.1795C34.259 21.7085 34.3902 21.2702 34.5213 20.8384C34.5868 20.8384 34.6457 20.8384 34.7111 20.8319C34.8091 21.1132 34.9268 21.3879 35.0117 21.6692C35.1358 22.1075 35.4827 22.2188 35.9016 22.1075C36.5628 21.9244 36.8902 21.5907 37.0019 20.8908C37.0544 20.5898 37.48 20.3543 37.7092 20.1188C37.7616 20.1319 37.7027 20.1057 37.6438 20.1057C36.4788 20.0926 36.4395 20.0272 36.7609 18.9413C36.8133 18.7712 36.7676 18.5684 36.7677 18.3852C36.6957 18.3656 36.6238 18.3525 36.5518 18.3329C36.329 18.7843 36.0996 19.2291 35.8899 19.687C35.8506 19.7721 35.8309 19.9356 35.8832 19.988C36.4327 20.5833 35.8564 20.9889 35.6859 21.558C35.4047 21.1459 35.2414 20.688 34.9404 20.544C34.6786 20.4197 34.2465 20.6683 33.8865 20.7468C33.4353 20.0207 33.5599 19.5889 34.2409 19.131C34.6075 18.8824 34.8892 18.5095 35.1774 18.1628C35.7931 17.4235 37.2332 17.0572 38.0642 17.4628C38.1624 17.5086 38.3128 17.6983 38.2932 17.7179C38.1556 17.9076 37.9853 18.0712 37.815 18.2478C37.9917 18.3917 38.2207 18.588 38.4889 18.8104C38.8492 18.2805 39.2029 17.7703 39.5436 17.2535C39.7466 16.946 40.2311 16.717 39.891 16.2329C39.6752 15.9254 39.4267 15.6376 39.1912 15.3432C39.0081 15.1208 38.8184 14.9115 38.5699 14.6105C38.871 14.5516 39.0281 14.5255 39.1917 14.4928C39.2048 14.447 39.218 14.3946 39.2311 14.3489C38.1382 13.9956 37.0388 13.6423 35.946 13.2891C43.3028 13.3021 51.7277 22.4739 50.4135 31.3709C50.2633 30.769 50.1523 30.3111 50.0282 29.7943C49.3343 30.0494 49.4198 29.3691 49.1516 29.0681C48.5233 29.0158 48.1299 30.1279 47.3842 29.4476C46.7752 29.9774 46.1993 29.7616 45.6433 29.2055C45.604 29.284 45.5647 29.356 45.5253 29.4345C45.8392 29.9251 46.1204 30.4485 46.4866 30.8999C46.6828 31.1484 46.9512 31.0765 47.0823 30.7428C47.1807 30.4877 47.279 30.2326 47.3839 29.9644C48.2279 30.527 48.4436 31.0503 48.142 31.9008C47.6765 33.2288 46.9035 34.3736 45.9081 35.3549C45.7247 35.5381 45.4497 35.6362 45.1224 35.8259C44.7897 33.9353 43.6974 32.6204 42.448 31.3578C42.4147 32.2475 43.4413 34.0203 45.3838 36.4605C46.091 35.8979 46.8048 35.3418 47.656 34.6614C47.1644 35.9306 46.7514 37.0362 46.2992 38.1221C46.2467 38.2529 46.011 38.3707 45.8474 38.3838C43.7659 38.5866 41.6977 38.5212 39.6493 38.0959C37.8888 37.7296 36.5542 36.6436 35.4816 35.2895C34.5071 34.0596 33.6701 32.712 32.7938 31.397C32.1464 30.4288 31.5317 29.4476 30.8124 28.3289C32.0953 28.2177 33.2866 28.1065 34.4779 28.041C34.5695 28.0345 34.7722 28.3551 34.759 28.5055C34.6537 29.5653 34.6341 29.5653 35.7073 29.8466C35.8316 29.8793 35.9756 29.8924 36.0738 29.9644C36.8392 30.5531 37.52 30.4615 38.1945 29.7812C38.3255 29.6504 38.6397 29.6438 38.8622 29.6634C39.2483 29.7027 39.6214 29.8139 40.0075 29.8859C41.7025 30.213 42.3508 29.6438 42.2537 27.8513C41.6907 27.9429 41.1343 28.041 40.5779 28.1261C40.4797 28.1392 40.3554 28.1261 40.2703 28.0868C39.6618 27.7925 39.2628 27.3149 39.0603 26.5887C38.8967 26.6345 38.7068 26.6869 38.4581 26.7588C38.5692 27.0794 38.6606 27.3476 38.7652 27.6485C38.68 27.7663 38.5752 27.9233 38.3394 28.2569C37.9209 27.57 37.6202 26.9093 37.1623 26.3925C36.6849 25.8561 36.0568 25.4505 35.3567 24.8813C35.5787 25.9215 36.1871 26.4252 36.9723 26.7719C36.7102 27.2495 36.4612 27.7074 36.1861 28.2177C35.8981 28.0803 35.6495 27.9625 35.4074 27.8513C35.4074 27.799 35.414 27.7532 35.414 27.7009C35.63 27.6747 35.8526 27.6682 36.0555 27.6027C36.1799 27.5635 36.3436 27.4457 36.3764 27.3345C36.4026 27.2299 36.3176 27.0467 36.2195 26.9616C35.7093 26.4775 35.199 25.9934 34.656 25.5551C34.5383 25.457 34.2764 25.4897 34.0932 25.529C33.8902 25.5682 33.6676 25.7906 33.504 25.7448C32.771 25.529 32.5155 26 32.2272 26.5037C32.0765 26.7588 31.8669 26.9943 31.6443 27.1971C30.9108 27.871 30.3938 27.8448 29.6938 27.1775C29.2621 26.7719 28.6928 26.4514 29.1645 25.6925C29.42 25.2869 29.695 25.0906 30.1728 25.1953C30.5654 25.3 30.9646 25.3785 31.4031 25.4766ZM42.6018 25.6467C42.3993 24.9925 41.7057 24.6458 40.7108 24.7112C40.508 24.5215 40.3445 24.3645 40.1744 24.2009C40.0565 24.4103 39.932 24.6196 39.8271 24.8355C39.7223 25.0449 39.6175 25.2607 39.5584 25.4897C39.4994 25.7252 39.3814 26.0523 39.486 26.2028C39.5841 26.3402 39.9572 26.3729 40.1797 26.3205C40.9849 26.1243 41.7705 25.8822 42.6018 25.6467ZM43.912 23.7757C43.9905 23.7103 44.0691 23.6449 44.1542 23.5795C44.0104 23.3898 43.8665 23.2 43.7226 23.0103C43.5458 23.2 43.2184 23.3767 43.2183 23.5729C43.205 23.8935 43.3029 24.3252 43.5254 24.5215C43.9768 24.914 44.3824 25.2673 44.4867 25.9018C44.5193 26.0916 44.7483 26.3009 44.938 26.4056C45.0951 26.4972 45.3896 26.5299 45.514 26.4383C45.6384 26.3467 45.7237 26 45.6452 25.8888C45.3182 25.4112 44.9258 24.9729 44.553 24.5215C44.3437 24.2729 44.1213 24.0243 43.912 23.7757Z" fill="white"/>
<path d="M29.1531 14.0209C29.5722 13.7526 29.9912 13.4844 30.4233 13.2031C30.979 14.4003 32.1833 14.3676 33.2106 14.9956C32.7457 15.3292 32.3331 15.6236 31.9141 15.9115C31.4819 16.2059 31.0367 16.4806 30.5915 16.7554C30.4474 16.8404 30.2837 16.9516 30.1266 16.9582C28.6605 17.004 27.227 17.1217 26.1463 18.3647C26.094 18.3123 26.0417 18.2535 25.9893 18.2011C26.1335 17.9002 26.2057 17.5208 26.4349 17.3049C27.0374 16.7227 27.6988 16.2059 28.3405 15.676C28.6418 15.4339 28.9822 15.2377 29.2704 14.9825C29.8073 14.5115 29.7812 14.3872 29.1727 14.0078L29.1531 14.0209Z" fill="white"/>
<path d="M25.0801 15.7783C24.8181 16.1381 24.2615 16.6026 24.3465 16.8315C24.5752 17.4399 24.0058 17.4661 23.855 17.7736C23.7764 17.9371 23.5604 18.0222 23.4359 18.1726C23.3311 18.2969 23.2263 18.4539 23.1869 18.6109C23.0098 19.3044 22.4665 19.4941 21.8056 19.1735C21.5569 19.0492 21.1969 19.1343 20.8893 19.1474C20.5685 19.1605 20.2478 19.2063 19.7896 19.252C21.198 17.296 22.4884 15.4708 25.0151 15.0391C24.1442 15.7063 23.3323 16.3213 22.5203 16.9428C22.5661 17.0082 22.6053 17.0736 22.6511 17.1456C23.4368 16.6745 24.2225 16.197 25.0082 15.726C25.0344 15.739 25.0605 15.7587 25.0801 15.7783Z" fill="white"/>
<path d="M29.1786 14.0001C28.9626 14.1309 28.74 14.2421 28.5435 14.3991C27.797 14.9748 27.0767 15.5832 26.3171 16.1393C26.1011 16.3028 25.7934 16.3421 25.3875 16.486C25.5908 15.8318 25.8266 15.4982 26.3634 15.3346C26.9788 15.1449 27.5615 14.8374 28.1572 14.5823C28.1376 14.5234 28.118 14.4711 28.0984 14.4122C27.9217 14.3795 27.7385 14.3468 27.5552 14.3141C27.8174 13.7777 28.5964 13.4571 29.3294 13.5814C29.2704 13.7384 29.218 13.8823 29.1655 14.0328C29.1524 14.0197 29.1786 14.0001 29.1786 14.0001Z" fill="white"/>
<path d="M32.6037 22.5965C32.0538 22.7405 31.5432 22.8713 31.1701 22.9694C31.2358 22.4526 31.3016 21.9423 31.3608 21.4386C31.3937 21.1508 31.3349 20.8368 31.4333 20.5816C31.6103 20.0975 31.8916 20.2676 32.1402 20.5228C32.0813 20.5555 32.0289 20.5816 31.9699 20.6143C32.0483 20.9153 32.1136 21.2162 32.2051 21.5106C32.3096 21.8311 32.4403 22.1451 32.6037 22.5965Z" fill="white"/>
<path d="M18.1063 21.1738C18.3095 20.8075 18.4929 20.4281 18.7157 20.0748C19.1481 19.3944 19.3183 19.3748 19.9855 19.9178C19.3831 20.3626 18.7807 20.801 18.1849 21.2393C18.1587 21.2196 18.1325 21.1935 18.1063 21.1738Z" fill="white"/>
<path d="M30.8383 18.0292C30.7529 18.5068 30.4322 18.5395 30.0723 18.4283C29.6534 18.2974 29.6536 17.99 29.7651 17.6367C30.1185 17.7676 30.4456 17.8853 30.8383 18.0292Z" fill="white"/>
<path d="M30.0051 22.3164C30.1493 21.937 30.2673 21.6426 30.4246 21.2305C30.6144 21.3744 30.9873 21.5249 30.9742 21.6557C30.928 22.1987 30.4699 22.251 30.0051 22.3164Z" fill="white"/>
<path d="M22.394 20.0398C22.1582 20.2884 22.001 20.4519 21.8373 20.622C21.7196 20.465 21.5037 20.3015 21.5169 20.1575C21.5366 19.9678 21.7396 19.7977 21.8641 19.6211C22.008 19.7323 22.1519 19.8501 22.394 20.0398Z" fill="white"/>
<path d="M20.6325 20.6799C20.1356 19.8033 20.607 19.5613 21.2093 19.2734C21.0061 19.7575 20.8488 20.1435 20.6325 20.6799Z" fill="white"/>
<path d="M38.9229 16.8624C38.2097 16.5156 37.9482 15.9857 38.1514 15.4297C38.3868 15.8745 38.6418 16.339 38.9229 16.8624Z" fill="white"/>
<path d="M16.7041 24.1018C16.4419 24.8411 16.1797 25.5869 15.9174 26.3261C15.852 26.2999 15.7931 26.2803 15.7277 26.2541C16.003 25.5149 16.2783 24.7822 16.5536 24.043C16.606 24.0626 16.6583 24.0822 16.7041 24.1018Z" fill="white"/>
</g>
</g>
</g>
<defs>
<filter id="filter0_d_2555_36523" x="0.735849" y="0.743682" width="62.1877" height="62.1877" filterUnits="userSpaceOnUse" color-interpolation-filters="sRGB">
<feFlood flood-opacity="0" result="BackgroundImageFix"/>
<feColorMatrix in="SourceAlpha" type="matrix" values="0 0 0 0 0 0 0 0 0 0 0 0 0 0 0 0 0 0 127 0" result="hardAlpha"/>
<feOffset dy="0.837545"/>
<feGaussianBlur stdDeviation="1.04693"/>
<feComposite in2="hardAlpha" operator="out"/>
<feColorMatrix type="matrix" values="0 0 0 0 0.33 0 0 0 0 0.33 0 0 0 0 0.33 0 0 0 0.15 0"/>
<feBlend mode="normal" in2="BackgroundImageFix" result="effect1_dropShadow_2555_36523"/>
<feBlend mode="normal" in="SourceGraphic" in2="effect1_dropShadow_2555_36523" result="shape"/>
</filter>
<clipPath id="clip0_2555_36523">
<rect width="44.8087" height="44.8087" fill="white" transform="translate(9.11139 8.49219)"/>
</clipPath>
</defs>
</svg>
