<svg width="18" height="22" viewBox="0 0 18 22" fill="none" xmlns="http://www.w3.org/2000/svg">
<g id="Vector">
<path id="Vector_2" d="M15.125 7.871V6.625C15.125 5.00055 14.4797 3.44263 13.331 2.29397C12.1824 1.14531 10.6245 0.5 9 0.5C7.37555 0.5 5.81763 1.14531 4.66897 2.29397C3.52031 3.44263 2.875 5.00055 2.875 6.625V7.871C2.09569 8.21112 1.43238 8.77096 0.966187 9.48206C0.499992 10.1932 0.251119 11.0247 0.25 11.875V17.125C0.251389 18.2849 0.712772 19.3969 1.53294 20.2171C2.35311 21.0372 3.4651 21.4986 4.625 21.5H13.375C14.5349 21.4986 15.6469 21.0372 16.4671 20.2171C17.2872 19.3969 17.7486 18.2849 17.75 17.125V11.875C17.7489 11.0247 17.5 10.1932 17.0338 9.48206C16.5676 8.77096 15.9043 8.21112 15.125 7.871ZM4.625 6.625C4.625 5.46468 5.08594 4.35188 5.90641 3.53141C6.72688 2.71094 7.83968 2.25 9 2.25C10.1603 2.25 11.2731 2.71094 12.0936 3.53141C12.9141 4.35188 13.375 5.46468 13.375 6.625V7.5H4.625V6.625ZM16 17.125C16 17.8212 15.7234 18.4889 15.2312 18.9812C14.7389 19.4734 14.0712 19.75 13.375 19.75H4.625C3.92881 19.75 3.26113 19.4734 2.76884 18.9812C2.27656 18.4889 2 17.8212 2 17.125V11.875C2 11.1788 2.27656 10.5111 2.76884 10.0188C3.26113 9.52656 3.92881 9.25 4.625 9.25H13.375C14.0712 9.25 14.7389 9.52656 15.2312 10.0188C15.7234 10.5111 16 11.1788 16 11.875V17.125Z" fill="#07412A"/>
<path id="Vector_3" d="M9 12.75C8.76794 12.75 8.54538 12.8422 8.38128 13.0063C8.21719 13.1704 8.125 13.3929 8.125 13.625V15.375C8.125 15.6071 8.21719 15.8296 8.38128 15.9937C8.54538 16.1578 8.76794 16.25 9 16.25C9.23206 16.25 9.45462 16.1578 9.61872 15.9937C9.78281 15.8296 9.875 15.6071 9.875 15.375V13.625C9.875 13.3929 9.78281 13.1704 9.61872 13.0063C9.45462 12.8422 9.23206 12.75 9 12.75Z" fill="#07412A"/>
</g>
</svg>
