<svg width="16" height="20" viewBox="0 0 16 20" fill="none" xmlns="http://www.w3.org/2000/svg">
<path d="M12.9119 10.6031C12.9309 9.12265 13.7068 7.75539 14.9679 6.98031C14.1691 5.83868 12.8778 5.14119 11.4852 5.09765C10.0198 4.94406 8.5995 5.97406 7.85292 5.97406C7.0921 5.97406 5.94255 5.11269 4.70433 5.13802C3.0758 5.19107 1.59374 6.0944 0.801245 7.51867C-0.885869 10.44 0.372144 14.7342 1.9888 17.0959C2.79791 18.2525 3.74241 19.5438 4.97984 19.4987C6.19035 19.4488 6.64241 18.7268 8.1031 18.7268C9.55033 18.7268 9.97468 19.4987 11.2367 19.4694C12.535 19.448 13.3537 18.308 14.1343 17.1402C14.7154 16.316 15.1627 15.4056 15.4588 14.4421C13.9166 13.7897 12.9135 12.2784 12.9119 10.6031Z" fill="#5C5C5C"/>
<path d="M10.5286 3.54567C11.2364 2.69539 11.5855 1.60284 11.5008 0.5C10.4194 0.614005 9.41945 1.13099 8.70217 1.94802C7.9936 2.75476 7.63417 3.80931 7.70384 4.88127C8.80034 4.89236 9.84143 4.39992 10.5286 3.54567Z" fill="#5C5C5C"/>
</svg>
