<svg width="17" height="17" viewBox="0 0 17 17" fill="none" xmlns="http://www.w3.org/2000/svg">
<mask id="mask0_2429_44044" style="mask-type:luminance" maskUnits="userSpaceOnUse" x="0" y="0" width="17" height="17">
<path fill-rule="evenodd" clip-rule="evenodd" d="M16.314 7.20561H8.68605V10.2965H13.0767C12.6674 12.2602 10.9558 13.3874 8.68605 13.3874C6.00698 13.3874 3.84884 11.2783 3.84884 8.66016C3.84884 6.04197 6.00698 3.93288 8.68605 3.93288C9.83953 3.93288 10.8814 4.33288 11.7 4.98743L14.0814 2.66016C12.6302 1.42379 10.7698 0.660156 8.68605 0.660156C4.14651 0.660156 0.5 4.22379 0.5 8.66016C0.5 13.0965 4.14651 16.6602 8.68605 16.6602C12.7791 16.6602 16.5 13.7511 16.5 8.66016C16.5 8.18743 16.4256 7.67834 16.314 7.20561Z" fill="white"/>
</mask>
<g mask="url(#mask0_2429_44044)">
<path d="M-0.244141 13.3881V3.93359L6.08144 8.66087L-0.244141 13.3881Z" fill="#F5B544"/>
</g>
<mask id="mask1_2429_44044" style="mask-type:luminance" maskUnits="userSpaceOnUse" x="0" y="0" width="17" height="17">
<path fill-rule="evenodd" clip-rule="evenodd" d="M16.314 7.20561H8.68605V10.2965H13.0767C12.6674 12.2602 10.9558 13.3874 8.68605 13.3874C6.00698 13.3874 3.84884 11.2783 3.84884 8.66016C3.84884 6.04197 6.00698 3.93288 8.68605 3.93288C9.83953 3.93288 10.8814 4.33288 11.7 4.98743L14.0814 2.66016C12.6302 1.42379 10.7698 0.660156 8.68605 0.660156C4.14651 0.660156 0.5 4.22379 0.5 8.66016C0.5 13.0965 4.14651 16.6602 8.68605 16.6602C12.7791 16.6602 16.5 13.7511 16.5 8.66016C16.5 8.18743 16.4256 7.67834 16.314 7.20561Z" fill="white"/>
</mask>
<g mask="url(#mask1_2429_44044)">
<path d="M-0.244141 3.93359L6.08144 8.66087L8.68609 6.44268L17.6163 5.0245V-0.0664062H-0.244141V3.93359Z" fill="#E6521F"/>
</g>
<mask id="mask2_2429_44044" style="mask-type:luminance" maskUnits="userSpaceOnUse" x="0" y="0" width="17" height="17">
<path fill-rule="evenodd" clip-rule="evenodd" d="M16.314 7.20561H8.68605V10.2965H13.0767C12.6674 12.2602 10.9558 13.3874 8.68605 13.3874C6.00698 13.3874 3.84884 11.2783 3.84884 8.66016C3.84884 6.04197 6.00698 3.93288 8.68605 3.93288C9.83953 3.93288 10.8814 4.33288 11.7 4.98743L14.0814 2.66016C12.6302 1.42379 10.7698 0.660156 8.68605 0.660156C4.14651 0.660156 0.5 4.22379 0.5 8.66016C0.5 13.0965 4.14651 16.6602 8.68605 16.6602C12.7791 16.6602 16.5 13.7511 16.5 8.66016C16.5 8.18743 16.4256 7.67834 16.314 7.20561Z" fill="white"/>
</mask>
<g mask="url(#mask2_2429_44044)">
<path d="M-0.244141 13.3881L10.9186 5.0245L13.8582 5.38814L17.6163 -0.0664062V17.3881H-0.244141V13.3881Z" fill="#4B9F47"/>
</g>
<mask id="mask3_2429_44044" style="mask-type:luminance" maskUnits="userSpaceOnUse" x="0" y="0" width="17" height="17">
<path fill-rule="evenodd" clip-rule="evenodd" d="M16.314 7.20561H8.68605V10.2965H13.0767C12.6674 12.2602 10.9558 13.3874 8.68605 13.3874C6.00698 13.3874 3.84884 11.2783 3.84884 8.66016C3.84884 6.04197 6.00698 3.93288 8.68605 3.93288C9.83953 3.93288 10.8814 4.33288 11.7 4.98743L14.0814 2.66016C12.6302 1.42379 10.7698 0.660156 8.68605 0.660156C4.14651 0.660156 0.5 4.22379 0.5 8.66016C0.5 13.0965 4.14651 16.6602 8.68605 16.6602C12.7791 16.6602 16.5 13.7511 16.5 8.66016C16.5 8.18743 16.4256 7.67834 16.314 7.20561Z" fill="white"/>
</mask>
<g mask="url(#mask3_2429_44044)">
<path d="M17.617 17.3881L6.08212 8.66087L4.59375 7.56996L17.617 3.93359V17.3881Z" fill="#2772F0"/>
</g>
</svg>
