<svg width="260" height="260" viewBox="0 0 260 260" fill="none" xmlns="http://www.w3.org/2000/svg">
<path d="M247.839 224.126H17.7998C17.7998 224.126 8.65391 227.111 3.60897 203.359C-1.43596 179.608 24.5286 173.243 30.7024 152.731C36.8762 132.22 9.94225 136.538 12.2064 108.469C14.4706 80.3995 51.4816 79.8574 69.4355 83.6395C87.3893 87.4216 85.1443 74.4616 105.904 52.866C126.665 31.2704 158.069 33.4388 173.772 50.1681C189.474 66.8974 184.436 84.1752 204.073 84.1752C223.711 84.1752 241.665 87.9573 253.445 124.12C265.225 160.283 243.693 176.815 244.082 193.116C244.411 203.544 245.668 213.921 247.839 224.126Z" fill="#92E3A9"/>
<path opacity="0.6" d="M247.839 224.126H17.7998C17.7998 224.126 8.65391 227.111 3.60897 203.359C-1.43596 179.608 24.5286 173.243 30.7024 152.731C36.8762 132.22 9.94225 136.538 12.2064 108.469C14.4706 80.3995 51.4816 79.8574 69.4355 83.6395C87.3893 87.4216 85.1443 74.4616 105.904 52.866C126.665 31.2704 158.069 33.4388 173.772 50.1681C189.474 66.8974 184.436 84.1752 204.073 84.1752C223.711 84.1752 241.665 87.9573 253.445 124.12C265.225 160.283 243.693 176.815 244.082 193.116C244.411 203.544 245.668 213.921 247.839 224.126Z" fill="white"/>
<path d="M147.438 49.5039H104.068V112.008H147.438V49.5039Z" fill="#92E3A9"/>
<path opacity="0.4" d="M147.438 49.5039H104.068V112.008H147.438V49.5039Z" fill="white"/>
<path d="M141.245 58.4336H110.268V103.079H141.245V58.4336Z" fill="white"/>
<path d="M69.5324 86.9219H39.4414V130.292H69.5324V86.9219Z" fill="#92E3A9"/>
<path opacity="0.4" d="M69.5324 86.9219H39.4414V130.292H69.5324V86.9219Z" fill="white"/>
<path d="M65.2338 93.1172H43.7402V124.095H65.2338V93.1172Z" fill="white"/>
<path d="M215.587 86.9219H185.496V130.292H215.587V86.9219Z" fill="#92E3A9"/>
<path opacity="0.4" d="M215.587 86.9219H185.496V130.292H215.587V86.9219Z" fill="white"/>
<path d="M211.289 93.1172H189.795V124.095H211.289V93.1172Z" fill="white"/>
<path d="M182.071 173.686C180.795 176.875 179.443 174.324 179.653 160.892C179.755 154.604 180.196 141.758 187.154 144.584C193.832 147.301 185.03 166.301 185.03 166.301L182.071 173.686ZM191.637 175.6C191.637 175.6 206.134 160.49 200.694 155.752C195.037 150.815 190.445 162.825 188.308 168.743C183.754 181.365 184.175 184.229 186.439 181.62L191.637 175.6ZM194.693 189.159C194.693 189.159 207.965 179.707 204.495 175.294C200.885 170.701 195.636 179.222 193.143 183.432C187.83 192.425 187.741 194.676 189.845 192.999L194.693 189.159ZM198.283 202.68C198.283 202.68 211.562 193.228 208.093 188.815C204.476 184.223 199.227 192.737 196.74 196.953C191.427 205.939 191.331 208.197 193.442 206.52L198.283 202.68ZM175.106 175.498C175.106 175.498 156.527 165.829 153.51 172.379C150.366 179.197 163.179 180.23 169.455 180.613C182.849 181.442 185.483 180.23 182.345 178.789L175.106 175.498ZM177.721 186.136C177.721 186.136 157.592 180.358 155.934 187.38C154.212 194.682 166.974 193.12 173.205 192.278C186.497 190.428 188.831 188.719 185.47 187.928L177.721 186.136ZM182.326 197.744C182.326 197.744 165.175 193.318 163.932 199.294C162.656 205.512 173.403 203.918 178.652 203.037C189.845 201.162 191.784 199.664 188.927 199.077L182.326 197.744ZM185.011 207.311C185.011 207.311 168.428 201.086 166.56 206.896C164.614 212.949 175.489 212.502 180.795 212.183C192.129 211.507 194.189 210.225 191.427 209.332L185.011 207.311ZM173.894 158.756C173.894 158.756 166.324 135.221 157.726 139.501C148.797 143.965 159.116 154.559 164.289 159.642C175.316 170.485 178.729 171.237 177.281 167.455L173.894 158.756Z" fill="white"/>
<path d="M161.324 147.914C161.324 147.914 180.343 171.117 184.891 182.731C190.121 196.08 193.679 211.113 194.387 223.55" stroke="#CCCCCC" stroke-width="0.881417" stroke-linecap="round" stroke-linejoin="round"/>
<path d="M181.102 175.148L183.748 153.023" stroke="#CCCCCC" stroke-width="0.881417" stroke-linecap="round" stroke-linejoin="round"/>
<path d="M184.891 182.723L194.458 164.125" stroke="#CCCCCC" stroke-width="0.881417" stroke-linecap="round" stroke-linejoin="round"/>
<path d="M183.493 179.969L163.453 175.887" stroke="#CCCCCC" stroke-width="0.881417" stroke-linecap="round" stroke-linejoin="round"/>
<path d="M188.652 193.279L200.432 179.859" stroke="#CCCCCC" stroke-width="0.881417" stroke-linecap="round" stroke-linejoin="round"/>
<path d="M187.007 188.861L171.885 188.727" stroke="#CCCCCC" stroke-width="0.881417" stroke-linecap="round" stroke-linejoin="round"/>
<path d="M189.922 199.844L178.32 200.297" stroke="#CCCCCC" stroke-width="0.881417" stroke-linecap="round" stroke-linejoin="round"/>
<path d="M192.301 206.845L198.513 198.566" stroke="#CCCCCC" stroke-width="0.881417" stroke-linecap="round" stroke-linejoin="round"/>
<path d="M192.76 209.926L179.188 209.25" stroke="#CCCCCC" stroke-width="0.881417" stroke-linecap="round" stroke-linejoin="round"/>
<path d="M230.555 192.012C228.214 192.892 228.928 190.921 236.167 184.441C239.56 181.399 246.614 175.321 248.528 180.41C250.371 185.302 235.938 189.977 235.938 189.977L230.555 192.012ZM234.235 198.026C234.235 198.026 249.401 198.313 249.248 193.09C249.089 187.656 240.447 191.112 236.25 192.885C227.321 196.668 225.975 198.3 228.476 198.224L234.235 198.026ZM228.527 206.317C228.527 206.317 240.077 208.735 240.721 204.716C241.359 200.539 234.273 201.936 230.81 202.682C223.418 204.27 222.174 205.329 224.094 205.635L228.527 206.317ZM223.124 214.883C223.124 214.883 234.681 217.3 235.319 213.282C235.989 209.104 228.877 210.495 225.408 211.241C218.022 212.829 216.747 213.888 218.66 214.194L223.124 214.883ZM226.192 189.193C226.192 189.193 222.2 174.555 217.263 176.169C212.091 177.846 217.844 185.175 220.726 188.702C226.868 196.234 228.807 197.037 228.029 194.658L226.192 189.193ZM221.817 195.813C221.817 195.813 214.999 182.266 210.452 184.83C205.713 187.509 212.805 193.542 216.326 196.425C223.845 202.586 225.892 202.988 224.674 200.813L221.817 195.813ZM217.907 203.964C217.907 203.964 211.829 192.669 208.041 194.945C204.099 197.318 210.235 202.255 213.283 204.614C219.782 209.647 221.53 209.94 220.439 208.129L217.907 203.964ZM214.132 210.106C214.132 210.106 209.284 198.224 205.279 200.086C201.108 201.999 206.682 207.587 209.463 210.259C215.394 215.954 217.116 216.433 216.211 214.513L214.132 210.106ZM234.484 180.34C234.484 180.34 243.279 164.746 236.78 162.278C230.019 159.727 229.451 170.422 229.292 175.671C228.948 186.871 230.223 189.065 231.524 186.425L234.484 180.34Z" fill="white"/>
<path d="M234.062 168.32C234.062 168.32 231.071 189.839 227.13 197.971C222.601 207.309 215.764 217.252 209.488 223.744" stroke="#CCCCCC" stroke-width="0.881417" stroke-linecap="round" stroke-linejoin="round"/>
<path d="M229.299 192.215L242.367 182.75" stroke="#CCCCCC" stroke-width="0.881417" stroke-linecap="round" stroke-linejoin="round"/>
<path d="M227.131 197.955L241.724 193.898" stroke="#CCCCCC" stroke-width="0.881417" stroke-linecap="round" stroke-linejoin="round"/>
<path d="M227.909 195.854L220.23 183.188" stroke="#CCCCCC" stroke-width="0.881417" stroke-linecap="round" stroke-linejoin="round"/>
<path d="M223.367 205.14L236.295 204.809" stroke="#CCCCCC" stroke-width="0.881417" stroke-linecap="round" stroke-linejoin="round"/>
<path d="M224.911 202.093L217.545 193.98" stroke="#CCCCCC" stroke-width="0.881417" stroke-linecap="round" stroke-linejoin="round"/>
<path d="M220.499 209.038L214.555 203.094" stroke="#CCCCCC" stroke-width="0.881417" stroke-linecap="round" stroke-linejoin="round"/>
<path d="M217.941 213.754L225.404 212.988" stroke="#CCCCCC" stroke-width="0.881417" stroke-linecap="round" stroke-linejoin="round"/>
<path d="M216.525 215.506L210.217 207.961" stroke="#CCCCCC" stroke-width="0.881417" stroke-linecap="round" stroke-linejoin="round"/>
<path d="M35.1107 173.685C33.8351 176.874 32.483 174.322 32.6935 160.891C32.7955 154.602 33.2356 141.757 40.1939 144.582C46.878 147.299 38.0701 166.299 38.0701 166.299L35.1107 173.685ZM44.6776 175.598C44.6776 175.598 59.1746 160.489 53.7406 155.75C48.077 150.813 43.4849 162.823 41.3483 168.742C36.7945 181.364 37.2154 184.227 39.4796 181.619L44.6776 175.598ZM47.7326 189.145C47.7326 189.145 61.0115 179.693 57.5355 175.279C53.9256 170.687 48.6766 179.208 46.1828 183.417C40.87 192.41 40.7807 194.662 42.8918 192.984L47.7326 189.145ZM51.3298 202.666C51.3298 202.666 64.5895 193.195 61.1263 188.8C57.51 184.208 52.2609 192.723 49.7736 196.939C44.4607 205.925 44.3651 208.183 46.4762 206.505L51.3298 202.666ZM28.1333 175.483C28.1333 175.483 9.56076 165.814 6.53763 172.364C3.39331 179.182 16.2066 180.216 22.4824 180.598C35.8761 181.427 38.5038 180.216 35.3658 178.774L28.1333 175.483ZM30.7482 186.122C30.7482 186.122 10.6259 180.343 8.96124 187.365C7.2392 194.668 20.0014 193.105 26.2326 192.264C39.5242 190.414 41.8649 188.705 38.5038 187.914L30.7482 186.122ZM35.3531 197.729C35.3531 197.729 18.2028 193.303 16.9591 199.279C15.6836 205.498 26.4304 203.903 31.6794 203.023C42.8726 201.148 44.8115 199.649 41.9542 199.062L35.3531 197.729ZM38.0382 207.296C38.0382 207.296 21.4556 201.071 19.5869 206.882C17.6416 212.934 28.5159 212.488 33.8224 212.169C45.1559 211.493 47.216 210.211 44.4608 209.318L38.0382 207.296ZM26.9342 158.754C26.9342 158.754 19.3636 135.245 10.7407 139.525C1.81159 143.989 12.1311 154.583 17.3036 159.666C28.3374 170.508 31.7496 171.261 30.2954 167.479L26.9342 158.754Z" fill="white"/>
<path d="M14.3633 147.914C14.3633 147.914 33.3822 171.117 37.9297 182.731C43.1596 196.08 46.7185 211.113 47.4264 223.55" stroke="#CCCCCC" stroke-width="0.881417" stroke-linecap="round" stroke-linejoin="round"/>
<path d="M34.1484 175.148L36.7889 153.023" stroke="#CCCCCC" stroke-width="0.881417" stroke-linecap="round" stroke-linejoin="round"/>
<path d="M37.9297 182.723L47.4966 164.125" stroke="#CCCCCC" stroke-width="0.881417" stroke-linecap="round" stroke-linejoin="round"/>
<path d="M36.5331 179.969L16.5 175.887" stroke="#CCCCCC" stroke-width="0.881417" stroke-linecap="round" stroke-linejoin="round"/>
<path d="M41.6934 193.279L53.4734 179.859" stroke="#CCCCCC" stroke-width="0.881417" stroke-linecap="round" stroke-linejoin="round"/>
<path d="M40.0478 188.861L24.9258 188.727" stroke="#CCCCCC" stroke-width="0.881417" stroke-linecap="round" stroke-linejoin="round"/>
<path d="M42.9608 199.844L31.3594 200.297" stroke="#CCCCCC" stroke-width="0.881417" stroke-linecap="round" stroke-linejoin="round"/>
<path d="M45.3477 206.845L51.5598 198.566" stroke="#CCCCCC" stroke-width="0.881417" stroke-linecap="round" stroke-linejoin="round"/>
<path d="M45.8007 209.926L32.2285 209.25" stroke="#CCCCCC" stroke-width="0.881417" stroke-linecap="round" stroke-linejoin="round"/>
<path d="M83.5949 192.012C81.2542 192.892 81.9686 190.921 89.2075 184.441C92.6069 181.399 99.6545 175.321 101.568 180.41C103.411 185.302 88.9779 189.977 88.9779 189.977L83.5949 192.012ZM87.275 198.026C87.275 198.026 102.442 198.313 102.289 193.09C102.129 187.656 93.4871 191.112 89.2904 192.885C80.3613 196.668 79.0156 198.3 81.5157 198.224L87.275 198.026ZM81.5668 206.317C81.5668 206.317 93.1172 208.735 93.7613 204.716C94.3991 200.539 87.3133 201.936 83.8501 202.682C76.4325 204.27 75.2144 205.316 77.1341 205.635L81.5668 206.317ZM76.1391 214.883C76.1391 214.883 87.6959 217.3 88.3337 213.282C89.0034 209.104 81.892 210.495 78.4288 211.241C71.0304 212.836 69.7867 213.894 71.7129 214.2L76.1391 214.883ZM79.2069 189.193C79.2069 189.193 75.2207 174.555 70.2778 176.169C65.1054 177.846 70.8519 185.175 73.7347 188.702C79.8766 196.234 81.8155 197.037 81.0374 194.658L79.2069 189.193ZM74.8317 195.813C74.8317 195.813 68.0137 182.266 63.4662 184.83C58.7274 187.509 65.8197 193.542 69.3467 196.425C76.8662 202.586 78.9135 202.988 77.689 200.813L74.8317 195.813ZM70.922 203.964C70.922 203.964 64.8439 192.669 61.0554 194.945C57.1138 197.318 63.2494 202.255 66.298 204.614C72.7971 209.647 74.551 209.94 73.454 208.129L70.922 203.964ZM67.1463 210.106C67.1463 210.106 62.3054 198.224 58.2937 200.086C54.1226 201.999 59.7032 207.587 62.4776 210.259C68.4091 215.954 70.1311 216.433 69.2255 214.513L67.1463 210.106ZM87.4982 180.34C87.4982 180.34 96.2998 164.746 89.8007 162.278C83.0337 159.727 82.4724 170.422 82.3066 175.671C81.9686 186.871 83.2378 189.065 84.5389 186.425L87.4982 180.34Z" fill="white"/>
<path d="M87.1034 168.32C87.1034 168.32 84.1122 189.839 80.1706 197.971C75.6423 207.309 68.8052 217.252 62.5293 223.744" stroke="#CCCCCC" stroke-width="0.881417" stroke-linecap="round" stroke-linejoin="round"/>
<path d="M82.3398 192.215L95.4082 182.75" stroke="#CCCCCC" stroke-width="0.881417" stroke-linecap="round" stroke-linejoin="round"/>
<path d="M80.1699 197.955L94.7626 193.898" stroke="#CCCCCC" stroke-width="0.881417" stroke-linecap="round" stroke-linejoin="round"/>
<path d="M80.9486 195.854L73.2695 183.188" stroke="#CCCCCC" stroke-width="0.881417" stroke-linecap="round" stroke-linejoin="round"/>
<path d="M76.4082 205.14L89.3362 204.809" stroke="#CCCCCC" stroke-width="0.881417" stroke-linecap="round" stroke-linejoin="round"/>
<path d="M77.9505 202.093L70.584 193.98" stroke="#CCCCCC" stroke-width="0.881417" stroke-linecap="round" stroke-linejoin="round"/>
<path d="M73.538 209.038L67.5938 203.094" stroke="#CCCCCC" stroke-width="0.881417" stroke-linecap="round" stroke-linejoin="round"/>
<path d="M70.9805 213.754L78.4426 212.988" stroke="#CCCCCC" stroke-width="0.881417" stroke-linecap="round" stroke-linejoin="round"/>
<path d="M69.57 215.506L63.2559 207.961" stroke="#CCCCCC" stroke-width="0.881417" stroke-linecap="round" stroke-linejoin="round"/>
<path d="M120.102 92.2356C120.102 92.2356 111.938 89.6335 105.694 96.0624C99.4504 102.491 102.741 115.33 102.741 119.839C102.741 124.348 97.0013 153.004 97.0013 153.004C97.0013 153.004 94.2205 163.42 101.861 170.021C109.502 176.622 123.623 176.048 129.65 163.343C135.677 150.638 129.286 132.525 129.286 123.162C129.286 113.799 130.677 107.543 128.591 100.776C127.958 98.7793 126.857 96.963 125.381 95.4776C123.904 93.9922 122.095 92.8808 120.102 92.2356Z" fill="#263238" stroke="#263238" stroke-width="0.704024" stroke-linecap="round" stroke-linejoin="round"/>
<path d="M117.679 97.1016C117.679 97.1016 109.809 106.885 104.496 109.647" stroke="white" stroke-width="0.704024" stroke-linecap="round" stroke-linejoin="round"/>
<path d="M110.874 96.2539C110.874 96.2539 106.837 106.031 103.221 108.799" stroke="white" stroke-width="0.704024" stroke-linecap="round" stroke-linejoin="round"/>
<path d="M133.523 129.884C134.277 130.413 134.91 131.095 135.381 131.887C135.851 132.679 136.149 133.561 136.253 134.476C136.718 137.729 133.249 145.249 132.553 148.967C131.896 153.481 131.473 158.026 131.284 162.584C131.284 163.745 135.238 180.939 135.934 185.123C136.629 189.307 135.583 199.155 135.002 199.875C134.422 200.596 132.796 197.203 132.681 194.996C132.566 192.79 128.267 175.824 126.641 170.716C125.015 165.607 125.474 158.865 125.474 158.865C125.474 158.865 127.687 143.412 127.687 137.487C127.687 131.562 127.866 127.129 127.866 127.129L133.523 129.884Z" fill="#92E3A9" stroke="#263238" stroke-width="0.704024" stroke-linecap="round" stroke-linejoin="round"/>
<path d="M134.988 199.851C135.569 199.156 136.615 189.276 135.919 185.099C135.224 180.921 131.283 163.72 131.283 162.585C131.474 158.035 131.9 153.499 132.558 148.993C132.814 147.801 133.142 146.625 133.541 145.473C132.174 146.131 130.676 146.471 129.159 146.468C128.349 146.468 127.558 147.214 126.799 148.483C126.161 153.879 125.466 158.866 125.466 158.866C125.466 158.866 125.007 165.601 126.633 170.716C128.26 175.832 132.558 192.79 132.673 194.997C132.788 197.204 134.408 200.546 134.988 199.851Z" fill="white" stroke="#263238" stroke-width="0.704024" stroke-linecap="round" stroke-linejoin="round"/>
<path d="M111.665 224.245C111.92 221.388 112.456 215.572 112.801 213.326C113.266 210.31 114.191 204.149 114.191 204.149L116.544 224.245H132.668C133.248 219.864 134.709 208.116 134.989 199.85C135.34 189.511 127.553 168.133 127.336 166.506C127.119 164.88 127.565 160.128 127.565 158.725C127.565 157.322 131.622 148.418 131.966 143.884C132.311 139.349 133.363 137.959 133.363 137.959L133.943 130.305C133.593 130.19 128.382 126.089 123.152 124.565C119.971 123.662 116.613 123.583 113.394 124.335C113.394 124.335 105.842 127.703 102.009 129.329C98.176 130.956 95.0253 134.094 94.9296 138.156C94.8339 142.219 102.36 159.535 103.061 160.817C103.763 162.099 101.55 166.621 100.619 168.949C99.6875 171.277 95.8544 179.638 93.3032 188.931C91.1156 196.865 92.5761 218.186 93.0545 224.245H111.665Z" fill="#92E3A9" stroke="#263238" stroke-width="0.704024" stroke-linecap="round" stroke-linejoin="round"/>
<path d="M115.287 157.608C115.287 157.608 121.244 158.323 127.207 152.602" stroke="#263238" stroke-width="0.704024" stroke-linecap="round" stroke-linejoin="round"/>
<path d="M119.421 140.95C121.163 140.484 123.376 133.296 123.605 129.565C123.733 127.48 123.86 125.923 123.803 124.775C123.586 124.705 123.363 124.629 123.165 124.565C119.985 123.662 116.627 123.583 113.407 124.335L110.333 125.7C110.076 127.352 110.254 129.043 110.85 130.605C112.106 134.094 117.68 141.415 119.421 140.95Z" fill="white" stroke="#263238" stroke-width="0.704024" stroke-linecap="round" stroke-linejoin="round"/>
<path d="M111.641 120.771C111.641 120.771 112.227 127.615 112.578 129.292C112.929 130.969 116.456 137.583 118.452 137.22C120.449 136.856 121.718 128.214 121.718 127.372C121.718 126.53 121.954 119.719 121.954 119.719C121.954 119.719 117.751 123.169 111.641 120.771Z" fill="white" stroke="#263238" stroke-width="0.704024" stroke-linecap="round" stroke-linejoin="round"/>
<path d="M100.134 130.492C100.134 130.492 95.376 130.728 92.7036 136.073C90.0313 141.418 93.1628 145.002 94.2088 147.107C95.2548 149.211 98.1631 157.796 99.0879 160.354C100.013 162.911 101.881 165.928 105.134 170.112C108.387 174.296 115.237 183.238 115.237 183.238L117.099 186.49C117.099 186.49 120.237 190.094 120.582 190.209C120.926 190.323 123.024 192.996 123.834 191.369C124.644 189.743 123.834 183.939 123.834 183.939C123.834 183.939 125.11 186.49 125.582 185.91C126.054 185.33 125.461 184.054 125.001 182.657C124.542 181.26 120.243 178.594 119.306 178.473C118.368 178.352 117.214 177.198 115.824 174.411C114.433 171.623 113.381 166.757 111.174 163.836C108.967 160.915 106.072 156.635 106.072 156.635C106.072 156.635 102.819 145.015 102.819 144.549C103.057 142.379 102.738 140.184 101.894 138.171" fill="#92E3A9"/>
<path d="M100.134 130.492C100.134 130.492 95.376 130.728 92.7036 136.073C90.0313 141.418 93.1628 145.002 94.2088 147.107C95.2548 149.211 98.1631 157.796 99.0879 160.354C100.013 162.911 101.881 165.928 105.134 170.112C108.387 174.296 115.237 183.238 115.237 183.238L117.099 186.49C117.099 186.49 120.237 190.094 120.582 190.209C120.926 190.323 123.024 192.996 123.834 191.369C124.644 189.743 123.834 183.939 123.834 183.939C123.834 183.939 125.11 186.49 125.582 185.91C126.054 185.33 125.461 184.054 125.001 182.657C124.542 181.26 120.243 178.594 119.306 178.473C118.368 178.352 117.214 177.198 115.824 174.411C114.433 171.623 113.381 166.757 111.174 163.836C108.967 160.915 106.072 156.635 106.072 156.635C106.072 156.635 102.819 145.015 102.819 144.549C103.057 142.379 102.738 140.184 101.894 138.171" stroke="#263238" stroke-width="0.704024" stroke-linecap="round" stroke-linejoin="round"/>
<path d="M119.306 178.471C118.375 178.356 117.214 177.195 115.824 174.408C114.433 171.621 113.381 166.755 111.174 163.834C108.967 160.912 106.072 156.633 106.072 156.633C106.072 156.633 103.872 148.763 103.093 145.72C98.8202 145.121 96.0012 145.982 94.209 147.079C95.255 149.171 98.1633 157.768 99.0881 160.326C100.013 162.883 101.882 165.9 105.134 170.084C108.387 174.268 115.237 183.21 115.237 183.21L117.099 186.462C117.099 186.462 120.237 190.066 120.582 190.181C120.926 190.296 123.024 192.968 123.834 191.342C124.644 189.715 123.834 183.911 123.834 183.911C123.834 183.911 125.11 186.462 125.582 185.882C126.054 185.302 125.461 184.026 125.002 182.629C124.542 181.233 120.244 178.592 119.306 178.471Z" fill="white" stroke="#263238" stroke-width="0.704024" stroke-linecap="round" stroke-linejoin="round"/>
<path d="M111.665 224.247C111.92 221.39 112.456 215.573 112.801 213.328C113.266 210.311 114.191 204.15 114.191 204.15L116.544 224.247H132.668C133.248 219.865 134.709 208.117 134.989 199.852C135.136 195.546 133.867 189.322 132.323 183.409C118.694 186.394 103.24 184.232 95.2166 182.676C94.5405 184.672 93.8772 186.77 93.3032 188.933C91.1156 196.867 92.5761 218.188 93.0545 224.247H111.665Z" fill="#263238" stroke="#263238" stroke-width="0.704024" stroke-linecap="round" stroke-linejoin="round"/>
<path d="M107.602 110.58C107.602 110.58 106.562 110.114 106.562 112.2C106.562 114.285 108.878 115.669 108.878 115.669L107.602 110.58Z" fill="white" stroke="#263238" stroke-width="0.704024" stroke-linecap="round" stroke-linejoin="round"/>
<path d="M119.534 99.125C119.534 99.125 115.822 104.355 112.563 106.447C110.882 107.552 109.138 108.56 107.34 109.464C107.34 109.464 108.966 116.205 109.661 118.393C110.357 120.58 112.442 124.445 116.626 124.675C120.81 124.905 122.672 120.485 123.489 118.393C123.953 117.312 124.203 116.151 124.222 114.974C124.809 114.603 125.31 114.111 125.691 113.53C126.071 112.949 126.323 112.293 126.429 111.607C126.659 109.4 126.078 109.515 126.078 109.515C126.078 109.515 125.44 110.235 124.056 109.151C122.934 108.316 119.165 102.263 119.534 99.125Z" fill="white" stroke="#263238" stroke-width="0.704024" stroke-linecap="round" stroke-linejoin="round"/>
<path d="M110.676 112.334C110.676 112.334 112.315 111.135 114.713 112.334" stroke="#263238" stroke-width="0.704024" stroke-linecap="round" stroke-linejoin="round"/>
<path d="M118.094 112.551C118.094 112.551 120.058 110.803 122.131 112.226" stroke="#263238" stroke-width="0.704024" stroke-linecap="round" stroke-linejoin="round"/>
<path d="M110.352 109.712C110.352 109.712 111.225 108.079 114.178 108.845" stroke="#263238" stroke-width="0.704024" stroke-linecap="round" stroke-linejoin="round"/>
<path d="M118.094 108.953C118.762 108.466 119.585 108.241 120.409 108.321C121.232 108.4 121.997 108.78 122.558 109.387" stroke="#263238" stroke-width="0.704024" stroke-linecap="round" stroke-linejoin="round"/>
<path d="M117.768 116.148C117.768 116.148 116.021 117.347 115.262 116.148" stroke="#263238" stroke-width="0.704024" stroke-linecap="round" stroke-linejoin="round"/>
<path d="M114.605 118.659C114.605 118.659 116.787 119.527 117.877 118.551" stroke="#263238" stroke-width="0.704024" stroke-linecap="round" stroke-linejoin="round"/>
<path d="M77.7404 181.354C77.7404 181.354 82.8427 192.682 84.0609 194.965C85.2791 197.248 86.695 203.747 86.8672 207.606C87.0394 211.465 86.8672 212.262 85.9934 212.172C85.1196 212.083 84.7625 207.255 84.7625 206.464V205.24C84.7625 205.24 84.3224 209.8 83.6208 210.68C82.9193 211.56 81.9498 212.523 81.8669 212C81.784 211.477 82.0391 210.591 82.3899 209.277C82.6018 208.267 82.662 207.231 82.5685 206.203C82.5685 206.203 82.0391 208.658 80.8145 209.538C79.59 210.419 78.2634 210.769 78.7034 210.068C79.1435 209.366 80.2852 208.575 80.5467 207.695C80.7275 206.889 80.8173 206.066 80.8145 205.24C80.8145 205.24 79.1435 207.957 78.4419 208.397C77.7404 208.837 77.7404 207.874 78.1805 207.434C78.6205 206.994 79.5836 204.009 79.5836 204.009C79.5836 204.009 79.3157 203.83 78.0912 201.113C76.8666 198.396 76.1778 193.645 75.8079 191.801C75.438 189.958 74.7555 187.503 74.7555 187.503L67.9949 176.175C67.9949 176.175 67.4655 173.452 70.0103 172.987C72.5551 172.521 77.7404 181.354 77.7404 181.354Z" fill="white"/>
<mask id="mask0_2436_50578" style="mask-type:luminance" maskUnits="userSpaceOnUse" x="67" y="172" width="20" height="41">
<path d="M77.7404 181.354C77.7404 181.354 82.8427 192.682 84.0609 194.965C85.2791 197.248 86.695 203.747 86.8672 207.606C87.0394 211.465 86.8672 212.262 85.9934 212.172C85.1196 212.083 84.7625 207.255 84.7625 206.464V205.24C84.7625 205.24 84.3224 209.8 83.6208 210.68C82.9193 211.56 81.9498 212.523 81.8669 212C81.784 211.477 82.0391 210.591 82.3899 209.277C82.6018 208.267 82.662 207.231 82.5685 206.203C82.5685 206.203 82.0391 208.658 80.8145 209.538C79.59 210.419 78.2634 210.769 78.7034 210.068C79.1435 209.366 80.2852 208.575 80.5467 207.695C80.7275 206.889 80.8173 206.066 80.8145 205.24C80.8145 205.24 79.1435 207.957 78.4419 208.397C77.7404 208.837 77.7404 207.874 78.1805 207.434C78.6205 206.994 79.5836 204.009 79.5836 204.009C79.5836 204.009 79.3157 203.83 78.0912 201.113C76.8666 198.396 76.1778 193.645 75.8079 191.801C75.438 189.958 74.7555 187.503 74.7555 187.503L67.9949 176.175C67.9949 176.175 67.4655 173.452 70.0103 172.987C72.5551 172.521 77.7404 181.354 77.7404 181.354Z" fill="white"/>
</mask>
<g mask="url(#mask0_2436_50578)">
<path opacity="0.15" d="M77.7404 181.354C77.7404 181.354 82.8427 192.682 84.0609 194.965C85.2791 197.248 86.695 203.747 86.8672 207.606C87.0394 211.465 86.8672 212.262 85.9934 212.172C85.1196 212.083 84.7625 207.255 84.7625 206.464V205.24C84.7625 205.24 84.3224 209.8 83.6208 210.68C82.9193 211.56 81.9498 212.523 81.8669 212C81.784 211.477 82.0391 210.591 82.3899 209.277C82.6018 208.267 82.662 207.231 82.5685 206.203C82.5685 206.203 82.0391 208.658 80.8145 209.538C79.59 210.419 78.2634 210.769 78.7034 210.068C79.1435 209.366 80.2852 208.575 80.5467 207.695C80.7275 206.889 80.8173 206.066 80.8145 205.24C80.8145 205.24 79.1435 207.957 78.4419 208.397C77.7404 208.837 77.7404 207.874 78.1805 207.434C78.6205 206.994 79.5836 204.009 79.5836 204.009C79.5836 204.009 79.3157 203.83 78.0912 201.113C76.8666 198.396 76.1778 193.645 75.8079 191.801C75.438 189.958 74.7555 187.503 74.7555 187.503L67.9949 176.175C67.9949 176.175 67.4655 173.452 70.0103 172.987C72.5551 172.521 77.7404 181.354 77.7404 181.354Z" fill="black"/>
</g>
<path d="M77.7404 181.354C77.7404 181.354 82.8427 192.682 84.0609 194.965C85.2791 197.248 86.695 203.747 86.8672 207.606C87.0394 211.465 86.8672 212.262 85.9934 212.172C85.1196 212.083 84.7625 207.255 84.7625 206.464V205.24C84.7625 205.24 84.3224 209.8 83.6208 210.68C82.9193 211.56 81.9498 212.523 81.8669 212C81.784 211.477 82.0391 210.591 82.3899 209.277C82.6018 208.267 82.662 207.231 82.5685 206.203C82.5685 206.203 82.0391 208.658 80.8145 209.538C79.59 210.419 78.2634 210.769 78.7034 210.068C79.1435 209.366 80.2852 208.575 80.5467 207.695C80.7275 206.889 80.8173 206.066 80.8145 205.24C80.8145 205.24 79.1435 207.957 78.4419 208.397C77.7404 208.837 77.7404 207.874 78.1805 207.434C78.6205 206.994 79.5836 204.009 79.5836 204.009C79.5836 204.009 79.3157 203.83 78.0912 201.113C76.8666 198.396 76.1778 193.645 75.8079 191.801C75.438 189.958 74.7555 187.503 74.7555 187.503L67.9949 176.175C67.9949 176.175 67.4655 173.452 70.0103 172.987C72.5551 172.521 77.7404 181.354 77.7404 181.354Z" stroke="#263238" stroke-width="0.704024" stroke-linecap="round" stroke-linejoin="round"/>
<path d="M84.0875 198.302C84.0875 198.302 84.9677 202.607 84.8784 204.533C84.7891 206.459 85.2292 207.435 84.6105 207.435C83.9919 207.435 83.826 206.995 83.2074 205.063C82.8001 203.63 82.5352 202.16 82.4165 200.675C82.4165 200.675 80.2225 200.675 79.4316 197.422" fill="white"/>
<mask id="mask1_2436_50578" style="mask-type:luminance" maskUnits="userSpaceOnUse" x="79" y="197" width="6" height="11">
<path d="M84.0875 198.302C84.0875 198.302 84.9677 202.607 84.8784 204.533C84.7891 206.459 85.2292 207.435 84.6105 207.435C83.9919 207.435 83.826 206.995 83.2074 205.063C82.8001 203.63 82.5352 202.16 82.4165 200.675C82.4165 200.675 80.2225 200.675 79.4316 197.422" fill="white"/>
</mask>
<g mask="url(#mask1_2436_50578)">
<path opacity="0.15" d="M84.0875 198.302C84.0875 198.302 84.9677 202.607 84.8784 204.533C84.7891 206.459 85.2292 207.435 84.6105 207.435C83.9919 207.435 83.826 206.995 83.2074 205.063C82.8001 203.63 82.5352 202.16 82.4165 200.675C82.4165 200.675 80.2225 200.675 79.4316 197.422" fill="black"/>
</g>
<path d="M84.0875 198.302C84.0875 198.302 84.9677 202.607 84.8784 204.533C84.7891 206.459 85.2292 207.435 84.6105 207.435C83.9919 207.435 83.826 206.995 83.2074 205.063C82.8001 203.63 82.5352 202.16 82.4165 200.675C82.4165 200.675 80.2225 200.675 79.4316 197.422" stroke="#263238" stroke-width="0.704024" stroke-linecap="round" stroke-linejoin="round"/>
<path d="M44.8947 224.248H77.218C77.3774 218.201 78.4362 178.709 78.7551 176.942C79.1058 175.029 80.8406 156.98 81.0128 149.868C81.185 142.757 78.0599 132.507 78.0599 131.812C78.0599 131.117 77.5432 126.78 72.6833 123.132C67.8233 119.484 64.0029 119.49 62.9633 120.007C62.9633 120.007 59.1366 122.615 53.0648 129.038C46.993 135.46 44.9074 140.665 44.9074 150.557C44.912 156.544 45.4349 162.519 46.47 168.415C46.47 168.415 44.5566 199.31 44.5566 200.005C44.5566 200.7 44.8373 220.121 44.8947 224.248Z" fill="white" stroke="#263238" stroke-width="0.704024" stroke-linecap="round" stroke-linejoin="round"/>
<path d="M59.5634 154.408C60.2495 154.406 60.9351 154.368 61.6171 154.293C69.0538 153.483 75.521 145.88 79.7878 139.311C79.5901 138.361 79.3924 137.449 79.1947 136.613C75.1702 143.176 68.6647 151.601 61.413 152.392C51.3168 153.489 46.7438 145.536 45.4682 142.966C45.2896 143.948 45.1557 144.981 45.0664 146.072C47.3242 149.49 51.8844 154.408 59.5634 154.408Z" fill="#263238"/>
<path d="M57.1406 139.062L58.9902 139.553C60.8967 132.611 64.6428 126.313 69.8327 121.325C69.2148 120.999 68.5755 120.716 67.9193 120.477C62.7557 125.617 59.0379 132.027 57.1406 139.062Z" fill="#263238"/>
<path d="M58.9572 148.213C59.3909 147.99 68.4285 143.283 77.9698 130.993C77.8218 130.222 77.5864 129.471 77.2682 128.754C67.6631 141.51 58.1919 146.446 58.0898 146.497L58.9572 148.213Z" fill="#263238"/>
<path d="M49.5251 141.294L51.4385 141.007C51.4385 140.956 50.8836 136.434 55.3354 126.727C54.6211 127.435 53.8749 128.2 53.084 129.035C52.5738 129.571 52.1018 130.1 51.649 130.63C49.0404 137.709 49.4996 141.102 49.5251 141.294Z" fill="#263238"/>
<path d="M65.3034 169.644C54.3079 171.072 48.7208 168.764 46.2207 166.991C46.3674 167.922 46.4694 168.438 46.4694 168.438C46.4694 168.438 46.4694 168.776 46.412 169.389C48.8612 170.734 52.79 172.01 58.8043 172.01C61.0613 172 63.3153 171.845 65.5522 171.544C70.6206 170.893 75.4926 169.171 79.8451 166.493C79.9216 165.69 79.9918 164.867 80.062 164.031C75.6499 167.032 70.5946 168.955 65.3034 169.644Z" fill="#263238"/>
<path d="M64.7355 181.417C69.79 180.131 74.6021 178.033 78.9838 175.205C79.0603 174.516 79.1496 173.674 79.2517 172.711C74.7001 175.853 69.631 178.17 64.2763 179.554C56.8715 181.372 49.6836 179.344 45.8888 177.883C45.8505 178.521 45.8058 179.21 45.7676 179.899C49.7009 181.377 53.8624 182.157 58.0642 182.201C60.3113 182.206 62.5509 181.943 64.7355 181.417Z" fill="#263238"/>
<path d="M44.9136 193.919C44.869 194.608 44.8307 195.258 44.7988 195.832C49.7297 197.016 54.7799 197.63 59.8507 197.663C66.0857 197.731 72.2765 196.609 78.0916 194.359C78.0916 193.657 78.1362 192.956 78.1553 192.273C65.3485 197.663 51.6487 195.558 44.9136 193.919Z" fill="#263238"/>
<path d="M66.1325 187.607C59.2687 189.271 52.083 189.05 45.3341 186.969C45.2958 187.639 45.2512 188.302 45.2129 188.959C48.9326 190.096 52.8035 190.662 56.6931 190.637C60.0228 190.633 63.3414 190.252 66.5853 189.501C70.6956 188.549 74.6658 187.07 78.3972 185.1C78.3972 184.31 78.4546 183.557 78.4801 182.855C74.6084 185.013 70.4515 186.612 66.1325 187.607Z" fill="#263238"/>
<path d="M60.7748 160.671C52.93 161.067 47.8595 158.171 45.0469 155.786C45.0915 156.666 45.1489 157.521 45.2127 158.337C49.3432 161.228 54.2866 162.729 59.327 162.623C59.8309 162.623 60.3475 162.623 60.8705 162.585C68.5687 162.196 75.3803 158.828 80.8844 152.859C80.9482 151.742 80.9928 150.722 81.012 149.874V149.746C76.5155 155.327 69.9909 160.2 60.7748 160.671Z" fill="#263238"/>
<path d="M73.8058 124.062C73.455 123.75 73.0915 123.424 72.6833 123.131C67.8233 119.489 64.003 119.489 62.9634 120.006C60.9377 121.488 59.0195 123.112 57.2232 124.866C57.0408 125.648 57.0402 126.462 57.2215 127.245C57.4028 128.028 57.7613 128.759 58.2692 129.381C61.5666 133.546 72.3006 149.516 75.1069 146.047C77.9132 142.577 77.1861 133.029 74.0609 124.693C73.9844 124.477 73.8824 124.266 73.8058 124.062Z" fill="#92E3A9" stroke="#263238" stroke-width="0.704024" stroke-linecap="round" stroke-linejoin="round"/>
<path d="M63.6781 142.398C63.6781 142.398 73.0536 162.361 74.9606 165.486C75.801 166.971 76.7905 168.367 77.9136 169.651C77.9136 169.651 86.2049 172.438 93.3163 175.047C100.428 177.656 112.788 181.081 115.384 181.801C117.98 182.522 122.323 182.496 123.037 182.496C123.752 182.496 132.062 184.41 132.604 184.754C133.146 185.099 132.432 185.794 131.214 186.145C129.996 186.495 126.01 186.833 124.096 187.529C122.183 188.224 120.627 188.052 117.852 187.356C115.666 186.684 113.567 185.753 111.602 184.582C111.602 184.582 88.8262 182.994 83.4496 182.356C78.073 181.718 71.9694 180.966 69.5649 178.191C64.7395 172.744 60.2861 166.978 56.235 160.933C52.9695 155.996 46.9934 149.063 49.2576 142.781" fill="white"/>
<path d="M63.6781 142.398C63.6781 142.398 73.0536 162.361 74.9606 165.487C75.801 166.971 76.7905 168.367 77.9136 169.651C77.9136 169.651 86.2049 172.438 93.3163 175.047C100.428 177.656 112.788 181.081 115.384 181.801C117.98 182.522 122.323 182.496 123.037 182.496C123.752 182.496 132.062 184.41 132.604 184.754C133.146 185.099 132.432 185.794 131.214 186.145C129.996 186.495 126.01 186.833 124.096 187.529C122.183 188.224 120.627 188.052 117.852 187.356C115.666 186.684 113.567 185.753 111.602 184.582C111.602 184.582 88.8262 182.994 83.4496 182.356C78.073 181.718 71.9694 180.966 69.5649 178.191C64.7395 172.744 60.2861 166.978 56.235 160.933C52.9695 155.996 46.9934 149.063 49.2576 142.781" stroke="#263238" stroke-width="0.704024" stroke-linecap="round" stroke-linejoin="round"/>
<path d="M122.993 182.496C122.298 182.496 117.961 182.496 115.34 181.801C112.718 181.106 100.358 177.649 93.2464 175.047C86.135 172.445 77.8437 169.651 77.8437 169.651C76.7206 168.367 75.7312 166.971 74.8907 165.486C74.1063 164.211 72.0526 160.046 69.9032 155.613C62.9832 157.425 59.5008 160.716 57.7852 163.267C61.4095 168.451 65.3255 173.425 69.5142 178.166C71.9441 180.94 78.0159 181.635 83.3989 182.33C88.7819 183.026 111.519 184.588 111.519 184.588C113.485 185.759 115.583 186.69 117.77 187.363C120.544 188.058 122.106 188.23 124.013 187.535C125.92 186.84 129.919 186.495 131.131 186.151C132.343 185.806 133.045 185.105 132.522 184.76C131.999 184.416 123.714 182.496 122.993 182.496Z" fill="white"/>
<mask id="mask2_2436_50578" style="mask-type:luminance" maskUnits="userSpaceOnUse" x="57" y="155" width="76" height="33">
<path d="M122.993 182.496C122.298 182.496 117.961 182.496 115.34 181.801C112.718 181.106 100.358 177.649 93.2464 175.047C86.135 172.445 77.8437 169.651 77.8437 169.651C76.7206 168.367 75.7312 166.971 74.8907 165.486C74.1063 164.211 72.0526 160.046 69.9032 155.613C62.9832 157.425 59.5008 160.716 57.7852 163.267C61.4095 168.451 65.3255 173.425 69.5142 178.166C71.9441 180.94 78.0159 181.635 83.3989 182.33C88.7819 183.026 111.519 184.588 111.519 184.588C113.485 185.759 115.583 186.69 117.77 187.363C120.544 188.058 122.106 188.23 124.013 187.535C125.92 186.84 129.919 186.495 131.131 186.151C132.343 185.806 133.045 185.105 132.522 184.76C131.999 184.416 123.714 182.496 122.993 182.496Z" fill="white"/>
</mask>
<g mask="url(#mask2_2436_50578)">
<path opacity="0.15" d="M122.993 182.496C122.298 182.496 117.961 182.496 115.34 181.801C112.718 181.106 100.358 177.649 93.2464 175.047C86.135 172.445 77.8437 169.651 77.8437 169.651C76.7206 168.367 75.7312 166.971 74.8907 165.486C74.1063 164.211 72.0526 160.046 69.9032 155.613C62.9832 157.425 59.5008 160.716 57.7852 163.267C61.4095 168.451 65.3255 173.425 69.5142 178.166C71.9441 180.94 78.0159 181.635 83.3989 182.33C88.7819 183.026 111.519 184.588 111.519 184.588C113.485 185.759 115.583 186.69 117.77 187.363C120.544 188.058 122.106 188.23 124.013 187.535C125.92 186.84 129.919 186.495 131.131 186.151C132.343 185.806 133.045 185.105 132.522 184.76C131.999 184.416 123.714 182.496 122.993 182.496Z" fill="black"/>
</g>
<path d="M122.993 182.496C122.298 182.496 117.961 182.496 115.34 181.801C112.718 181.106 100.358 177.649 93.2464 175.047C86.135 172.445 77.8437 169.651 77.8437 169.651C76.7206 168.367 75.7312 166.971 74.8907 165.486C74.1063 164.211 72.0526 160.046 69.9032 155.613C62.9832 157.425 59.5008 160.716 57.7852 163.267C61.4095 168.451 65.3255 173.425 69.5142 178.166C71.9441 180.94 78.0159 181.635 83.3989 182.33C88.7819 183.026 111.519 184.588 111.519 184.588C113.485 185.759 115.583 186.69 117.77 187.363C120.544 188.058 122.106 188.23 124.013 187.535C125.92 186.84 129.919 186.495 131.131 186.151C132.343 185.806 133.045 185.105 132.522 184.76C131.999 184.416 123.714 182.496 122.993 182.496Z" stroke="#263238" stroke-width="0.704024" stroke-linecap="round" stroke-linejoin="round"/>
<path d="M77.2175 224.247C77.294 221.236 77.6001 209.864 77.9254 199.016C73.3274 200.811 68.5058 201.969 63.5942 202.46C53.3895 203.652 47.5091 201.184 44.6008 199.271C44.6008 199.698 44.5625 199.966 44.5625 200.023C44.5625 200.661 44.8368 220.114 44.8942 224.259L77.2175 224.247Z" fill="#92E3A9" stroke="#263238" stroke-width="0.704024" stroke-linecap="round" stroke-linejoin="round"/>
<path d="M69.0868 222.797C67.5051 216.795 71.3319 209.141 65.8086 205.168" stroke="#263238" stroke-width="0.704024" stroke-linecap="round" stroke-linejoin="round"/>
<path d="M69.0859 208.992L76.1909 202.168" stroke="#263238" stroke-width="0.704024" stroke-linecap="round" stroke-linejoin="round"/>
<path d="M51.2729 209.035L51.0879 222.799" stroke="#263238" stroke-width="0.704024" stroke-linecap="round" stroke-linejoin="round"/>
<path d="M51.3366 204.078L51.3047 206.591" stroke="#263238" stroke-width="0.704024" stroke-linecap="round" stroke-linejoin="round"/>
<path d="M79.814 92.0194C82.637 92.7677 85.1316 94.4323 86.9062 96.7518C88.1097 98.2919 88.9256 100.099 89.2852 102.02C90.1334 107.186 87.2251 108.781 88.1627 111.128C89.1002 113.475 90.0378 114.693 89.2852 115.822C88.5326 116.951 86.1919 117.136 85.8156 117.231C85.4393 117.327 84.6867 121.638 83.1879 123.52C81.6891 125.401 76.4273 123.239 76.4273 123.239C76.4273 123.239 74.2715 126.9 73.6146 128.118C72.9577 129.337 74.2524 136.658 73.3276 139.943C72.4028 143.228 70.2343 139.662 66.1014 134.503C61.9685 129.343 60.0934 125.114 60.2848 123.705C60.4761 122.295 63.7543 119.011 64.322 117.793C64.8896 116.574 65.1639 116.007 64.8832 114.884C64.6026 113.762 61.318 109.144 61.318 103.245C61.318 97.3449 66.0057 91.7005 72.2051 91.2285C74.7678 91.0603 77.3406 91.3277 79.814 92.0194Z" fill="white"/>
<mask id="mask3_2436_50578" style="mask-type:luminance" maskUnits="userSpaceOnUse" x="60" y="91" width="30" height="51">
<path d="M79.814 92.0194C82.637 92.7677 85.1316 94.4323 86.9062 96.7518C88.1097 98.2919 88.9256 100.099 89.2852 102.02C90.1334 107.186 87.2251 108.781 88.1627 111.128C89.1002 113.475 90.0378 114.693 89.2852 115.822C88.5326 116.951 86.1919 117.136 85.8156 117.231C85.4393 117.327 84.6867 121.638 83.1879 123.52C81.6891 125.401 76.4273 123.239 76.4273 123.239C76.4273 123.239 74.2715 126.9 73.6146 128.118C72.9577 129.337 74.2524 136.658 73.3276 139.943C72.4028 143.228 70.2343 139.662 66.1014 134.503C61.9685 129.343 60.0934 125.114 60.2848 123.705C60.4761 122.295 63.7543 119.011 64.322 117.793C64.8896 116.574 65.1639 116.007 64.8832 114.884C64.6026 113.762 61.318 109.144 61.318 103.245C61.318 97.3449 66.0057 91.7005 72.2051 91.2285C74.7678 91.0603 77.3406 91.3277 79.814 92.0194Z" fill="white"/>
</mask>
<g mask="url(#mask3_2436_50578)">
<path opacity="0.15" d="M79.814 92.0194C82.637 92.7677 85.1316 94.4323 86.9062 96.7518C88.1097 98.2919 88.9256 100.099 89.2852 102.02C90.1334 107.186 87.2251 108.781 88.1627 111.128C89.1002 113.475 90.0378 114.693 89.2852 115.822C88.5326 116.951 86.1919 117.136 85.8156 117.231C85.4393 117.327 84.6867 121.638 83.1879 123.52C81.6891 125.401 76.4273 123.239 76.4273 123.239C76.4273 123.239 74.2715 126.9 73.6146 128.118C72.9577 129.337 74.2524 136.658 73.3276 139.943C72.4028 143.228 70.2343 139.662 66.1014 134.503C61.9685 129.343 60.0934 125.114 60.2848 123.705C60.4761 122.295 63.7543 119.011 64.322 117.793C64.8896 116.574 65.1639 116.007 64.8832 114.884C64.6026 113.762 61.318 109.144 61.318 103.245C61.318 97.3449 66.0057 91.7005 72.2051 91.2285C74.7678 91.0603 77.3406 91.3277 79.814 92.0194Z" fill="black"/>
</g>
<path d="M79.814 92.0194C82.637 92.7677 85.1316 94.4323 86.9062 96.7518C88.1097 98.2919 88.9256 100.099 89.2852 102.02C90.1334 107.186 87.2251 108.781 88.1627 111.128C89.1002 113.475 90.0378 114.693 89.2852 115.822C88.5326 116.951 86.1919 117.136 85.8156 117.231C85.4393 117.327 84.6867 121.638 83.1879 123.52C81.6891 125.401 76.4273 123.239 76.4273 123.239C76.4273 123.239 74.2715 126.9 73.6146 128.118C72.9577 129.337 74.2524 136.658 73.3276 139.943C72.4028 143.228 70.2343 139.662 66.1014 134.503C61.9685 129.343 60.0934 125.114 60.2848 123.705C60.4761 122.295 63.7543 119.011 64.322 117.793C64.8896 116.574 65.1639 116.007 64.8832 114.884C64.6026 113.762 61.318 109.144 61.318 103.245C61.318 97.3449 66.0057 91.7005 72.2051 91.2285C74.7678 91.0603 77.3406 91.3277 79.814 92.0194Z" stroke="#263238" stroke-width="0.704024" stroke-linecap="round" stroke-linejoin="round"/>
<path d="M80.9349 96.299C83.1927 95.1892 84.7935 95.2211 85.8395 95.5336C84.1781 93.8479 82.0978 92.6349 79.8124 92.0194C77.339 91.3277 74.7663 91.0603 72.2035 91.2285C66.0042 91.7005 61.3164 97.3322 61.3164 103.245C61.3164 109.157 64.601 113.755 64.8817 114.884C64.9823 115.256 65.0062 115.644 64.9518 116.026C69.4164 116.912 70.8769 114.68 70.8769 114.68C70.3604 114.745 69.836 114.704 69.3359 114.559C68.8359 114.414 68.3706 114.169 67.9686 113.838C66.6483 112.709 66.6483 108.391 68.2492 106.421C69.8501 104.45 71.4382 107.173 71.4382 108.768C71.4382 110.362 72.1908 111.676 72.9434 111.491C73.6959 111.306 73.5046 109.52 73.7852 108.391C74.0659 107.263 77.3505 105.579 78.1031 104.641C78.8557 103.704 77.7268 102.855 76.5086 101.452C75.2904 100.049 76.33 98.5504 80.9349 96.299Z" fill="#263238" stroke="#263238" stroke-width="0.704024" stroke-linecap="round" stroke-linejoin="round"/>
<path d="M70.6934 114.973C70.6934 114.973 70.6934 117.607 72.2942 119.291" stroke="#263238" stroke-width="0.704024" stroke-linecap="round" stroke-linejoin="round"/>
<path d="M85.3122 110.22C84.5178 109.884 83.651 109.754 82.793 109.844" stroke="#263238" stroke-width="0.704024" stroke-linecap="round" stroke-linejoin="round"/>
<path d="M86.6949 107.956C86.6949 107.956 85.3109 105.564 82.6641 107.452" stroke="#263238" stroke-width="0.704024" stroke-linecap="round" stroke-linejoin="round"/>
<path d="M83.4496 118.534C82.8743 118.583 82.2993 118.436 81.8185 118.116C81.3377 117.796 80.9796 117.323 80.8027 116.773" stroke="#263238" stroke-width="0.704024" stroke-linecap="round" stroke-linejoin="round"/>
<path d="M65.2404 145.766L64.0413 143.215C56.3304 143.349 51.8148 146.225 49.2637 148.955C49.539 149.863 49.8844 150.748 50.2969 151.602C52.3059 148.993 56.611 145.581 65.2404 145.766Z" fill="#263238"/>
<path d="M67.913 151.372L66.7139 148.859C59.5515 149.242 54.7362 151.882 51.7832 154.306C52.2297 155.046 52.708 155.773 53.1863 156.481C55.9097 154.185 60.6485 151.506 67.913 151.372Z" fill="#263238"/>
<path d="M150.934 168.414C151.738 170.819 152.274 179.372 152.274 183.919C152.274 187.708 149.85 215.26 149.047 224.247H185.286C185.72 215.477 187.014 189.123 187.014 185.788C187.014 181.776 185.675 165.34 187.416 159.594C189.157 153.847 191.154 138.751 188.054 134.082C184.954 129.413 173.385 126.735 169.883 125.529C166.382 124.324 161.197 123.66 158.658 124.891C158.658 124.891 151.713 128.769 147.433 132.774C143.153 136.78 141.291 142.934 142.088 147.877C142.886 152.82 150.131 166.01 150.934 168.414Z" fill="white" stroke="#263238" stroke-width="0.704024" stroke-linecap="round" stroke-linejoin="round"/>
<path d="M182.421 129.87C180.859 129.149 179.26 128.51 177.631 127.957C171.732 143.005 162.451 156.496 150.506 167.385C150.704 167.825 150.85 168.183 150.933 168.425C151.335 169.989 151.595 171.585 151.711 173.196C165.357 161.501 175.906 146.619 182.421 129.87Z" fill="#263238"/>
<path d="M189.488 147.278C189.801 144.093 189.741 140.882 189.309 137.711C181.866 150.282 168.996 169.454 152.26 184.461C152.215 185.781 152.05 188.358 151.801 191.624C168.09 178.141 180.973 160.71 189.488 147.278Z" fill="#263238"/>
<path d="M185.286 224.245C185.592 218.001 186.339 202.854 186.74 193.434C169.105 196.808 156.707 193.6 151.783 191.871C151.03 201.802 149.621 217.797 149.047 224.245H185.286Z" fill="#263238" stroke="#263238" stroke-width="0.704024" stroke-linecap="round" stroke-linejoin="round"/>
<path d="M163.224 140.796C168.064 140.796 171.987 137.001 171.987 132.32C171.987 127.639 168.064 123.844 163.224 123.844C158.384 123.844 154.461 127.639 154.461 132.32C154.461 137.001 158.384 140.796 163.224 140.796Z" fill="#92E3A9" stroke="#263238" stroke-width="0.704024" stroke-linecap="round" stroke-linejoin="round"/>
<path d="M155.215 121.645C155.215 121.645 156.682 126.856 156.682 129.936C156.682 133.017 160.024 140.096 165.502 136.888C170.981 133.68 168.175 126.333 167.237 124.056C166.572 122.316 166.037 120.53 165.636 118.711C165.636 118.711 163.895 121.9 160.534 122.053C158.751 122.159 156.961 122.022 155.215 121.645Z" fill="white" stroke="#263238" stroke-width="0.704024" stroke-linecap="round" stroke-linejoin="round"/>
<path d="M146.175 102.728C146.175 102.728 145.25 105.03 146.404 106.874C147.559 108.717 149.141 111.242 149.141 111.242L148.911 101.121C148.911 101.121 146.634 99.2775 146.175 102.728Z" fill="#263238" stroke="#263238" stroke-width="0.704024" stroke-linecap="round" stroke-linejoin="round"/>
<path d="M149.142 108.941C149.142 108.941 147.299 109.637 148.217 112.621C149.136 115.606 150.52 114.694 150.52 114.694L149.142 108.941Z" fill="white" stroke="#263238" stroke-width="0.704024" stroke-linecap="round" stroke-linejoin="round"/>
<path d="M147.458 103.741C147.458 103.741 149.065 112.033 150.009 116.166C150.953 120.298 156.024 124.049 158.696 124.852C161.368 125.656 164.844 122.716 165.648 120.981C166.451 119.246 166.847 115.368 166.847 115.368C166.847 115.368 169.787 114.163 170.036 111.089C170.285 108.015 169.5 107.083 167.899 106.682L166.694 106.146C166.694 106.146 167.364 101.203 165.629 98.1288C163.894 95.0546 157.746 99.0663 154.538 99.9975C151.329 100.929 147.056 100.667 147.458 103.741Z" fill="white" stroke="#263238" stroke-width="0.704024" stroke-linecap="round" stroke-linejoin="round"/>
<path d="M155.212 109.758C155.212 109.758 154.574 114.567 155.473 114.969C156.372 115.37 158.145 114.433 158.547 114.299" stroke="#263238" stroke-width="0.704024" stroke-linecap="round" stroke-linejoin="round"/>
<path d="M157.752 117.939C157.752 117.939 161.489 118.475 162.963 114.195" stroke="#263238" stroke-width="0.704024" stroke-linecap="round" stroke-linejoin="round"/>
<path d="M150.666 108.683C150.964 108.222 151.384 107.853 151.88 107.618C152.375 107.382 152.927 107.29 153.472 107.35" stroke="#263238" stroke-width="0.704024" stroke-linecap="round" stroke-linejoin="round"/>
<path d="M157.082 106.682C157.082 106.682 159.754 105.343 161.355 106.816" stroke="#263238" stroke-width="0.704024" stroke-linecap="round" stroke-linejoin="round"/>
<path d="M153.154 112.153C153.518 112.09 153.711 111.448 153.584 110.719C153.457 109.99 153.059 109.451 152.695 109.514C152.331 109.578 152.138 110.22 152.265 110.948C152.391 111.677 152.789 112.217 153.154 112.153Z" fill="#263238"/>
<path d="M159.036 110.954C159.401 110.891 159.594 110.249 159.467 109.52C159.34 108.791 158.942 108.252 158.578 108.315C158.213 108.378 158.021 109.02 158.147 109.749C158.274 110.478 158.672 111.018 159.036 110.954Z" fill="#263238"/>
<path d="M162.695 100.131C159.149 101.796 155.429 103.062 151.604 103.907C145.723 105.106 143.051 103.773 143.312 100.833C143.574 97.8927 151.195 91.4766 158.141 91.4766C165.087 91.4766 167.497 94.6655 167.899 98.0267C168.118 100.918 168.118 103.822 167.899 106.713L166.694 108.448C166.694 108.448 167 107.096 165.087 106.012C163.173 104.928 161.757 102.938 162.695 100.131Z" fill="#263238" stroke="#263238" stroke-width="0.704024" stroke-linecap="round" stroke-linejoin="round"/>
<path d="M199.883 109.685C201.191 110.686 199.653 114.87 203.965 118.225C213.889 125.942 219.629 131.166 220.688 142.633C221.849 155.134 215.133 159.994 217.218 164.159C219.304 168.324 222.078 173.184 217.677 176.915C213.277 180.646 206.108 183.86 200.094 175.065C194.079 166.27 190.833 146.83 188.288 136.16C185.743 125.489 181.578 120.425 182.267 115.795C182.943 111.331 186.585 108.142 190.941 107.37C192.511 107.096 194.12 107.16 195.663 107.56C197.205 107.959 198.644 108.684 199.883 109.685Z" fill="#263238" stroke="#263238" stroke-width="0.704024" stroke-linecap="round" stroke-linejoin="round"/>
<path d="M187.933 154.121L169.386 167.687C169.386 167.687 139.684 178.3 137.936 178.842C136.189 179.384 127.859 180.857 126.112 181.795C124.364 182.732 121.009 188.919 120.467 190.399C120.354 190.605 120.312 190.843 120.345 191.076C120.379 191.31 120.487 191.526 120.653 191.692C120.82 191.859 121.036 191.967 121.269 192C121.502 192.034 121.74 191.991 121.947 191.878C122.349 191.47 126.246 187.707 127.457 187.573C128.669 187.439 129.741 187.305 129.741 187.305C129.741 187.305 126.647 189.997 126.513 190.801C126.379 191.604 127.056 191.336 127.859 190.934C128.663 190.533 131.756 189.455 132.961 187.305C134.167 185.156 135.245 183.944 137.26 183.141C139.276 182.337 165.578 176.635 170.285 175.832C174.992 175.028 191.925 164.855 192.735 164.721C193.545 164.587 190.49 154.121 187.933 154.121Z" fill="white" stroke="#263238" stroke-width="0.704024" stroke-linecap="round" stroke-linejoin="round"/>
<path d="M184.308 171.47C184.474 171.967 183.976 178.964 183.638 191.127C183.383 200.458 181.17 217.04 180.15 224.247H215.604C215.86 216.938 216.178 200.222 214.125 193.289C211.459 184.296 208.461 182.446 207.466 178.466C206.471 174.487 204.966 152.476 202.466 144.147C199.966 135.817 192.472 130.817 191.305 128.987C190.137 127.156 186.47 116.492 186.47 116.492L180.143 121.824C180.143 121.824 184.805 129.318 185.475 131.653C186.145 133.987 180.972 139.478 178.313 145.148C175.653 150.818 175.124 155.308 177.477 158.803C179.831 162.298 184.142 170.966 184.308 171.47Z" fill="#92E3A9"/>
<mask id="mask4_2436_50578" style="mask-type:luminance" maskUnits="userSpaceOnUse" x="175" y="116" width="41" height="109">
<path d="M184.308 171.47C184.474 171.967 183.976 178.964 183.638 191.127C183.383 200.458 181.17 217.04 180.15 224.247H215.604C215.86 216.938 216.178 200.222 214.125 193.289C211.459 184.296 208.461 182.446 207.466 178.466C206.471 174.487 204.966 152.476 202.466 144.147C199.966 135.817 192.472 130.817 191.305 128.987C190.137 127.156 186.47 116.492 186.47 116.492L180.143 121.824C180.143 121.824 184.805 129.318 185.475 131.653C186.145 133.987 180.972 139.478 178.313 145.148C175.653 150.818 175.124 155.308 177.477 158.803C179.831 162.298 184.142 170.966 184.308 171.47Z" fill="white"/>
</mask>
<g mask="url(#mask4_2436_50578)">
<path d="M189.73 205.698L195.54 206.974L201.35 205.698L207.161 206.974L212.971 205.698L215.662 206.285L215.605 204.971L212.971 204.391L207.161 205.666L201.35 204.391L195.54 205.666L189.73 204.391L183.926 205.666L182.529 205.36C182.484 205.787 182.44 206.208 182.389 206.636L183.926 206.974L189.73 205.698Z" fill="white"/>
<path d="M196.146 162.047L190.336 163.322L184.525 162.047L179.984 163.042L180.622 164.209L184.532 163.354L190.342 164.63L196.152 163.354L201.963 164.63L205.636 163.82C205.585 163.399 205.541 162.972 205.49 162.544L201.963 163.322L196.146 162.047Z" fill="white"/>
<path d="M189.731 215.412L195.541 216.688L201.351 215.412L207.162 216.688L212.972 215.412L215.784 216.05C215.784 215.623 215.784 215.189 215.784 214.775L212.965 214.137L207.155 215.412L201.345 214.137L195.535 215.412L189.724 214.137L183.92 215.412L181.407 214.857C181.356 215.291 181.299 215.712 181.248 216.133L183.92 216.72L189.731 215.412Z" fill="white"/>
<path d="M215.733 219.579L212.971 218.973L207.161 220.248L201.351 218.973L195.54 220.248L189.73 218.973L183.926 220.248L180.795 219.559C180.737 219.993 180.68 220.42 180.629 220.835L183.926 221.556L189.73 220.28L195.54 221.556L201.351 220.28L207.161 221.556L212.971 220.28L215.707 220.886C215.714 220.459 215.727 220.025 215.733 219.579Z" fill="white"/>
<path d="M176.609 149.592L178.714 150.051L184.524 148.776L190.335 150.051L196.145 148.776L201.955 150.051L203.696 149.669C203.62 149.241 203.543 148.82 203.467 148.393L201.955 148.725L196.145 147.449L190.335 148.725L184.524 147.449L178.714 148.725L176.992 148.349C176.852 148.778 176.724 149.193 176.609 149.592Z" fill="white"/>
<path d="M196.146 152.328L190.336 153.604L184.526 152.328L178.716 153.604L176.011 153.011C175.986 153.446 175.986 153.883 176.011 154.318L178.716 154.911L184.526 153.636L190.336 154.911L196.146 153.636L201.957 154.911L204.444 154.363C204.38 153.935 204.323 153.514 204.259 153.087L201.957 153.591L196.146 152.328Z" fill="white"/>
<path d="M196.146 157.188L190.335 158.463L184.525 157.188L178.715 158.463L177.057 158.1C177.184 158.336 177.325 158.572 177.478 158.801C177.631 159.031 177.816 159.318 177.994 159.611L178.715 159.771L184.525 158.495L190.335 159.771L196.146 158.495L201.956 159.771L205.068 159.088C205.017 158.661 204.96 158.24 204.909 157.813L201.956 158.45L196.146 157.188Z" fill="white"/>
<path d="M189.73 210.557L195.54 211.833L201.351 210.557L207.161 211.833L212.971 210.557L215.778 211.195V209.888L212.99 209.25L207.18 210.526L201.37 209.25L195.56 210.526L189.749 209.25L183.945 210.526L182.032 210.098L181.879 211.374L183.964 211.833L189.73 210.557Z" fill="white"/>
</g>
<path d="M184.308 171.47C184.474 171.967 183.976 178.964 183.638 191.127C183.383 200.458 181.17 217.04 180.15 224.247H215.604C215.86 216.938 216.178 200.222 214.125 193.289C211.459 184.296 208.461 182.446 207.466 178.466C206.471 174.487 204.966 152.476 202.466 144.147C199.966 135.817 192.472 130.817 191.305 128.987C190.137 127.156 186.47 116.492 186.47 116.492L180.143 121.824C180.143 121.824 184.805 129.318 185.475 131.653C186.145 133.987 180.972 139.478 178.313 145.148C175.653 150.818 175.124 155.308 177.477 158.803C179.831 162.298 184.142 170.966 184.308 171.47Z" stroke="#263238" stroke-width="0.704024" stroke-linecap="round" stroke-linejoin="round"/>
<path d="M180.137 160.711C180.137 160.711 182.28 165.003 189.436 163.332" stroke="#263238" stroke-width="0.704024" stroke-linecap="round" stroke-linejoin="round"/>
<path d="M199.686 188.363C199.686 188.363 188.958 201.476 184.188 211.962" stroke="#263238" stroke-width="0.704024" stroke-linecap="round" stroke-linejoin="round"/>
<path d="M188.244 199.098C188.244 199.098 183.709 207.44 182.504 212.683" stroke="#263238" stroke-width="0.704024" stroke-linecap="round" stroke-linejoin="round"/>
<path d="M182.185 143.853C185.648 141.94 190.068 133.649 191.994 132.118L193.308 131.066C192.574 130.44 191.903 129.743 191.305 128.987C190.138 127.156 186.471 116.492 186.471 116.492L180.144 121.824C180.144 121.824 184.806 129.318 185.476 131.653C186.063 133.713 182.102 138.247 179.334 143.177C179.659 144.089 180.425 144.829 182.185 143.853Z" fill="white" stroke="#263238" stroke-width="0.704024" stroke-linecap="round" stroke-linejoin="round"/>
<path d="M174.556 103.665C173.818 105.416 173.448 107.301 173.472 109.202C173.587 110.885 173.95 112.218 173.274 113.883C172.879 114.84 171.539 116.058 171.724 117.161C171.89 118.156 174.39 118.494 174.39 118.494C174.39 118.494 176.891 126.32 178.217 126.486C179.544 126.651 182.548 125.848 186.375 122.659C190.201 119.47 185.545 107.99 182.21 104.998C178.874 102.007 176.221 101.663 174.556 103.665Z" fill="white" stroke="#263238" stroke-width="0.704024" stroke-linecap="round" stroke-linejoin="round"/>
<path d="M175.693 114.105C175.933 114.105 176.127 113.557 176.127 112.881C176.127 112.205 175.933 111.656 175.693 111.656C175.454 111.656 175.26 112.205 175.26 112.881C175.26 113.557 175.454 114.105 175.693 114.105Z" fill="#263238"/>
<path d="M174.539 110.07C174.539 110.07 174.973 108.335 176.708 109.636" stroke="#263238" stroke-width="0.704024" stroke-linecap="round" stroke-linejoin="round"/>
<path d="M175.406 120.17C175.406 120.17 176.561 120.463 177.862 118.895" stroke="#263238" stroke-width="0.704024" stroke-linecap="round" stroke-linejoin="round"/>
<path d="M178.225 94.831C178.225 94.831 172.058 95.0032 171.056 98.9958C170.055 102.988 174.558 106.496 177.721 108.161C180.885 109.826 183.717 112.491 183.717 115.323C183.717 118.155 183.889 121.491 186.217 124.488C188.545 127.486 193.87 129.986 198.048 129.82C202.225 129.654 197.716 119.852 200.044 112.836C202.372 105.82 199.406 98.8428 194.712 95.8451C190.018 92.8475 178.225 94.831 178.225 94.831Z" fill="#263238" stroke="#263238" stroke-width="0.704024" stroke-linecap="round" stroke-linejoin="round"/>
<path d="M215.881 155.32C215.825 156.194 215.688 157.061 215.473 157.91" stroke="white" stroke-width="0.704024" stroke-linecap="round" stroke-linejoin="round"/>
<path d="M176.809 105.184C177.957 107.097 180.131 109.138 184.22 110.286C193.149 112.837 196.548 119.005 196.548 124.317C196.548 129.63 196.976 133.457 205.477 137.711C207.984 138.964 210.181 140.759 211.909 142.965C213.637 145.171 214.854 147.733 215.472 150.467" stroke="white" stroke-width="0.704024" stroke-linecap="round" stroke-linejoin="round"/>
<path d="M175.502 100.93C175.504 101.3 175.54 101.669 175.61 102.033" stroke="white" stroke-width="0.704024" stroke-linecap="round" stroke-linejoin="round"/>
<path d="M187.41 100.93C187.41 100.93 198.042 106.249 197.825 113.475C197.608 120.701 198.253 127.506 204.841 131.544C211.429 135.581 218.235 138.138 220.575 146.213" stroke="white" stroke-width="0.704024" stroke-linecap="round" stroke-linejoin="round"/>
<path d="M193.342 139.622C193.342 139.622 190.517 140.694 189.043 146.204C187.57 151.715 193.61 161.39 194.554 165.695C195.498 170.001 196.435 176.576 196.435 176.576C196.435 176.576 175.331 193.797 172.244 196.469C169.157 199.141 167.537 200.902 167.537 200.902C167.537 200.902 159.883 207.624 159.207 208.97C158.531 210.315 156.656 217.299 157.326 217.567C157.996 217.835 159.207 214.882 159.207 214.346C159.207 213.81 160.547 210.851 160.547 210.851C160.547 210.851 159.475 217.688 159.475 218.071C159.475 218.454 160.547 218.071 160.681 217.529C160.815 216.987 162.294 211.349 162.294 211.349C162.294 211.349 161.491 217.663 162.026 218.364C162.562 219.066 163.506 214.333 163.506 214.333L164.578 210.57C164.578 210.57 164.31 217.152 164.852 217.42C165.394 217.688 166.599 210.972 166.599 210.972C166.599 210.972 169.017 206.131 169.954 204.518C170.489 203.64 170.897 202.691 171.166 201.699C171.166 201.699 183.667 194.843 191.46 191.08C199.254 187.317 205.843 180.326 206.646 179.121C207.45 177.916 205.702 160.976 204.363 153.718C203.024 146.46 200.198 137.709 193.342 139.622Z" fill="white" stroke="#263238" stroke-width="0.704024" stroke-linecap="round" stroke-linejoin="round"/>
<path d="M149.678 130.965C149.678 130.965 144.869 134.237 141.023 137.343C137.177 140.449 137.751 146.578 137.751 147.924C137.751 149.269 137.56 155.424 137.56 155.424L134.67 161.579C134.67 161.579 130.25 165.622 129.287 166.586C128.324 167.549 122.75 178.506 122.75 178.506L121.404 180.419L128.733 181.363C131.468 178.312 134.495 175.535 137.77 173.072C142.56 169.602 146.591 160.035 146.788 158.855C147.601 155.632 148.175 152.354 148.504 149.046" fill="white"/>
<path d="M149.678 130.965C149.678 130.965 144.869 134.237 141.023 137.343C137.177 140.449 137.751 146.578 137.751 147.924C137.751 149.269 137.56 155.424 137.56 155.424L134.67 161.579C134.67 161.579 130.25 165.622 129.287 166.586C128.324 167.549 122.75 178.506 122.75 178.506L121.404 180.419L128.733 181.363C131.468 178.312 134.495 175.535 137.77 173.072C142.56 169.602 146.591 160.035 146.788 158.855C147.601 155.632 148.175 152.354 148.504 149.046" stroke="#263238" stroke-width="0.704024" stroke-linecap="round" stroke-linejoin="round"/>
<path d="M147.229 156.802C143.995 151.495 139.575 152.184 137.611 152.847C137.566 154.25 137.534 155.398 137.534 155.398L134.645 161.553C134.645 161.553 130.225 165.597 129.262 166.56C128.299 167.523 122.725 178.48 122.725 178.48L121.379 180.394L128.733 181.363C131.469 178.312 134.495 175.535 137.77 173.072C142.56 169.602 146.591 160.035 146.789 158.855C146.859 158.466 147.037 157.752 147.229 156.802Z" fill="white" stroke="#263238" stroke-width="0.704024" stroke-linecap="round" stroke-linejoin="round"/>
<path d="M125.491 175.977C125.491 175.977 120.714 179.88 119.751 181.117C118.788 182.354 118.035 189.632 118.418 190.161C118.801 190.69 121.473 192.113 122.621 190.869C123.769 189.625 127.972 183.63 127.972 183.63C127.972 183.63 124.783 187.942 127.06 187.699C129.337 187.457 130.645 183.949 131.984 182.354C133.323 180.76 133.132 180.581 131.984 178.279L130.842 175.977" fill="white"/>
<path d="M125.491 175.977C125.491 175.977 120.714 179.88 119.751 181.117C118.788 182.354 118.035 189.632 118.418 190.161C118.801 190.69 121.473 192.113 122.621 190.869C123.769 189.625 127.972 183.63 127.972 183.63C127.972 183.63 124.783 187.942 127.06 187.699C129.337 187.457 130.645 183.949 131.984 182.354C133.323 180.76 133.132 180.581 131.984 178.279L130.842 175.977" stroke="#263238" stroke-width="0.704024" stroke-linecap="round" stroke-linejoin="round"/>
<path d="M118.426 190.156C118.426 190.156 120.856 181.864 121.825 181.227" stroke="#263238" stroke-width="0.704024" stroke-linecap="round" stroke-linejoin="round"/>
<path d="M119.566 190.763C119.566 190.763 122.385 182.969 123.84 181.355" stroke="#263238" stroke-width="0.704024" stroke-linecap="round" stroke-linejoin="round"/>
<path d="M121.078 191.318C121.078 191.318 124.133 183.665 126.136 181.809" stroke="#263238" stroke-width="0.704024" stroke-linecap="round" stroke-linejoin="round"/>
<path d="M127.973 183.633C127.973 183.633 129.599 182.192 129.848 181.324L127.973 183.633Z" fill="white"/>
<path d="M127.973 183.633C127.973 183.633 129.599 182.192 129.848 181.324" stroke="#263238" stroke-width="0.704024" stroke-linecap="round" stroke-linejoin="round"/>
<path d="M10.2676 224.246H248.955" stroke="#263238" stroke-width="0.704024" stroke-linecap="round" stroke-linejoin="round"/>
</svg>
