<svg width="262" height="250" viewBox="0 0 262 250" fill="none" xmlns="http://www.w3.org/2000/svg">
<path d="M19.9227 84.3333C37.1047 53.7225 61.1206 62.5745 73.6566 71.7596C92.5172 85.641 110.869 105.753 138.009 105.753C164.898 105.753 172.851 71.6841 198.262 72.8849C224.102 74.1046 241.158 94.4992 241.158 118.993C241.158 155.652 227.39 181.007 202.569 192.141C166.551 208.304 119.796 193.448 89.2418 179.253C71.1481 170.841 36.3566 144.763 24.1663 126.003C19.7215 119.207 8.82634 104.112 19.9227 84.3333Z" fill="#92E3A9"/>
<path opacity="0.7" d="M19.9227 84.3333C37.1047 53.7225 61.1206 62.5745 73.6566 71.7596C92.5172 85.641 110.869 105.753 138.009 105.753C164.898 105.753 172.851 71.6841 198.262 72.8849C224.102 74.1046 241.158 94.4992 241.158 118.993C241.158 155.652 227.39 181.007 202.569 192.141C166.551 208.304 119.796 193.448 89.2418 179.253C71.1481 170.841 36.3566 144.763 24.1663 126.003C19.7215 119.207 8.82634 104.112 19.9227 84.3333Z" fill="white"/>
<path d="M225.781 233.873L234.224 228.089C234.847 227.416 235.325 226.622 235.629 225.757C235.933 224.892 236.056 223.974 235.991 223.059L231.741 165.145L147.271 226.756C135.313 226.756 225.781 233.873 225.781 233.873Z" fill="#92E3A9"/>
<path d="M1 225.969H261" stroke="#263238" stroke-linecap="round" stroke-linejoin="round"/>
<path d="M238.606 65.4213C228.635 55.8122 215.317 50.4596 201.469 50.4963C187.618 50.4583 174.295 55.8109 164.32 65.4213L163.547 66.1632V130.723H239.367V66.1632L238.606 65.4213ZM234.35 86.7967H203.355V55.5698C214.878 55.9851 225.873 60.5098 234.35 68.3259V86.7967ZM168.589 125.027V90.594H199.583V125.052L168.589 125.027ZM203.355 125.027V90.594H234.35V125.052L203.355 125.027ZM199.583 55.5447V86.7967H168.589V68.3259C177.066 60.5098 188.06 55.9851 199.583 55.5698V55.5447Z" fill="#92E3A9"/>
<mask id="mask0_2436_51239" style="mask-type:luminance" maskUnits="userSpaceOnUse" x="163" y="50" width="77" height="81">
<path d="M238.606 65.4213C228.635 55.8122 215.317 50.4596 201.469 50.4963C187.618 50.4583 174.295 55.8109 164.32 65.4213L163.547 66.1632V130.723H239.367V66.1632L238.606 65.4213ZM234.35 86.7967H203.355V55.5698C214.878 55.9851 225.873 60.5098 234.35 68.3259V86.7967ZM168.589 125.027V90.594H199.583V125.052L168.589 125.027ZM203.355 125.027V90.594H234.35V125.052L203.355 125.027ZM199.583 55.5447V86.7967H168.589V68.3259C177.066 60.5098 188.06 55.9851 199.583 55.5698V55.5447Z" fill="white"/>
</mask>
<g mask="url(#mask0_2436_51239)">
<path opacity="0.4" d="M238.606 65.4213C228.635 55.8122 215.317 50.4596 201.469 50.4963C187.618 50.4583 174.295 55.8109 164.32 65.4213L163.547 66.1632V130.723H239.367V66.1632L238.606 65.4213ZM234.35 86.7967H203.355V55.5698C214.878 55.9851 225.873 60.5098 234.35 68.3259V86.7967ZM168.589 125.027V90.594H199.583V125.052L168.589 125.027ZM203.355 125.027V90.594H234.35V125.052L203.355 125.027ZM199.583 55.5447V86.7967H168.589V68.3259C177.066 60.5098 188.06 55.9851 199.583 55.5698V55.5447Z" fill="white"/>
</g>
<path d="M238.606 65.4213C228.635 55.8122 215.317 50.4596 201.469 50.4963C187.618 50.4583 174.295 55.8109 164.32 65.4213L163.547 66.1632V130.723H239.367V66.1632L238.606 65.4213ZM234.35 86.7967H203.355V55.5698C214.878 55.9851 225.873 60.5098 234.35 68.3259V86.7967ZM168.589 125.027V90.594H199.583V125.052L168.589 125.027ZM203.355 125.027V90.594H234.35V125.052L203.355 125.027ZM199.583 55.5447V86.7967H168.589V68.3259C177.066 60.5098 188.06 55.9851 199.583 55.5698V55.5447Z" stroke="#263238" stroke-width="0.75" stroke-linecap="round" stroke-linejoin="round"/>
<path d="M241.894 133.239H161.045V65.1335L161.78 64.3979C172.315 53.8872 186.588 47.9844 201.47 47.9844C216.351 47.9844 230.624 53.8872 241.159 64.3979L241.894 65.1335V133.239ZM166.074 128.21H236.865V67.227C227.341 58.1004 214.66 53.0052 201.47 53.0052C188.279 53.0052 175.598 58.1004 166.074 67.227V128.21Z" fill="#92E3A9"/>
<mask id="mask1_2436_51239" style="mask-type:luminance" maskUnits="userSpaceOnUse" x="161" y="47" width="81" height="87">
<path d="M241.894 133.239H161.045V65.1335L161.78 64.3979C172.315 53.8872 186.588 47.9844 201.47 47.9844C216.351 47.9844 230.624 53.8872 241.159 64.3979L241.894 65.1335V133.239ZM166.074 128.21H236.865V67.227C227.341 58.1004 214.66 53.0052 201.47 53.0052C188.279 53.0052 175.598 58.1004 166.074 67.227V128.21Z" fill="white"/>
</mask>
<g mask="url(#mask1_2436_51239)">
<path opacity="0.7" d="M241.894 133.239H161.045V65.1335L161.78 64.3979C172.315 53.8872 186.588 47.9844 201.47 47.9844C216.351 47.9844 230.624 53.8872 241.159 64.3979L241.894 65.1335V133.239ZM166.074 128.21H236.865V67.227C227.341 58.1004 214.66 53.0052 201.47 53.0052C188.279 53.0052 175.598 58.1004 166.074 67.227V128.21Z" fill="white"/>
</g>
<path d="M241.894 133.239H161.045V65.1335L161.78 64.3979C172.315 53.8872 186.588 47.9844 201.47 47.9844C216.351 47.9844 230.624 53.8872 241.159 64.3979L241.894 65.1335V133.239ZM166.074 128.21H236.865V67.227C227.341 58.1004 214.66 53.0052 201.47 53.0052C188.279 53.0052 175.598 58.1004 166.074 67.227V128.21Z" stroke="#263238" stroke-width="0.75" stroke-linecap="round" stroke-linejoin="round"/>
<path d="M97.6792 65.4213C87.7074 55.8139 74.3897 50.4616 60.5427 50.4963C46.6953 50.4596 33.3769 55.8122 23.4061 65.4213L22.6328 66.1632V130.723H98.4525V66.1632L97.6792 65.4213ZM93.423 86.7967H62.4287V55.5698C73.9474 55.988 84.9366 60.5126 93.4105 68.3259L93.423 86.7967ZM27.6497 125.052V90.594H58.644V125.052H27.6497ZM62.4162 125.052V90.594H93.4105V125.052H62.4162ZM58.644 55.5698V86.8218H27.6497V68.3259C36.1269 60.5098 47.121 55.9851 58.644 55.5698Z" fill="#92E3A9"/>
<mask id="mask2_2436_51239" style="mask-type:luminance" maskUnits="userSpaceOnUse" x="22" y="50" width="77" height="81">
<path d="M97.6792 65.4213C87.7074 55.8139 74.3897 50.4616 60.5427 50.4963C46.6953 50.4596 33.3769 55.8122 23.4061 65.4213L22.6328 66.1632V130.723H98.4525V66.1632L97.6792 65.4213ZM93.423 86.7967H62.4287V55.5698C73.9474 55.988 84.9366 60.5126 93.4105 68.3259L93.423 86.7967ZM27.6497 125.052V90.594H58.644V125.052H27.6497ZM62.4162 125.052V90.594H93.4105V125.052H62.4162ZM58.644 55.5698V86.8218H27.6497V68.3259C36.1269 60.5098 47.121 55.9851 58.644 55.5698Z" fill="white"/>
</mask>
<g mask="url(#mask2_2436_51239)">
<path opacity="0.4" d="M97.6792 65.4213C87.7074 55.8139 74.3897 50.4616 60.5427 50.4963C46.6953 50.4596 33.3769 55.8122 23.4061 65.4213L22.6328 66.1632V130.723H98.4525V66.1632L97.6792 65.4213ZM93.423 86.7967H62.4287V55.5698C73.9474 55.988 84.9366 60.5126 93.4105 68.3259L93.423 86.7967ZM27.6497 125.052V90.594H58.644V125.052H27.6497ZM62.4162 125.052V90.594H93.4105V125.052H62.4162ZM58.644 55.5698V86.8218H27.6497V68.3259C36.1269 60.5098 47.121 55.9851 58.644 55.5698Z" fill="white"/>
</g>
<path d="M97.6792 65.4213C87.7074 55.8139 74.3897 50.4616 60.5427 50.4963C46.6953 50.4596 33.3769 55.8122 23.4061 65.4213L22.6328 66.1632V130.723H98.4525V66.1632L97.6792 65.4213ZM93.423 86.7967H62.4287V55.5698C73.9474 55.988 84.9366 60.5126 93.4105 68.3259L93.423 86.7967ZM27.6497 125.052V90.594H58.644V125.052H27.6497ZM62.4162 125.052V90.594H93.4105V125.052H62.4162ZM58.644 55.5698V86.8218H27.6497V68.3259C36.1269 60.5098 47.121 55.9851 58.644 55.5698Z" stroke="#263238" stroke-width="0.75" stroke-linecap="round" stroke-linejoin="round"/>
<path d="M100.955 133.239H20.1055V65.1335L20.841 64.3979C31.3754 53.8872 45.6489 47.9844 60.5301 47.9844C75.4112 47.9844 89.6847 53.8872 100.219 64.3979L100.955 65.1335V133.239ZM25.135 128.21H95.9252V67.227C86.4016 58.1004 73.7208 53.0052 60.5301 53.0052C47.3394 53.0052 34.6585 58.1004 25.135 67.227V128.21Z" fill="#92E3A9"/>
<mask id="mask3_2436_51239" style="mask-type:luminance" maskUnits="userSpaceOnUse" x="20" y="47" width="81" height="87">
<path d="M100.955 133.239H20.1055V65.1335L20.841 64.3979C31.3754 53.8872 45.6489 47.9844 60.5301 47.9844C75.4112 47.9844 89.6847 53.8872 100.219 64.3979L100.955 65.1335V133.239ZM25.135 128.21H95.9252V67.227C86.4016 58.1004 73.7208 53.0052 60.5301 53.0052C47.3394 53.0052 34.6585 58.1004 25.135 67.227V128.21Z" fill="white"/>
</mask>
<g mask="url(#mask3_2436_51239)">
<path opacity="0.7" d="M100.955 133.239H20.1055V65.1335L20.841 64.3979C31.3754 53.8872 45.6489 47.9844 60.5301 47.9844C75.4112 47.9844 89.6847 53.8872 100.219 64.3979L100.955 65.1335V133.239ZM25.135 128.21H95.9252V67.227C86.4016 58.1004 73.7208 53.0052 60.5301 53.0052C47.3394 53.0052 34.6585 58.1004 25.135 67.227V128.21Z" fill="white"/>
</g>
<path d="M100.955 133.239H20.1055V65.1335L20.841 64.3979C31.3754 53.8872 45.6489 47.9844 60.5301 47.9844C75.4112 47.9844 89.6847 53.8872 100.219 64.3979L100.955 65.1335V133.239ZM25.135 128.21H95.9252V67.227C86.4016 58.1004 73.7208 53.0052 60.5301 53.0052C47.3394 53.0052 34.6585 58.1004 25.135 67.227V128.21Z" stroke="#263238" stroke-width="0.75" stroke-linecap="round" stroke-linejoin="round"/>
<path d="M115.887 233.873H225.731L231.741 165.133H121.897L115.887 233.873Z" fill="#92E3A9" stroke="#263238" stroke-linecap="round" stroke-linejoin="round"/>
<path d="M168.464 201.986C171.312 204.249 175.48 204.249 178.731 201.986L231.741 165.145L225.731 233.885H115.912L121.897 165.145L168.464 201.986Z" fill="#92E3A9"/>
<mask id="mask4_2436_51239" style="mask-type:luminance" maskUnits="userSpaceOnUse" x="115" y="165" width="117" height="69">
<path d="M168.464 201.986C171.312 204.249 175.48 204.249 178.731 201.986L231.741 165.145L225.731 233.885H115.912L121.897 165.145L168.464 201.986Z" fill="white"/>
</mask>
<g mask="url(#mask4_2436_51239)">
<path opacity="0.4" d="M168.464 201.986C171.312 204.249 175.48 204.249 178.731 201.986L231.741 165.145L225.731 233.885H115.912L121.897 165.145L168.464 201.986Z" fill="white"/>
</g>
<path d="M168.464 201.986C171.312 204.249 175.48 204.249 178.731 201.986L231.741 165.145L225.731 233.885H115.912L121.897 165.145L168.464 201.986Z" stroke="#263238" stroke-linecap="round" stroke-linejoin="round"/>
<path d="M115.912 233.873H225.731L179.164 197.013C176.31 194.756 172.148 194.756 168.898 197.013L115.912 233.873Z" fill="#92E3A9"/>
<mask id="mask5_2436_51239" style="mask-type:luminance" maskUnits="userSpaceOnUse" x="115" y="195" width="111" height="39">
<path d="M115.912 233.873H225.731L179.164 197.013C176.31 194.756 172.148 194.756 168.898 197.013L115.912 233.873Z" fill="white"/>
</mask>
<g mask="url(#mask5_2436_51239)">
<path opacity="0.3" d="M115.912 233.873H225.731L179.164 197.013C176.31 194.756 172.148 194.756 168.898 197.013L115.912 233.873Z" fill="white"/>
</g>
<path d="M115.912 233.873H225.731L179.164 197.013C176.31 194.756 172.148 194.756 168.898 197.013L115.912 233.873Z" stroke="#263238" stroke-linecap="round" stroke-linejoin="round"/>
<path d="M121.896 165.146H231.741L172.078 128.286C168.426 126.03 164.257 126.03 161.812 128.286L121.896 165.146Z" fill="white" stroke="#263238" stroke-linecap="round" stroke-linejoin="round"/>
<path d="M60.3601 220.048H71.6387L65.7102 171.771C65.5664 170.763 65.07 169.838 64.3092 169.162C63.5485 168.485 62.5725 168.1 61.5546 168.074H12.3535L19.5709 220.048H60.3601Z" fill="#92E3A9"/>
<mask id="mask6_2436_51239" style="mask-type:luminance" maskUnits="userSpaceOnUse" x="12" y="168" width="60" height="53">
<path d="M60.3601 220.048H71.6387L65.7102 171.771C65.5664 170.763 65.07 169.838 64.3092 169.162C63.5485 168.485 62.5725 168.1 61.5546 168.074H12.3535L19.5709 220.048H60.3601Z" fill="white"/>
</mask>
<g mask="url(#mask6_2436_51239)">
<path opacity="0.7" d="M60.3601 220.048H71.6387L65.7102 171.771C65.5664 170.763 65.07 169.838 64.3092 169.162C63.5485 168.485 62.5725 168.1 61.5546 168.074H12.3535L19.5709 220.048H60.3601Z" fill="white"/>
</g>
<path d="M60.3601 220.048H71.6387L65.7102 171.771C65.5664 170.763 65.07 169.838 64.3092 169.162C63.5485 168.485 62.5725 168.1 61.5546 168.074H12.3535L19.5709 220.048H60.3601Z" stroke="#263238" stroke-width="0.75" stroke-linecap="round" stroke-linejoin="round"/>
<path d="M24.5992 220.049H13.3268L7.39832 171.772C7.32532 171.308 7.35519 170.834 7.48582 170.384C7.61644 169.933 7.84462 169.516 8.15418 169.164C8.46374 168.811 8.8471 168.53 9.27709 168.342C9.70709 168.154 10.1732 168.063 10.6423 168.075H14.5151C15.5333 168.1 16.51 168.484 17.271 169.161C18.032 169.838 18.528 170.763 18.6707 171.772L24.5992 220.049Z" fill="#92E3A9"/>
<mask id="mask7_2436_51239" style="mask-type:luminance" maskUnits="userSpaceOnUse" x="7" y="168" width="18" height="53">
<path d="M24.5992 220.049H13.3268L7.39832 171.772C7.32532 171.308 7.35519 170.834 7.48582 170.384C7.61644 169.933 7.84462 169.516 8.15418 169.164C8.46374 168.811 8.8471 168.53 9.27709 168.342C9.70709 168.154 10.1732 168.063 10.6423 168.075H14.5151C15.5333 168.1 16.51 168.484 17.271 169.161C18.032 169.838 18.528 170.763 18.6707 171.772L24.5992 220.049Z" fill="white"/>
</mask>
<g mask="url(#mask7_2436_51239)">
<path opacity="0.3" d="M24.5992 220.049H13.3268L7.39832 171.772C7.32532 171.308 7.35519 170.834 7.48582 170.384C7.61644 169.933 7.84462 169.516 8.15418 169.164C8.46374 168.811 8.8471 168.53 9.27709 168.342C9.70709 168.154 10.1732 168.063 10.6423 168.075H14.5151C15.5333 168.1 16.51 168.484 17.271 169.161C18.032 169.838 18.528 170.763 18.6707 171.772L24.5992 220.049Z" fill="white" stroke="#263238" stroke-width="0.75" stroke-linecap="round" stroke-linejoin="round"/>
</g>
<path d="M24.5992 220.049H13.3268L7.39832 171.772C7.32532 171.308 7.35519 170.834 7.48582 170.384C7.61644 169.933 7.84462 169.516 8.15418 169.164C8.46374 168.811 8.8471 168.53 9.27709 168.342C9.70709 168.154 10.1732 168.063 10.6423 168.075H14.5151C15.5333 168.1 16.51 168.484 17.271 169.161C18.032 169.838 18.528 170.763 18.6707 171.772L24.5992 220.049Z" stroke="#263238" stroke-width="0.75" stroke-linecap="round" stroke-linejoin="round"/>
<path d="M31.2514 222.986L29.2082 199.636C29.1676 199.126 28.9523 198.644 28.5985 198.273C28.2447 197.902 27.774 197.664 27.2656 197.6L26.4231 197.493C25.7467 197.406 25.1203 197.091 24.6479 196.599C24.1756 196.107 23.8857 195.469 23.8266 194.789L23.4934 190.533C23.4577 190.121 23.5081 189.706 23.6413 189.314C23.7745 188.922 23.9876 188.562 24.2672 188.257C24.5468 187.952 24.8867 187.709 25.2654 187.542C25.6441 187.375 26.0534 187.289 26.4671 187.289H7.60651C7.19245 187.288 6.78279 187.374 6.40363 187.54C6.02448 187.707 5.68416 187.95 5.40437 188.255C5.12458 188.561 4.91147 188.921 4.77863 189.313C4.64579 189.705 4.59613 190.121 4.63282 190.533L5.00374 194.789C5.06171 195.469 5.35115 196.108 5.82372 196.6C6.29629 197.092 6.92337 197.407 7.60022 197.493L8.43637 197.6C8.94168 197.663 9.40989 197.898 9.76246 198.265C10.115 198.633 10.3305 199.11 10.3727 199.618L12.4034 222.986C12.4771 223.806 12.8546 224.569 13.4617 225.125C14.0689 225.681 14.8619 225.99 15.6851 225.991H34.5458C33.7199 225.994 32.923 225.687 32.3129 225.131C31.7028 224.574 31.3239 223.809 31.2514 222.986Z" fill="#92E3A9"/>
<mask id="mask8_2436_51239" style="mask-type:luminance" maskUnits="userSpaceOnUse" x="4" y="187" width="31" height="39">
<path d="M31.2514 222.986L29.2082 199.636C29.1676 199.126 28.9523 198.644 28.5985 198.273C28.2447 197.902 27.774 197.664 27.2656 197.6L26.4231 197.493C25.7467 197.406 25.1203 197.091 24.6479 196.599C24.1756 196.107 23.8857 195.469 23.8266 194.789L23.4934 190.533C23.4577 190.121 23.5081 189.706 23.6413 189.314C23.7745 188.922 23.9876 188.562 24.2672 188.257C24.5468 187.952 24.8867 187.709 25.2654 187.542C25.6441 187.375 26.0534 187.289 26.4671 187.289H7.60651C7.19245 187.288 6.78279 187.374 6.40363 187.54C6.02448 187.707 5.68416 187.95 5.40437 188.255C5.12458 188.561 4.91147 188.921 4.77863 189.313C4.64579 189.705 4.59613 190.121 4.63282 190.533L5.00374 194.789C5.06171 195.469 5.35115 196.108 5.82372 196.6C6.29629 197.092 6.92337 197.407 7.60022 197.493L8.43637 197.6C8.94168 197.663 9.40989 197.898 9.76246 198.265C10.115 198.633 10.3305 199.11 10.3727 199.618L12.4034 222.986C12.4771 223.806 12.8546 224.569 13.4617 225.125C14.0689 225.681 14.8619 225.99 15.6851 225.991H34.5458C33.7199 225.994 32.923 225.687 32.3129 225.131C31.7028 224.574 31.3239 223.809 31.2514 222.986Z" fill="white"/>
</mask>
<g mask="url(#mask8_2436_51239)">
<g opacity="0.3">
<path d="M31.2514 222.986L29.2082 199.636C29.1676 199.126 28.9523 198.644 28.5985 198.273C28.2447 197.902 27.774 197.664 27.2656 197.6L26.4231 197.493C25.7467 197.406 25.1203 197.091 24.6479 196.599C24.1756 196.107 23.8857 195.469 23.8266 194.789L23.4934 190.533C23.4577 190.121 23.5081 189.706 23.6413 189.314C23.7745 188.922 23.9876 188.562 24.2672 188.257C24.5468 187.952 24.8867 187.709 25.2654 187.542C25.6441 187.375 26.0534 187.289 26.4671 187.289H7.60651C7.19245 187.288 6.78279 187.374 6.40363 187.54C6.02448 187.707 5.68416 187.95 5.40437 188.255C5.12458 188.561 4.91147 188.921 4.77863 189.313C4.64579 189.705 4.59613 190.121 4.63282 190.533L5.00374 194.789C5.06171 195.469 5.35115 196.108 5.82372 196.6C6.29629 197.092 6.92337 197.407 7.60022 197.493L8.43637 197.6C8.94168 197.663 9.40989 197.898 9.76246 198.265C10.115 198.633 10.3305 199.11 10.3727 199.618L12.4034 222.986C12.4771 223.806 12.8546 224.569 13.4617 225.125C14.0689 225.681 14.8619 225.99 15.6851 225.991H34.5458C33.7199 225.994 32.923 225.687 32.3129 225.131C31.7028 224.574 31.3239 223.809 31.2514 222.986Z" fill="white" stroke="#263238" stroke-width="0.75" stroke-linecap="round" stroke-linejoin="round"/>
</g>
</g>
<path d="M31.2514 222.986L29.2082 199.636C29.1676 199.126 28.9523 198.644 28.5985 198.273C28.2447 197.902 27.774 197.664 27.2656 197.6L26.4231 197.493C25.7467 197.406 25.1203 197.091 24.6479 196.599C24.1756 196.107 23.8857 195.469 23.8266 194.789L23.4934 190.533C23.4577 190.121 23.5081 189.706 23.6413 189.314C23.7745 188.922 23.9876 188.562 24.2672 188.257C24.5468 187.952 24.8867 187.709 25.2654 187.542C25.6441 187.375 26.0534 187.289 26.4671 187.289H7.60651C7.19245 187.288 6.78279 187.374 6.40363 187.54C6.02448 187.707 5.68416 187.95 5.40437 188.255C5.12458 188.561 4.91147 188.921 4.77863 189.313C4.64579 189.705 4.59613 190.121 4.63282 190.533L5.00374 194.789C5.06171 195.469 5.35115 196.108 5.82372 196.6C6.29629 197.092 6.92337 197.407 7.60022 197.493L8.43637 197.6C8.94168 197.663 9.40989 197.898 9.76246 198.265C10.115 198.633 10.3305 199.11 10.3727 199.618L12.4034 222.986C12.4771 223.806 12.8546 224.569 13.4617 225.125C14.0689 225.681 14.8619 225.99 15.6851 225.991H34.5458C33.7199 225.994 32.923 225.687 32.3129 225.131C31.7028 224.574 31.3239 223.809 31.2514 222.986Z" stroke="#263238" stroke-width="0.75" stroke-linecap="round" stroke-linejoin="round"/>
<path d="M83.1065 193.771C83.2607 192.001 84.0726 190.354 85.382 189.154C86.6914 187.954 88.4031 187.289 90.1792 187.289H73.7894C72.0133 187.289 70.3015 187.954 68.9921 189.154C67.6827 190.354 66.8708 192.001 66.7166 193.771L65.082 212.298H81.4845L83.1065 193.771Z" fill="#92E3A9"/>
<mask id="mask9_2436_51239" style="mask-type:luminance" maskUnits="userSpaceOnUse" x="65" y="187" width="26" height="26">
<path d="M83.1065 193.771C83.2607 192.001 84.0726 190.354 85.382 189.154C86.6914 187.954 88.4031 187.289 90.1792 187.289H73.7894C72.0133 187.289 70.3015 187.954 68.9921 189.154C67.6827 190.354 66.8708 192.001 66.7166 193.771L65.082 212.298H81.4845L83.1065 193.771Z" fill="white"/>
</mask>
<g mask="url(#mask9_2436_51239)">
<path opacity="0.3" d="M83.1065 193.771C83.2607 192.001 84.0726 190.354 85.382 189.154C86.6914 187.954 88.4031 187.289 90.1792 187.289H73.7894C72.0133 187.289 70.3015 187.954 68.9921 189.154C67.6827 190.354 66.8708 192.001 66.7166 193.771L65.082 212.298H81.4845L83.1065 193.771Z" fill="white"/>
</g>
<path d="M83.1065 193.771C83.2607 192.001 84.0726 190.354 85.382 189.154C86.6914 187.954 88.4031 187.289 90.1792 187.289H73.7894C72.0133 187.289 70.3015 187.954 68.9921 189.154C67.6827 190.354 66.8708 192.001 66.7166 193.771L65.082 212.298H81.4845L83.1065 193.771Z" stroke="#263238" stroke-width="0.75" stroke-linecap="round" stroke-linejoin="round"/>
<path d="M77.5295 201.176H39.1419C37.26 201.176 35.7344 202.701 35.7344 204.583V208.871C35.7344 210.753 37.26 212.278 39.1419 212.278H77.5295C79.4114 212.278 80.937 210.753 80.937 208.871V204.583C80.937 202.701 79.4114 201.176 77.5295 201.176Z" fill="#92E3A9"/>
<mask id="mask10_2436_51239" style="mask-type:luminance" maskUnits="userSpaceOnUse" x="35" y="201" width="46" height="12">
<path d="M77.5295 201.176H39.1419C37.26 201.176 35.7344 202.701 35.7344 204.583V208.871C35.7344 210.753 37.26 212.278 39.1419 212.278H77.5295C79.4114 212.278 80.937 210.753 80.937 208.871V204.583C80.937 202.701 79.4114 201.176 77.5295 201.176Z" fill="white"/>
</mask>
<g mask="url(#mask10_2436_51239)">
<g opacity="0.5">
<path d="M77.5295 201.176H39.1419C37.26 201.176 35.7344 202.701 35.7344 204.583V208.871C35.7344 210.753 37.26 212.278 39.1419 212.278H77.5295C79.4114 212.278 80.937 210.753 80.937 208.871V204.583C80.937 202.701 79.4114 201.176 77.5295 201.176Z" fill="white"/>
</g>
</g>
<path d="M77.5295 201.176H39.1419C37.26 201.176 35.7344 202.701 35.7344 204.583V208.871C35.7344 210.753 37.26 212.278 39.1419 212.278H77.5295C79.4114 212.278 80.937 210.753 80.937 208.871V204.583C80.937 202.701 79.4114 201.176 77.5295 201.176Z" stroke="#263238" stroke-width="0.75" stroke-linecap="round" stroke-linejoin="round"/>
<path d="M97.4653 187.289H90.1788C88.4027 187.289 86.691 187.954 85.3816 189.154C84.0722 190.354 83.2603 192.001 83.1061 193.771L81.4841 212.298H42.4175L40.7954 193.79C40.6413 192.02 39.8293 190.373 38.5199 189.173C37.2105 187.973 35.4988 187.308 33.7227 187.308H26.4362C26.0268 187.313 25.6228 187.401 25.2492 187.569C24.8756 187.736 24.5404 187.979 24.2645 188.281C23.9886 188.584 23.7778 188.94 23.6452 189.327C23.5127 189.715 23.4612 190.125 23.494 190.533L23.8649 194.789C23.924 195.469 24.2138 196.107 24.6862 196.599C25.1585 197.091 25.785 197.406 26.4614 197.493L27.3038 197.6C27.8082 197.665 28.2752 197.901 28.6273 198.268C28.9794 198.635 29.1957 199.111 29.2402 199.618L31.2457 222.986C31.3195 223.807 31.6978 224.571 32.3063 225.127C32.9148 225.683 33.7094 225.991 34.5337 225.991H89.3678C90.1915 225.991 90.9853 225.683 91.5928 225.126C92.2002 224.57 92.5773 223.806 92.6496 222.986L94.6928 199.636C94.7373 199.13 94.9535 198.654 95.3057 198.287C95.6578 197.92 96.1248 197.684 96.6292 197.618L97.4716 197.512C98.1476 197.424 98.7734 197.108 99.2455 196.617C99.7177 196.125 100.008 195.487 100.068 194.808L100.439 190.552C100.478 190.138 100.429 189.721 100.297 189.327C100.165 188.933 99.9526 188.571 99.6728 188.264C99.3929 187.957 99.052 187.711 98.6719 187.544C98.2918 187.376 97.8808 187.289 97.4653 187.289Z" fill="#92E3A9"/>
<mask id="mask11_2436_51239" style="mask-type:luminance" maskUnits="userSpaceOnUse" x="23" y="187" width="78" height="39">
<path d="M97.4653 187.289H90.1788C88.4027 187.289 86.691 187.954 85.3816 189.154C84.0722 190.354 83.2603 192.001 83.1061 193.771L81.4841 212.298H42.4175L40.7954 193.79C40.6413 192.02 39.8293 190.373 38.5199 189.173C37.2105 187.973 35.4988 187.308 33.7227 187.308H26.4362C26.0268 187.313 25.6228 187.401 25.2492 187.569C24.8756 187.736 24.5404 187.979 24.2645 188.281C23.9886 188.584 23.7778 188.94 23.6452 189.327C23.5127 189.715 23.4612 190.125 23.494 190.533L23.8649 194.789C23.924 195.469 24.2138 196.107 24.6862 196.599C25.1585 197.091 25.785 197.406 26.4614 197.493L27.3038 197.6C27.8082 197.665 28.2752 197.901 28.6273 198.268C28.9794 198.635 29.1957 199.111 29.2402 199.618L31.2457 222.986C31.3195 223.807 31.6978 224.571 32.3063 225.127C32.9148 225.683 33.7094 225.991 34.5337 225.991H89.3678C90.1915 225.991 90.9853 225.683 91.5928 225.126C92.2002 224.57 92.5773 223.806 92.6496 222.986L94.6928 199.636C94.7373 199.13 94.9535 198.654 95.3057 198.287C95.6578 197.92 96.1248 197.684 96.6292 197.618L97.4716 197.512C98.1476 197.424 98.7734 197.108 99.2455 196.617C99.7177 196.125 100.008 195.487 100.068 194.808L100.439 190.552C100.478 190.138 100.429 189.721 100.297 189.327C100.165 188.933 99.9526 188.571 99.6728 188.264C99.3929 187.957 99.052 187.711 98.6719 187.544C98.2918 187.376 97.8808 187.289 97.4653 187.289Z" fill="white"/>
</mask>
<g mask="url(#mask11_2436_51239)">
<path opacity="0.7" d="M97.4653 187.289H90.1788C88.4027 187.289 86.691 187.954 85.3816 189.154C84.0722 190.354 83.2603 192.001 83.1061 193.771L81.4841 212.298H42.4175L40.7954 193.79C40.6413 192.02 39.8293 190.373 38.5199 189.173C37.2105 187.973 35.4988 187.308 33.7227 187.308H26.4362C26.0268 187.313 25.6228 187.401 25.2492 187.569C24.8756 187.736 24.5404 187.979 24.2645 188.281C23.9886 188.584 23.7778 188.94 23.6452 189.327C23.5127 189.715 23.4612 190.125 23.494 190.533L23.8649 194.789C23.924 195.469 24.2138 196.107 24.6862 196.599C25.1585 197.091 25.785 197.406 26.4614 197.493L27.3038 197.6C27.8082 197.665 28.2752 197.901 28.6273 198.268C28.9794 198.635 29.1957 199.111 29.2402 199.618L31.2457 222.986C31.3195 223.807 31.6978 224.571 32.3063 225.127C32.9148 225.683 33.7094 225.991 34.5337 225.991H89.3678C90.1915 225.991 90.9853 225.683 91.5928 225.126C92.2002 224.57 92.5773 223.806 92.6496 222.986L94.6928 199.636C94.7373 199.13 94.9535 198.654 95.3057 198.287C95.6578 197.92 96.1248 197.684 96.6292 197.618L97.4716 197.512C98.1476 197.424 98.7734 197.108 99.2455 196.617C99.7177 196.125 100.008 195.487 100.068 194.808L100.439 190.552C100.478 190.138 100.429 189.721 100.297 189.327C100.165 188.933 99.9526 188.571 99.6728 188.264C99.3929 187.957 99.052 187.711 98.6719 187.544C98.2918 187.376 97.8808 187.289 97.4653 187.289Z" fill="white" stroke="#263238" stroke-width="0.75" stroke-linecap="round" stroke-linejoin="round"/>
</g>
<path d="M97.4653 187.289H90.1789C88.4027 187.289 86.691 187.954 85.3816 189.154C84.0722 190.354 83.2603 192.001 83.1061 193.771L81.4841 212.298H42.4175L40.7954 193.79C40.6413 192.02 39.8293 190.373 38.5199 189.173C37.2105 187.973 35.4988 187.308 33.7227 187.308H26.4362C26.0268 187.313 25.6228 187.401 25.2492 187.569C24.8756 187.736 24.5404 187.979 24.2645 188.281C23.9886 188.584 23.7778 188.94 23.6452 189.327C23.5127 189.715 23.4612 190.125 23.494 190.533L23.8649 194.789C23.924 195.469 24.2138 196.107 24.6862 196.599C25.1585 197.091 25.785 197.406 26.4614 197.493L27.3038 197.6C27.8082 197.665 28.2752 197.901 28.6273 198.268C28.9794 198.635 29.1957 199.111 29.2402 199.618L31.2457 222.986C31.3195 223.807 31.6978 224.571 32.3063 225.127C32.9148 225.683 33.7094 225.991 34.5337 225.991H89.3678C90.1915 225.991 90.9853 225.683 91.5928 225.126C92.2002 224.57 92.5773 223.806 92.6496 222.986L94.6928 199.636C94.7373 199.13 94.9535 198.654 95.3057 198.287C95.6578 197.92 96.1248 197.684 96.6292 197.618L97.4716 197.512C98.1476 197.424 98.7734 197.108 99.2455 196.617C99.7177 196.125 100.008 195.487 100.068 194.808L100.439 190.552C100.478 190.138 100.429 189.721 100.297 189.327C100.165 188.933 99.9526 188.571 99.6728 188.264C99.3929 187.957 99.052 187.711 98.6719 187.544C98.2918 187.376 97.8808 187.289 97.4653 187.289Z" stroke="#263238" stroke-width="0.75" stroke-linecap="round" stroke-linejoin="round"/>
<path d="M115.711 221.318L121.149 229.189C121.149 229.189 122.608 232.402 123.482 234.344C124.355 236.287 123.576 240.002 125.236 240.002C127.486 240.002 128.247 235.243 128.341 231.547C128.436 227.85 129.976 221.538 126.732 221.928H123.482L119.502 216.27L115.711 221.318Z" fill="white" stroke="#263238" stroke-linecap="round" stroke-linejoin="round"/>
<path d="M125.053 224.197L124.135 226.957C124.135 226.957 121.922 226.278 121.067 226.957C120.212 227.636 121.149 229.189 121.149 229.189C121.149 229.189 122.607 232.401 123.481 234.344C124.355 236.287 123.575 240.002 125.235 240.002C127.486 240.002 128.247 235.243 128.341 231.546C128.435 227.85 129.975 221.538 126.731 221.927H123.481C123.374 222.82 124.047 222.757 124.632 223.059C124.828 223.165 124.98 223.339 125.057 223.548C125.135 223.758 125.133 223.989 125.053 224.197Z" fill="#92E3A9" stroke="#263238" stroke-linecap="round" stroke-linejoin="round"/>
<path d="M122.23 229.019C122.23 229.019 125.11 227.334 125.273 229.334C125.437 231.333 122.23 229.019 122.23 229.019Z" stroke="#263238" stroke-linecap="round" stroke-linejoin="round"/>
<path d="M122.249 231.609C122.249 231.609 121.979 230.352 124.135 230.352" stroke="#263238" stroke-linecap="round" stroke-linejoin="round"/>
<path d="M122.979 232.695C122.979 232.695 122.715 231.438 124.865 231.438" stroke="#263238" stroke-linecap="round" stroke-linejoin="round"/>
<path d="M122.042 229.094C122.042 229.094 118.999 230.458 120.527 231.753C122.054 233.048 122.042 229.094 122.042 229.094Z" stroke="#263238" stroke-linecap="round" stroke-linejoin="round"/>
<path d="M127.695 225.106C127.695 228.193 127.274 230.054 126.878 235.021C126.57 238.95 125.281 239.139 124.137 238.453C124.281 239.34 124.545 239.981 125.237 239.975C127.488 239.975 128.248 235.216 128.343 231.519C128.437 227.822 129.977 221.51 126.733 221.9C126.733 221.9 127.676 222.026 127.695 225.106Z" fill="#263238" stroke="#263238" stroke-linecap="round" stroke-linejoin="round"/>
<path d="M110.5 156.43C112.95 157.969 115.885 158.544 118.735 158.045C123.513 157.197 125.531 156.719 125.531 156.719C125.531 156.719 130.831 171.317 125.846 178.685C120.86 186.053 112.015 202.393 112.015 202.393C112.015 202.393 115.158 204.078 113.901 204.543C113.901 204.543 116.818 206.995 119.559 214.131C119.559 214.131 120.709 216.891 121.709 217.123C121.709 217.123 120.024 223.756 116.051 223.643C116.051 223.643 111.292 217.356 107.073 213.364C105.476 211.855 103.125 209.365 101.742 207.894C100.996 207.095 100.588 206.038 100.604 204.945C100.635 203.097 108.375 166.941 109.833 167.174C109.833 167.174 108.532 164.873 109.909 163.641C109.682 161.221 109.882 158.78 110.5 156.43Z" fill="#92E3A9"/>
<mask id="mask12_2436_51239" style="mask-type:luminance" maskUnits="userSpaceOnUse" x="100" y="156" width="28" height="68">
<path d="M110.5 156.43C112.95 157.969 115.885 158.544 118.735 158.045C123.513 157.197 125.531 156.719 125.531 156.719C125.531 156.719 130.831 171.317 125.846 178.685C120.86 186.053 112.015 202.393 112.015 202.393C112.015 202.393 115.158 204.078 113.901 204.543C113.901 204.543 116.818 206.995 119.559 214.131C119.559 214.131 120.709 216.891 121.709 217.123C121.709 217.123 120.024 223.756 116.051 223.643C116.051 223.643 111.292 217.356 107.073 213.364C105.476 211.855 103.125 209.365 101.742 207.894C100.996 207.095 100.588 206.038 100.604 204.945C100.635 203.097 108.375 166.941 109.833 167.174C109.833 167.174 108.532 164.873 109.909 163.641C109.682 161.221 109.882 158.78 110.5 156.43Z" fill="white"/>
</mask>
<g mask="url(#mask12_2436_51239)">
<path opacity="0.3" d="M115.862 207.134C115.862 207.134 114.504 205.003 110.311 203.877C106.117 202.752 111.712 193.19 115.422 187.406C118.986 181.854 123.658 177.347 121.746 171.317C119.835 165.288 129.687 176.976 129.687 176.976L123.708 188.845L118.553 196.723L115.629 203.374L115.862 207.134Z" fill="black"/>
</g>
<path d="M110.5 156.43C112.95 157.969 115.885 158.544 118.735 158.045C123.513 157.197 125.531 156.719 125.531 156.719C125.531 156.719 130.831 171.317 125.846 178.685C120.86 186.053 112.015 202.393 112.015 202.393C112.015 202.393 115.158 204.078 113.901 204.543C113.901 204.543 116.818 206.995 119.559 214.131C119.559 214.131 120.709 216.891 121.709 217.123C121.709 217.123 120.024 223.756 116.051 223.643C116.051 223.643 111.292 217.356 107.073 213.364C105.476 211.855 103.125 209.365 101.742 207.894C100.996 207.095 100.588 206.038 100.604 204.945C100.635 203.097 108.375 166.941 109.833 167.174C109.833 167.174 108.532 164.873 109.909 163.641C109.682 161.221 109.882 158.78 110.5 156.43Z" stroke="#263238" stroke-linecap="round" stroke-linejoin="round"/>
<path d="M114.895 169.035C115.586 169.318 116.328 169.664 117.045 169.984C118.585 170.739 120.018 171.625 120.628 172.531C122.238 174.926 118.327 172.531 115.643 172.531" stroke="#263238" stroke-linecap="round" stroke-linejoin="round"/>
<path d="M111.648 167.867C111.648 167.867 112.359 168.087 113.39 168.458" stroke="#263238" stroke-linecap="round" stroke-linejoin="round"/>
<path d="M112.95 205.23C112.95 205.23 111.498 206.155 106.965 205.23" stroke="#263238" stroke-linecap="round" stroke-linejoin="round"/>
<path d="M109.958 201.936C109.958 201.936 104.206 199.478 105.897 197.02" stroke="#263238" stroke-linecap="round" stroke-linejoin="round"/>
<path d="M155.973 186.69C154.879 187.489 151.371 189.557 151.371 189.557L153.622 194.976C153.622 194.976 158.136 191.053 159.657 189.758L162.643 187.243L158.683 184.383C158.683 184.383 156.69 186.168 155.973 186.69Z" fill="white" stroke="#263238" stroke-linecap="round" stroke-linejoin="round"/>
<path d="M118.734 158.046C118.734 158.046 119.564 165.338 123.456 175.894C124.357 178.322 124.831 180.887 124.858 183.476C124.933 192.328 127.643 211.138 134.081 210.818C142.254 210.409 151.879 195.283 154.746 195.692C154.746 195.692 155.154 189.556 151.47 188.939C151.47 188.939 142.668 193.642 139.399 197.741C139.399 197.741 138.563 181.986 139.179 177.692C139.795 173.398 143.341 165.118 134.081 152.117C134.081 152.111 133.056 155.996 118.734 158.046Z" fill="#92E3A9"/>
<path d="M139.803 201.703C140.048 203.891 140.268 206.689 140.268 206.689" stroke="#263238" stroke-linecap="round" stroke-linejoin="round"/>
<path d="M138.25 206.01C138.816 204.174 139.133 202.271 139.193 200.352" stroke="#263238" stroke-linecap="round" stroke-linejoin="round"/>
<path d="M137.355 208.222C137.538 207.882 137.699 207.531 137.84 207.172" stroke="#263238" stroke-linecap="round" stroke-linejoin="round"/>
<path d="M131.285 170.23C131.678 170.27 132.066 170.353 132.442 170.476" stroke="#263238" stroke-linecap="round" stroke-linejoin="round"/>
<path d="M132.441 166.789C132.441 166.789 123.237 171.083 123.696 172.315C124.08 173.327 126.877 170.429 130.272 170.215" stroke="#263238" stroke-linecap="round" stroke-linejoin="round"/>
<path d="M124.256 178.547C124.415 179.201 124.541 179.861 124.633 180.528C124.771 181.505 124.847 182.489 124.859 183.476C124.935 192.328 128.795 211.666 134.082 210.818C142.173 209.516 151.88 195.283 154.747 195.692C154.747 195.692 155.156 189.556 151.472 188.939C151.472 188.939 142.67 193.642 139.401 197.741C139.401 197.741 138.565 181.986 139.181 177.692C139.797 173.398 143.343 165.118 134.082 152.117" stroke="#263238" stroke-linecap="round" stroke-linejoin="round"/>
<path d="M120.822 167.562C121.508 169.819 122.526 173.076 123.677 176.402" stroke="#263238" stroke-linecap="round" stroke-linejoin="round"/>
<path d="M119.924 164.516C119.924 164.516 120.087 165.081 120.37 166.043" stroke="#263238" stroke-linecap="round" stroke-linejoin="round"/>
<path d="M173.595 187.224C173.695 187.338 173.765 187.476 173.797 187.624C173.829 187.773 173.823 187.927 173.779 188.072C173.735 188.218 173.654 188.349 173.545 188.455C173.436 188.561 173.302 188.637 173.155 188.676C172.384 188.847 171.588 188.866 170.81 188.732C167.434 188.324 159.657 189.757 159.657 189.757C159.555 189.366 159.595 188.952 159.769 188.588C159.942 188.223 160.239 187.932 160.606 187.764C161.945 187.048 158.186 186.086 158.186 186.086C158.186 186.086 157.06 187.173 155.973 186.714C156.198 184.359 157.291 182.172 159.041 180.578C159.99 179.761 160.927 179.321 163.988 181.289C166.893 183.175 170.011 183.068 173.595 187.224Z" fill="#92E3A9" stroke="#263238" stroke-linecap="round" stroke-linejoin="round"/>
<path d="M161.965 189.375C161.965 189.375 159.507 191.041 160.884 191.959C162.261 192.877 162.43 189.306 162.43 189.306C162.43 189.306 162.776 192.519 164.367 192.11C165.957 191.701 162.946 189.23 162.946 189.23L161.965 189.375Z" stroke="#263238" stroke-linecap="round" stroke-linejoin="round"/>
<path d="M163.863 189.109C163.758 188.791 163.734 188.451 163.794 188.121C163.855 187.792 163.997 187.483 164.209 187.223" stroke="#263238" stroke-linecap="round" stroke-linejoin="round"/>
<path d="M165.024 188.966C164.982 188.756 164.988 188.539 165.041 188.331C165.094 188.123 165.194 187.93 165.332 187.766" stroke="#263238" stroke-linecap="round" stroke-linejoin="round"/>
<path d="M173.387 188.574C173.497 188.506 173.592 188.414 173.663 188.306C173.735 188.197 173.782 188.075 173.802 187.946C173.822 187.818 173.814 187.687 173.778 187.562C173.742 187.437 173.679 187.321 173.594 187.223C170.011 183.067 166.892 183.174 163.988 181.263C160.951 179.27 159.989 179.735 159.04 180.552L158.852 180.728C160.533 180.997 162.136 181.63 163.548 182.583C167.062 184.802 167.829 183.658 171.815 187.084C172.368 187.549 172.893 188.047 173.387 188.574Z" fill="#263238" stroke="#263238" stroke-linecap="round" stroke-linejoin="round"/>
<path d="M135.591 152.11C129.304 148.721 132.447 124.152 132.447 124.152L135.006 119.361C131.29 121.298 131.404 111.691 131.404 111.691L123.928 117.991C111.223 120.078 110.211 116.105 110.211 116.105L108.117 111.704C108.117 111.704 104.238 122.392 102.893 119.072L104.15 124.165C104.15 124.165 102.019 135.481 106.036 138.184C106.036 138.184 111.556 155.656 109.62 157.146C109.62 157.146 112.719 161.031 123.935 158.642C135.151 156.253 135.591 152.11 135.591 152.11Z" fill="#263238" stroke="#263238" stroke-linecap="round" stroke-linejoin="round"/>
<path d="M128.562 134.041C128.735 133.736 128.888 133.421 129.021 133.098" stroke="#7F7F7F" stroke-linecap="round" stroke-linejoin="round"/>
<path d="M126.449 136.582C127.063 136.104 127.6 135.533 128.04 134.891" stroke="#7F7F7F" stroke-linecap="round" stroke-linejoin="round"/>
<path d="M112.285 136.851C114.926 136.267 118.453 135.902 121.326 137.115" stroke="#7F7F7F" stroke-linecap="round" stroke-linejoin="round"/>
<path d="M108.449 138.023C108.449 138.023 109.16 137.728 110.298 137.395" stroke="#7F7F7F" stroke-linecap="round" stroke-linejoin="round"/>
<path d="M94.4294 73.9823C97.39 80.461 100.015 87.0877 102.294 93.8363C103.979 98.784 108.449 113.998 108.449 113.998C107.594 119.223 103.715 120.864 103.715 120.864C103.715 120.864 97.9626 101.902 96.919 97.8724C96.5732 96.5396 95.1084 93.6225 94.0648 90.3282C91.9335 83.5824 89.752 74.611 89.752 74.611C89.752 74.611 87.8659 73.5108 88.3311 71.4676C88.3311 71.4676 87.5893 70.2731 89.0038 69.0031C90.4184 67.7332 92.2227 65.6837 93.4046 66.3123C94.8987 66.9959 96.0734 68.2269 96.6864 69.7513C97.4723 71.4676 94.4294 73.9823 94.4294 73.9823Z" fill="white" stroke="#263238" stroke-linecap="round" stroke-linejoin="round"/>
<path d="M97.2913 95.7695C97.1991 96.2121 97.2119 96.6702 97.3287 97.1069C97.4455 97.5436 97.6631 97.9469 97.964 98.2843" stroke="#263238" stroke-linecap="round" stroke-linejoin="round"/>
<path d="M157.651 82.6906C149.792 91.1653 147.85 93.3783 144.448 97.7791C143.31 99.2502 141.789 100.526 139.545 103.079C135.59 107.574 131.221 112.962 131.221 112.962C130.07 118.13 133.057 121.103 133.057 121.103C133.057 121.103 146.259 105.33 148.723 101.985C149.761 100.583 151.182 99.4702 153.872 95.8993C157.613 90.9264 159.197 87.9527 161.505 85.7711C162.284 85.0356 163.498 84.4383 164.585 82.7975C164.585 82.7975 165.723 81.9676 164.887 80.2827C164.051 78.5978 161.347 76.0076 160.008 76.1459C159.021 76.2528 159.285 76.3471 157.494 78.1074C156.098 79.4025 157.651 82.6906 157.651 82.6906Z" fill="white" stroke="#263238" stroke-linecap="round" stroke-linejoin="round"/>
<path d="M149.158 99.8984C149.081 100.349 148.898 100.774 148.625 101.14C148.352 101.506 147.996 101.803 147.586 102.005" stroke="#263238" stroke-linecap="round" stroke-linejoin="round"/>
<path d="M109.285 109.77C109.285 109.77 114.667 119.628 126.165 115.189L129.24 107.488L129.428 102.282L124.713 95.1717L120.796 94.543L117.703 95.2597L113.931 98.29L111.951 99.8617L109.97 105.017L109.285 109.77Z" fill="#263238" stroke="#263238" stroke-linecap="round" stroke-linejoin="round"/>
<path d="M111.951 117.702C111.951 117.702 111.159 122.417 115.937 122.945C120.715 123.473 122.589 118.217 122.589 118.217C122.589 118.217 121.237 118.783 121.464 117.318C121.749 115.91 122.125 114.522 122.589 113.163L115.246 111C115.246 111 115.057 119.248 111.951 117.702Z" fill="white"/>
<mask id="mask13_2436_51239" style="mask-type:luminance" maskUnits="userSpaceOnUse" x="111" y="111" width="12" height="12">
<path d="M111.951 117.702C111.951 117.702 111.159 122.417 115.937 122.945C120.715 123.473 122.589 118.217 122.589 118.217C122.589 118.217 121.237 118.783 121.464 117.318C121.749 115.91 122.125 114.522 122.589 113.163L115.246 111C115.246 111 115.057 119.248 111.951 117.702Z" fill="white"/>
</mask>
<g mask="url(#mask13_2436_51239)">
<path d="M114.724 100.559C114.724 100.559 112.561 106.845 112.743 109.04C113.083 111.145 113.917 113.14 115.176 114.861C115.713 115.428 116.353 115.887 117.062 116.213C117.839 116.367 118.638 116.367 119.414 116.213C121.439 115.547 123.277 114.41 124.776 112.893C126.185 111.234 128.096 104.846 128.096 104.846L126.405 97.8741L121.884 95.3594L117.679 96.0761L114.724 100.559Z" fill="#263238" stroke="#263238" stroke-linecap="round" stroke-linejoin="round"/>
</g>
<path d="M111.951 117.702C111.951 117.702 111.159 122.417 115.937 122.945C120.715 123.473 122.589 118.217 122.589 118.217C122.589 118.217 121.237 118.783 121.464 117.318C121.749 115.91 122.125 114.522 122.589 113.163L115.246 111C115.246 111 115.057 119.248 111.951 117.702Z" stroke="#263238" stroke-linecap="round" stroke-linejoin="round"/>
<path d="M114.724 99.76C114.724 99.76 112.561 106.047 112.743 108.241C113.082 110.345 113.916 112.338 115.176 114.056C115.66 114.694 116.329 115.168 117.092 115.413C117.854 115.659 118.674 115.663 119.439 115.427C121.467 114.763 123.307 113.625 124.808 112.107C126.216 110.448 128.127 104.06 128.127 104.06L126.405 97.063L121.884 94.5859L117.679 95.3026L114.724 99.76Z" fill="white" stroke="#263238" stroke-linecap="round" stroke-linejoin="round"/>
<path d="M119.408 104.16C119.48 104.692 119.432 105.234 119.268 105.745C119.103 106.256 118.827 106.724 118.459 107.115L119.257 108.662" stroke="#263238" stroke-linecap="round" stroke-linejoin="round"/>
<path d="M117.391 110.141C117.391 110.141 119.277 111.241 120.685 110.336C120.685 110.336 120.169 112.567 118.918 112.416C117.667 112.266 117.391 110.141 117.391 110.141Z" stroke="#263238" stroke-linecap="round" stroke-linejoin="round"/>
<path d="M118.138 104.267C118.006 104.676 117.704 104.94 117.465 104.896C117.226 104.852 117.138 104.424 117.264 104.022C117.39 103.619 117.698 103.343 117.937 103.425C118.176 103.506 118.264 103.858 118.138 104.267Z" fill="#263238"/>
<path d="M124.085 106.184C123.784 105.917 123.431 105.715 123.047 105.592C122.664 105.469 122.26 105.426 121.859 105.468C121.859 105.468 122.488 104.267 124.123 104.914" stroke="#263238" stroke-linecap="round" stroke-linejoin="round"/>
<path d="M119.056 102.357C119.056 102.357 119.125 101.577 117.673 101.099C117.264 100.96 116.825 100.928 116.4 101.007C115.975 101.087 115.578 101.274 115.246 101.552" stroke="#263238" stroke-linecap="round" stroke-linejoin="round"/>
<path d="M121.754 103.688C121.892 104.178 121.987 102.939 123.508 103.059C123.939 103.084 124.356 103.22 124.72 103.454C125.083 103.687 125.38 104.01 125.583 104.392" stroke="#263238" stroke-linecap="round" stroke-linejoin="round"/>
<path d="M113.586 100.106C113.586 100.106 115.906 101.407 119.665 96.5157C119.665 96.5157 125.323 103.683 127.838 105.041C127.838 105.041 124.581 108.109 124.267 111.24C123.953 114.37 124.072 116.759 122.312 117.055C122.312 117.055 131.346 119.425 131.893 109.944C132.44 100.464 132.427 99.634 127.681 94.5542C125.166 91.8697 121.627 91.7566 118.483 92.5927C115.679 93.3346 113.202 94.724 112.096 97.6222C109.744 103.796 102.835 109.203 109.009 113.723C115.183 118.243 112.303 109.951 112.303 109.951C112.303 109.951 111.077 111.912 110.775 109.819C110.316 106.776 113.9 104.789 113.586 100.106Z" fill="#263238" stroke="#263238" stroke-linecap="round" stroke-linejoin="round"/>
<path d="M117.697 93.2043C117.697 93.2043 117.509 90.3501 120.734 90.633C123.959 90.9159 118.54 91.5257 117.697 93.2043Z" fill="#263238" stroke="#263238" stroke-linecap="round" stroke-linejoin="round"/>
<path d="M114.145 101.318C114.179 100.881 114.179 100.441 114.145 100.004" stroke="#7F7F7F" stroke-width="0.75" stroke-linecap="round" stroke-linejoin="round"/>
<path d="M111.322 109.711C110.977 107.322 113.133 105.562 113.906 102.645" stroke="#7F7F7F" stroke-width="0.75" stroke-linecap="round" stroke-linejoin="round"/>
<path d="M112.851 109.82C112.851 109.82 112.373 110.587 111.939 110.65" stroke="#7F7F7F" stroke-width="0.75" stroke-linecap="round" stroke-linejoin="round"/>
<path d="M112.996 111.277C113.169 111.982 113.243 112.708 113.216 113.434" stroke="#7F7F7F" stroke-width="0.75" stroke-linecap="round" stroke-linejoin="round"/>
<path d="M124.086 113.434C124.086 113.434 124.01 115.32 123.602 115.98" stroke="#7F7F7F" stroke-width="0.75" stroke-linecap="round" stroke-linejoin="round"/>
<path d="M129.743 105.355C129.655 108.467 131.258 112.9 125.562 115.98" stroke="#7F7F7F" stroke-width="0.75" stroke-linecap="round" stroke-linejoin="round"/>
<path d="M122.4 94.3711C123.94 94.41 125.408 95.0325 126.506 96.1126C128.97 98.7279 130.492 101.293 129.863 104.386" stroke="#7F7F7F" stroke-width="0.75" stroke-linecap="round" stroke-linejoin="round"/>
<path d="M119.723 94.5621C120.211 94.4536 120.707 94.3884 121.206 94.3672" stroke="#7F7F7F" stroke-width="0.75" stroke-linecap="round" stroke-linejoin="round"/>
<path d="M176.306 23.6363L92.7824 11.9424C90.1897 11.5794 87.7936 13.387 87.4306 15.9797L80.5363 65.2223C80.1733 67.815 81.9809 70.2111 84.5736 70.5741L168.097 82.268C170.69 82.631 173.086 80.8234 173.449 78.2307L180.343 28.9881C180.706 26.3954 178.899 23.9993 176.306 23.6363Z" fill="#263238" stroke="#263238" stroke-linecap="round" stroke-linejoin="round"/>
<path d="M176.437 23.2262L92.9133 11.5323C90.3206 11.1693 87.9245 12.9768 87.5615 15.5695L80.6672 64.8121C80.3042 67.4048 82.1117 69.8009 84.7044 70.1639L168.228 81.8578C170.821 82.2208 173.217 80.4133 173.58 77.8206L180.474 28.578C180.837 25.9852 179.03 23.5892 176.437 23.2262Z" fill="#92E3A9"/>
<mask id="mask14_2436_51239" style="mask-type:luminance" maskUnits="userSpaceOnUse" x="80" y="11" width="101" height="71">
<path d="M176.437 23.2262L92.9133 11.5323C90.3206 11.1693 87.9245 12.9768 87.5615 15.5695L80.6672 64.8121C80.3042 67.4048 82.1117 69.8009 84.7044 70.1639L168.228 81.8578C170.821 82.2208 173.217 80.4133 173.58 77.8206L180.474 28.578C180.837 25.9852 179.03 23.5892 176.437 23.2262Z" fill="white"/>
</mask>
<g mask="url(#mask14_2436_51239)">
<path opacity="0.6" d="M91.0785 75.8503L79.3535 74.2032L123.016 9.86328L134.741 11.5042L91.0785 75.8503Z" fill="white"/>
<path opacity="0.6" d="M142.179 83.0067L126.568 80.8188L170.231 16.4727L185.847 18.6605L142.179 83.0067Z" fill="white"/>
<path opacity="0.6" d="M98.9938 76.9556L95.0645 76.4024L138.733 12.0625L142.662 12.6095L98.9938 76.9556Z" fill="white"/>
</g>
<path d="M176.437 23.2262L92.9133 11.5323C90.3206 11.1693 87.9245 12.9768 87.5615 15.5695L80.6672 64.8121C80.3042 67.4048 82.1117 69.8009 84.7044 70.1639L168.228 81.8578C170.821 82.2208 173.217 80.4133 173.58 77.8206L180.474 28.578C180.837 25.9852 179.03 23.5892 176.437 23.2262Z" stroke="#263238" stroke-width="0.75" stroke-linecap="round" stroke-linejoin="round"/>
<path d="M128.059 45.636C128.832 45.636 129.505 45.0576 130.033 44.1586L177.254 51.5708L178.511 42.4485L131.139 37.0167C131.039 36.1009 130.637 35.2446 129.995 34.5836C128.008 32.8422 120.797 34.6465 117.824 35.489L116.981 35.3947C116.905 35.2677 116.809 35.1532 116.698 35.0552L120.603 15.4087L111.927 14.1953L109.921 33.955C109.739 34.0048 109.567 34.0856 109.412 34.1939L107.903 33.8858C105.049 32.1506 99.158 28.8563 96.8947 29.9439C96.2983 30.2706 95.8059 30.7587 95.4739 31.3522L85.6287 29.397L84.3398 38.5947L94.3988 39.6069C94.4857 39.9473 94.6541 40.2615 94.8896 40.5222C95.1251 40.7829 95.4206 40.9823 95.7505 41.1031C97.0079 41.4426 99.0134 41.2477 101.189 40.946C93.3741 45.548 91.2806 55.9024 91.2806 55.9024L96.1843 53.3877L99.9564 58.4172C100.453 49.3829 105.942 43.8065 109.003 41.3798L104.049 72.9021L111.908 73.9835L115.586 41.9204H115.781C118 44.869 122.212 51.9794 120.112 61.2148L125.142 57.4427L129.159 61.2148C129.159 61.2148 129.957 51.1118 124.129 44.5232C125.368 45.1108 126.696 45.4869 128.059 45.636Z" fill="#263238"/>
<path d="M85.791 28.2344L84.5273 37.256L111.209 39.8714L177.435 50.2699L178.698 41.2419L112.083 33.6034L85.791 28.2344Z" fill="white" stroke="#263238" stroke-linecap="round" stroke-linejoin="round"/>
<path d="M102.76 73.1216L110.543 74.2155L114.862 37.299L119.37 15.232L110.788 14.0312L108.594 36.4251L102.76 73.1216Z" fill="white" stroke="#263238" stroke-linecap="round" stroke-linejoin="round"/>
<path d="M110.045 38.4769C110.045 38.4769 99.8796 44.2105 99.2069 56.5328L95.4976 51.6228L90.707 54.0998C90.707 54.0998 93.5047 40.2372 104.796 37.7539L110.045 38.4769Z" fill="white" stroke="#263238" stroke-linecap="round" stroke-linejoin="round"/>
<path d="M113.484 38.9531C113.484 38.9531 121.657 47.2644 118.941 59.2975L123.851 55.5882L127.781 59.2912C127.781 59.2912 128.9 45.1897 118.728 39.6887L113.484 38.9531Z" fill="white" stroke="#263238" stroke-linecap="round" stroke-linejoin="round"/>
<path d="M108.556 33.5484C108.556 33.5484 99.1951 27.3118 96.2277 28.7075C93.2603 30.1032 92.2292 38.842 95.0772 39.6278C97.9251 40.4137 105.199 38.2761 108.28 38.7099L108.556 33.5484Z" fill="white" stroke="#263238" stroke-linecap="round" stroke-linejoin="round"/>
<path d="M94.7244 38.4328C94.8313 39.5331 98.0376 39.5833 100.489 39.4576C102.313 39.1998 104.224 38.8729 105.84 38.7283C101.923 38.1059 94.5924 37.1126 94.7244 38.4328Z" fill="#999999" stroke="#263238" stroke-linecap="round" stroke-linejoin="round"/>
<path d="M115.423 34.5081C115.423 34.5081 126.142 31.0818 128.626 33.2508C131.109 35.4197 129.688 44.0893 126.739 44.0579C123.791 44.0265 117.378 39.9777 114.285 39.5439L115.423 34.5081Z" fill="white" stroke="#263238" stroke-linecap="round" stroke-linejoin="round"/>
<path d="M127.385 43.0008C126.976 44.0318 123.877 43.1957 121.557 42.3721C119.872 41.6302 118.125 40.7878 116.609 40.2031C120.545 40.7124 127.857 41.7748 127.385 43.0008Z" fill="#999999" stroke="#263238" stroke-linecap="round" stroke-linejoin="round"/>
<path d="M113.397 40.6653L108.902 40.0366C108.501 39.9804 108.136 39.7751 107.879 39.4617C107.623 39.1482 107.494 38.7496 107.519 38.3454L107.789 34.0892C107.801 33.8665 107.86 33.6488 107.961 33.45C108.062 33.2512 108.204 33.0756 108.376 32.9343C108.549 32.793 108.749 32.6892 108.964 32.6293C109.179 32.5695 109.404 32.5549 109.625 32.5867L114.755 33.3097C114.975 33.3392 115.186 33.4141 115.376 33.5297C115.565 33.6452 115.729 33.7989 115.856 33.9809C115.983 34.163 116.071 34.3694 116.114 34.5872C116.157 34.8049 116.155 35.0293 116.106 35.246L115.182 39.4079C115.099 39.8043 114.868 40.1544 114.537 40.3876C114.205 40.6209 113.798 40.7201 113.397 40.6653Z" fill="white" stroke="#263238" stroke-linecap="round" stroke-linejoin="round"/>
<path d="M92.1421 72.9831C92.1421 72.9831 90.9413 71.2291 93.7076 69.9214C95.7948 68.9344 95.2038 67.6833 96.5492 67.8279C97.8946 67.9725 94.7763 71.2605 95.2038 72.455" fill="white"/>
<path d="M92.1421 72.9831C92.1421 72.9831 90.9413 71.2291 93.7076 69.9214C95.7948 68.9344 95.2038 67.6833 96.5492 67.8279C97.8946 67.9725 94.7763 71.2605 95.2038 72.455" stroke="#263238" stroke-linecap="round" stroke-linejoin="round"/>
<path d="M160.43 83.0316C160.43 83.0316 162.246 81.8182 160.122 79.6052C158.625 78.0523 160.637 77.0213 159.575 76.3738C158.154 75.5125 158.625 80.4539 157.789 81.4033" fill="white"/>
<path d="M160.43 83.0316C160.43 83.0316 162.246 81.8182 160.122 79.6052C158.625 78.0523 160.637 77.0213 159.575 76.3738C158.154 75.5125 158.625 80.4539 157.789 81.4033" stroke="#263238" stroke-linecap="round" stroke-linejoin="round"/>
<path d="M149.465 110.077L150.483 109.152" stroke="#263238" stroke-linecap="round" stroke-linejoin="round"/>
<path d="M138.125 124.242C139.785 120.74 142.909 116.239 148.687 110.801" stroke="#263238" stroke-linecap="round" stroke-linejoin="round"/>
<path d="M137.031 127.006C137.182 126.528 137.364 126.019 137.578 125.484" stroke="#263238" stroke-linecap="round" stroke-linejoin="round"/>
<path d="M136.659 133.044C136.384 132.188 136.29 131.285 136.382 130.391" stroke="#263238" stroke-linecap="round" stroke-linejoin="round"/>
<path d="M103.969 222.391V226.741" stroke="#263238" stroke-linecap="round" stroke-linejoin="round"/>
<path d="M103.969 216.344V220.858" stroke="#263238" stroke-linecap="round" stroke-linejoin="round"/>
<path d="M103.969 213.102V214.988" stroke="#263238" stroke-linecap="round" stroke-linejoin="round"/>
<path d="M109.375 231.746V233.733" stroke="#263238" stroke-linecap="round" stroke-linejoin="round"/>
<path d="M109.375 222.512V230.351" stroke="#263238" stroke-linecap="round" stroke-linejoin="round"/>
<path d="M109.375 218.832V220.856" stroke="#263238" stroke-linecap="round" stroke-linejoin="round"/>
<path d="M154.582 210.63C154.903 210.479 155.211 210.316 155.55 210.152" stroke="#263238" stroke-linecap="round" stroke-linejoin="round"/>
<path d="M143.996 214.607C147.3 213.762 150.512 212.589 153.584 211.105" stroke="#263238" stroke-linecap="round" stroke-linejoin="round"/>
<path d="M127.455 212.086C129.832 214.255 134.239 216.436 141.965 215.041" stroke="#263238" stroke-linecap="round" stroke-linejoin="round"/>
<path d="M124.99 208.723C125.298 209.45 125.709 210.13 126.21 210.741" stroke="#263238" stroke-linecap="round" stroke-linejoin="round"/>
<path d="M136.66 81.043L138.955 81.3385" stroke="#263238" stroke-linecap="round" stroke-linejoin="round"/>
<path d="M119.439 78.8047L134.226 80.7285" stroke="#263238" stroke-linecap="round" stroke-linejoin="round"/>
<path d="M112.957 77.9648L116.232 78.3923" stroke="#263238" stroke-linecap="round" stroke-linejoin="round"/>
<path d="M133.396 14.333L131.107 14.0312" stroke="#263238" stroke-linecap="round" stroke-linejoin="round"/>
<path d="M150.623 16.5722L135.836 14.6484" stroke="#263238" stroke-linecap="round" stroke-linejoin="round"/>
<path d="M157.098 17.4158L153.822 16.9883" stroke="#263238" stroke-linecap="round" stroke-linejoin="round"/>
<path d="M146.588 67.8933C146.788 68.1532 146.985 68.414 147.187 68.6716C147.333 68.8593 147.416 69.0605 147.443 69.3073C147.489 69.72 147.681 70.0814 147.957 70.3952C147.754 70.0424 147.618 69.6687 147.567 69.2295C147.815 69.5467 148.049 69.8349 148.359 70.0446C148.674 70.2588 149.019 70.3813 149.403 70.3785C148.54 70.2182 148.129 69.5605 147.74 68.8728C148.058 69.0285 148.388 69.1255 148.744 69.1225C148.603 69.0795 148.454 69.0545 148.323 68.9912C148.076 68.8705 147.84 68.7273 147.6 68.5923C147.571 68.5765 147.544 68.5518 147.526 68.526C147.305 68.2167 147.086 67.9076 146.864 67.5944C147.262 67.6336 147.671 67.6103 148.069 67.4684C147.662 67.4933 147.253 67.518 146.856 67.4185C146.458 67.319 146.069 67.1937 145.644 67.0708C145.728 66.9575 145.801 66.8273 145.903 66.7244C146.434 66.1826 147.088 66.1203 147.747 66.5172C148.296 66.8475 148.624 67.3424 148.864 67.9153C148.971 68.1702 149.089 68.4216 149.215 68.6679C149.475 69.1718 149.849 69.5388 150.428 69.6592C150.819 69.7411 151.209 69.8215 151.613 69.7973C151.72 69.7903 151.826 69.7677 151.952 69.7494C151.92 69.7921 151.894 69.8305 151.866 69.8661C151.172 70.738 150.279 71.273 149.157 71.2714C147.699 71.2682 146.563 70.652 145.901 69.3042C145.687 68.8714 145.581 68.4047 145.559 67.9198C145.552 67.766 145.501 67.7211 145.347 67.7313C145.137 67.7446 144.96 67.8337 144.805 67.9736C144.768 68.0078 144.733 68.0437 144.695 68.0764C144.59 68.1673 144.482 68.1678 144.42 68.0815C144.359 67.9952 144.385 67.8809 144.501 67.8162C144.658 67.7293 144.819 67.6418 144.989 67.5837C145.434 67.4323 145.87 67.4451 146.286 67.6939C146.374 67.7468 146.407 67.7928 146.392 67.8998C146.312 68.4567 146.439 68.974 146.702 69.4643C146.707 69.474 146.718 69.4809 146.722 69.484C146.666 69.2291 146.592 68.9726 146.558 68.7107C146.525 68.4489 146.535 68.1806 146.527 67.9162C146.547 67.9077 146.568 67.9005 146.588 67.8933Z" fill="#1A1A1A"/>
<path d="M148.942 66.7689C149.001 66.6351 149.068 66.5154 148.904 66.4356C149.13 66.3591 149.349 66.2841 149.558 66.214C149.599 66.1277 149.637 66.0473 149.674 65.9682C149.687 65.9701 149.698 65.9718 149.711 65.9724C149.722 66.0293 149.736 66.0854 149.745 66.1419C149.756 66.2296 149.819 66.261 149.903 66.2517C150.035 66.2356 150.107 66.181 150.149 66.0498C150.168 65.9935 150.256 65.9606 150.307 65.922C150.317 65.926 150.306 65.9193 150.295 65.9176C150.072 65.8815 150.066 65.8678 150.159 65.6685C150.174 65.6374 150.171 65.5971 150.176 65.562C150.163 65.5561 150.149 65.5515 150.136 65.5457C150.08 65.6259 150.024 65.7047 149.97 65.7866C149.96 65.8018 149.952 65.8326 149.96 65.8442C150.049 65.9743 149.926 66.0356 149.877 66.14C149.835 66.0527 149.817 65.9601 149.763 65.9238C149.717 65.8924 149.626 65.9276 149.555 65.9323C149.489 65.7799 149.526 65.7006 149.67 65.6323C149.747 65.5951 149.812 65.5317 149.877 65.4734C150.017 65.3492 150.304 65.3204 150.451 65.4222C150.469 65.4339 150.492 65.4746 150.488 65.4778C150.456 65.5103 150.419 65.5368 150.381 65.5658C150.411 65.5985 150.449 65.6428 150.494 65.6932C150.579 65.6019 150.661 65.5141 150.741 65.4247C150.789 65.3715 150.889 65.3415 150.837 65.2388C150.805 65.1735 150.765 65.1111 150.729 65.0478C150.7 64.9998 150.669 64.9541 150.63 64.8892C150.69 64.8865 150.721 64.8861 150.753 64.8845C150.757 64.8761 150.761 64.8664 150.765 64.858C150.565 64.7587 150.364 64.6591 150.165 64.5598C151.577 64.7744 152.931 66.7783 152.423 68.4487C152.411 68.3288 152.403 68.2376 152.394 68.1348C152.254 68.1638 152.29 68.0357 152.247 67.9701C152.128 67.942 152.02 68.1442 151.896 67.992C151.764 68.0762 151.66 68.0182 151.569 67.8954C151.559 67.9093 151.55 67.922 151.54 67.9359C151.586 68.0392 151.625 68.1478 151.682 68.245C151.713 68.2984 151.767 68.2923 151.801 68.232C151.828 68.1859 151.854 68.1397 151.882 68.0913C152.027 68.2236 152.054 68.3303 151.971 68.4849C151.844 68.7265 151.663 68.924 151.443 69.0837C151.403 69.1136 151.347 69.1245 151.279 69.1515C151.269 68.7789 151.098 68.4949 150.894 68.2165C150.862 68.3864 151.008 68.7564 151.311 69.2809C151.463 69.1932 151.616 69.107 151.799 69.001C151.668 69.2305 151.557 69.4308 151.439 69.6263C151.425 69.6499 151.377 69.6657 151.345 69.6635C150.939 69.6424 150.544 69.5703 150.163 69.4296C149.836 69.3085 149.611 69.0615 149.444 68.7705C149.292 68.5063 149.17 68.2234 149.039 67.9457C148.943 67.7411 148.853 67.535 148.747 67.2995C148.997 67.3151 149.229 67.3281 149.459 67.3499C149.477 67.3513 149.507 67.4187 149.5 67.4472C149.449 67.6476 149.445 67.6471 149.643 67.732C149.666 67.7419 149.693 67.7485 149.71 67.7652C149.84 67.9003 149.974 67.9023 150.123 67.7912C150.152 67.7698 150.212 67.7776 150.254 67.7878C150.327 67.8065 150.396 67.8386 150.468 67.8635C150.784 67.9752 150.925 67.8846 150.957 67.5376C150.847 67.539 150.737 67.5418 150.628 67.5421C150.609 67.5418 150.585 67.5357 150.57 67.5257C150.461 67.4516 150.399 67.3484 150.381 67.2032C150.348 67.2072 150.31 67.2118 150.26 67.2185C150.272 67.2832 150.282 67.3373 150.293 67.3981C150.274 67.4183 150.249 67.4454 150.194 67.5027C150.134 67.3587 150.095 67.2232 150.022 67.1108C149.946 66.994 149.837 66.898 149.719 66.7685C149.731 66.9747 149.834 67.0889 149.974 67.1781C149.91 67.2623 149.849 67.343 149.782 67.4331C149.731 67.3984 149.686 67.3686 149.643 67.3403C149.645 67.3302 149.647 67.3216 149.649 67.3116C149.691 67.3128 149.734 67.3179 149.775 67.3112C149.8 67.3073 149.834 67.2894 149.844 67.269C149.852 67.2496 149.841 67.212 149.824 67.1929C149.74 67.0852 149.656 66.9775 149.565 66.8777C149.545 66.8555 149.494 66.8542 149.457 66.8565C149.417 66.8582 149.368 66.8944 149.338 66.8809C149.204 66.8184 149.141 66.9014 149.071 66.9898C149.035 67.0345 148.988 67.0736 148.939 67.1062C148.779 67.2144 148.681 67.1945 148.565 67.0462C148.494 66.9558 148.394 66.8779 148.507 66.7458C148.567 66.6753 148.626 66.6455 148.714 66.6794C148.787 66.7108 148.861 66.7374 148.942 66.7689ZM151.088 67.1244C151.067 66.9929 150.944 66.9064 150.751 66.8903C150.718 66.848 150.691 66.8131 150.663 66.7768C150.634 66.8136 150.604 66.8502 150.578 66.8886C150.552 66.9258 150.526 66.9642 150.508 67.0065C150.49 67.05 150.458 67.1094 150.473 67.1413C150.488 67.1705 150.559 67.1876 150.603 67.1839C150.763 67.1695 150.921 67.1456 151.088 67.1244ZM151.393 66.8029C151.41 66.7926 151.427 66.7823 151.445 66.7722C151.423 66.7317 151.401 66.6911 151.378 66.6505C151.339 66.6818 151.271 66.7063 151.265 66.744C151.254 66.8052 151.26 66.8909 151.297 66.935C151.373 67.0234 151.44 67.1029 151.442 67.2277C151.443 67.2651 151.481 67.3119 151.514 67.3374C151.542 67.3596 151.597 67.3743 151.624 67.3603C151.65 67.3463 151.677 67.2822 151.665 67.2586C151.616 67.1575 151.553 67.062 151.494 66.9646C151.461 66.9108 151.426 66.8567 151.393 66.8029Z" fill="#1A1A1A"/>
<path d="M148.839 64.506C148.927 64.4665 149.015 64.4271 149.107 64.3856C149.179 64.6314 149.411 64.6599 149.59 64.8101C149.491 64.8607 149.404 64.9054 149.315 64.9486C149.224 64.9926 149.13 65.0325 149.037 65.0725C149.007 65.0846 148.972 65.1013 148.942 65.098C148.659 65.0645 148.38 65.0458 148.137 65.2533C148.129 65.2417 148.12 65.2289 148.112 65.2174C148.148 65.1637 148.173 65.093 148.223 65.0581C148.355 64.9637 148.497 64.8835 148.636 64.8003C148.7 64.7625 148.771 64.7347 148.834 64.694C148.951 64.619 148.949 64.5944 148.843 64.504L148.839 64.506Z" fill="#1A1A1A"/>
<path d="M148.008 64.7241C147.947 64.7856 147.827 64.8587 147.837 64.9052C147.863 65.0286 147.753 65.0172 147.715 65.0719C147.695 65.101 147.651 65.1111 147.623 65.1364C147.6 65.1572 147.575 65.1844 147.563 65.2134C147.509 65.3414 147.399 65.3622 147.281 65.2816C147.237 65.2505 147.166 65.2565 147.106 65.2501C147.044 65.2434 146.981 65.2429 146.892 65.2385C147.219 64.9036 147.519 64.5903 148.016 64.5803C147.83 64.6833 147.656 64.7779 147.483 64.8739C147.49 64.8877 147.495 64.9014 147.502 64.9166C147.666 64.8488 147.831 64.7797 147.995 64.712C148 64.7152 148.004 64.7197 148.008 64.7241Z" fill="#1A1A1A"/>
<path d="M148.846 64.5034C148.8 64.5223 148.754 64.5372 148.712 64.5617C148.552 64.6507 148.397 64.7467 148.235 64.8316C148.189 64.8568 148.128 64.8554 148.046 64.8714C148.104 64.7516 148.159 64.6944 148.267 64.6784C148.39 64.6597 148.511 64.6175 148.633 64.5857C148.631 64.5738 148.628 64.5632 148.626 64.5514C148.593 64.54 148.559 64.5284 148.525 64.5168C148.591 64.4214 148.749 64.3823 148.887 64.4273C148.871 64.4558 148.856 64.4819 148.842 64.5093C148.84 64.5064 148.846 64.5034 148.846 64.5034Z" fill="#1A1A1A"/>
<path d="M149.255 66.249C149.145 66.2608 149.044 66.2712 148.969 66.2793C148.997 66.182 149.024 66.0859 149.05 65.9909C149.064 65.9366 149.062 65.8746 149.088 65.8284C149.136 65.7406 149.185 65.7814 149.226 65.8375C149.213 65.8421 149.203 65.8456 149.19 65.8502C149.197 65.9102 149.201 65.9699 149.21 66.029C149.221 66.0936 149.237 66.1577 149.255 66.249Z" fill="#1A1A1A"/>
<path d="M146.513 65.5607C146.563 65.4962 146.609 65.4287 146.662 65.3672C146.764 65.2491 146.798 65.2502 146.91 65.3737C146.782 65.4418 146.653 65.5085 146.526 65.5755C146.522 65.571 146.518 65.5652 146.513 65.5607Z" fill="#1A1A1A"/>
<path d="M149.049 65.323C149.019 65.4122 148.956 65.4092 148.89 65.3775C148.813 65.3403 148.822 65.2813 148.854 65.2167C148.918 65.252 148.977 65.284 149.049 65.323Z" fill="#1A1A1A"/>
<path d="M148.766 66.1226C148.804 66.0539 148.835 66.0007 148.877 65.9261C148.91 65.9592 148.977 65.9989 148.971 66.0236C148.946 66.1266 148.857 66.1234 148.766 66.1226Z" fill="#1A1A1A"/>
<path d="M147.369 65.4651C147.317 65.506 147.282 65.5329 147.246 65.5608C147.228 65.5273 147.191 65.4896 147.198 65.4624C147.207 65.4265 147.251 65.3997 147.28 65.3694C147.304 65.3949 147.328 65.4217 147.369 65.4651Z" fill="#1A1A1A"/>
<path d="M147.013 65.5378C146.943 65.3551 147.04 65.3222 147.164 65.2843C147.111 65.3714 147.07 65.441 147.013 65.5378Z" fill="#1A1A1A"/>
<path d="M150.633 65.3305C150.506 65.2434 150.471 65.1341 150.526 65.0332C150.559 65.1254 150.594 65.2219 150.633 65.3305Z" fill="#1A1A1A"/>
<path d="M146.16 66.0824C146.089 66.2168 146.017 66.3524 145.945 66.4868C145.933 66.4799 145.923 66.4744 145.911 66.4675C145.985 66.3335 146.059 66.2007 146.133 66.0667C146.142 66.072 146.152 66.0773 146.16 66.0824Z" fill="#1A1A1A"/>
<path d="M156.796 67.9293C156.939 67.9508 157.071 67.9975 157.19 68.0706C157.309 68.1424 157.408 68.2319 157.489 68.3377C157.571 68.4437 157.631 68.5633 157.671 68.6965C157.712 68.8284 157.724 68.9677 157.708 69.1116L157.562 70.0863C157.556 70.1265 157.537 70.1583 157.505 70.1818C157.473 70.2053 157.437 70.214 157.397 70.2079C157.357 70.2019 157.325 70.183 157.301 70.1512C157.278 70.1194 157.269 70.0834 157.275 70.0432L157.414 69.1163C157.431 69.0071 157.426 68.9023 157.4 68.8034C157.373 68.7044 157.331 68.6132 157.272 68.5325C157.213 68.4518 157.14 68.383 157.053 68.3276C156.967 68.2721 156.868 68.2343 156.759 68.2153C156.653 68.1993 156.551 68.202 156.451 68.2242C156.353 68.2467 156.262 68.2845 156.182 68.338C156.102 68.3927 156.033 68.4606 155.975 68.5445C155.917 68.6283 155.875 68.7234 155.85 68.8275L155.703 69.8072C155.697 69.8474 155.678 69.8792 155.646 69.9027C155.615 69.9262 155.579 69.9349 155.538 69.9288C155.498 69.9228 155.466 69.9039 155.443 69.8721C155.419 69.8403 155.411 69.8043 155.417 69.7642L155.552 68.8624C155.594 68.6426 155.549 68.4394 155.418 68.2554C155.29 68.0743 155.114 67.9669 154.889 67.9331C154.782 67.9171 154.678 67.9221 154.575 67.9477C154.473 67.9734 154.381 68.0174 154.3 68.0785C154.219 68.1395 154.15 68.2151 154.094 68.3031C154.038 68.3923 154.002 68.4909 153.985 68.6001L153.846 69.527C153.84 69.5672 153.821 69.599 153.789 69.6225C153.758 69.646 153.722 69.6547 153.681 69.6487C153.641 69.6426 153.609 69.6237 153.586 69.5919C153.562 69.5602 153.554 69.5242 153.56 69.484L153.838 67.6315C153.844 67.5913 153.863 67.5594 153.895 67.536C153.926 67.5125 153.962 67.5038 154.003 67.5098C154.043 67.5158 154.075 67.5347 154.098 67.5665C154.122 67.5983 154.13 67.6343 154.124 67.6745L154.095 67.8729C154.22 67.7801 154.352 67.7139 154.491 67.6743C154.629 67.6347 154.775 67.6271 154.931 67.6505C155.123 67.6794 155.296 67.7541 155.447 67.8757C155.598 67.9973 155.708 68.1461 155.779 68.325C155.902 68.1727 156.051 68.0615 156.229 67.9906C156.406 67.9195 156.592 67.9 156.788 67.9294L156.796 67.9305L156.796 67.9293Z" fill="#1A1A1A"/>
<path d="M160.125 68.4176C160.166 68.4236 160.197 68.4426 160.221 68.4743C160.244 68.5061 160.253 68.5421 160.247 68.5823L159.89 70.9636L159.886 70.963C159.856 71.0998 159.803 71.2241 159.724 71.3356C159.646 71.4471 159.551 71.5395 159.443 71.6131C159.333 71.6865 159.212 71.7389 159.079 71.773C158.946 71.8056 158.811 71.8124 158.673 71.7916C158.535 71.7709 158.408 71.7274 158.291 71.6597C158.175 71.5922 158.076 71.508 157.993 71.4082C157.911 71.3072 157.849 71.194 157.807 71.0669C157.764 70.9398 157.746 70.806 157.753 70.6658C157.752 70.6246 157.77 70.5901 157.803 70.5629C157.834 70.5354 157.87 70.5242 157.913 70.5306C157.951 70.5363 157.98 70.5535 158.004 70.5816C158.028 70.6096 158.039 70.6432 158.035 70.6813C158.032 70.7835 158.045 70.8818 158.078 70.974C158.109 71.0673 158.155 71.1501 158.216 71.2247C158.277 71.298 158.35 71.3604 158.435 71.4091C158.52 71.4591 158.613 71.491 158.713 71.5061C158.823 71.5226 158.928 71.5165 159.029 71.4894C159.131 71.4623 159.221 71.418 159.303 71.3585C159.384 71.2987 159.454 71.223 159.509 71.1338C159.565 71.0433 159.602 70.9435 159.619 70.8343L159.714 70.1963C159.597 70.2904 159.465 70.3579 159.321 70.3978C159.174 70.4375 159.027 70.4462 158.877 70.4237C158.73 70.4016 158.596 70.3532 158.474 70.2771C158.352 70.2009 158.249 70.1084 158.165 69.997C158.082 69.8856 158.022 69.761 157.985 69.6219C157.948 69.4828 157.941 69.3392 157.963 69.1935L158.103 68.2616C158.109 68.2214 158.128 68.1896 158.16 68.1661C158.192 68.1426 158.228 68.1339 158.268 68.14C158.308 68.146 158.34 68.1649 158.364 68.1967C158.387 68.2285 158.396 68.2645 158.39 68.3046L158.25 69.2366C158.234 69.3433 158.24 69.447 158.267 69.5499C158.294 69.6529 158.338 69.7443 158.398 69.8252C158.458 69.9061 158.532 69.975 158.623 70.031C158.713 70.087 158.813 70.1238 158.922 70.1402C159.032 70.1566 159.137 70.1506 159.238 70.1235C159.34 70.0964 159.43 70.0521 159.512 69.9925C159.593 69.9328 159.662 69.8584 159.718 69.7679C159.774 69.6774 159.811 69.5801 159.827 69.4734L159.967 68.5415C159.973 68.5013 159.992 68.4694 160.024 68.446C160.049 68.4203 160.085 68.4116 160.125 68.4176Z" fill="#1A1A1A"/>
<path d="M162.221 69.8653C162.263 69.6418 162.218 69.4385 162.088 69.2546C161.956 69.0704 161.778 68.9615 161.555 68.9279C161.448 68.9119 161.344 68.9181 161.241 68.9451C161.138 68.972 161.047 69.016 160.966 69.0758C160.885 69.1356 160.816 69.21 160.76 69.2992C160.704 69.3884 160.668 69.4869 160.651 69.5962L160.306 71.8959C160.3 71.9361 160.281 71.9679 160.249 71.9914C160.217 72.0148 160.181 72.0236 160.141 72.0175C160.101 72.0115 160.069 71.9926 160.046 71.9608C160.022 71.929 160.013 71.893 160.02 71.8528L160.365 69.5532C160.387 69.4062 160.435 69.2722 160.511 69.1501C160.588 69.028 160.68 68.925 160.791 68.8441C160.903 68.7619 161.027 68.7035 161.166 68.6666C161.305 68.6298 161.449 68.6231 161.595 68.645C161.747 68.6678 161.885 68.7167 162.006 68.7927C162.126 68.8687 162.228 68.9623 162.311 69.0749C162.395 69.1876 162.454 69.3134 162.489 69.4522C162.523 69.5909 162.529 69.7357 162.507 69.8852C162.485 70.0321 162.437 70.1661 162.361 70.287C162.285 70.4079 162.191 70.5094 162.078 70.5914C161.966 70.6734 161.84 70.7315 161.701 70.7684C161.562 70.8053 161.418 70.812 161.273 70.7901C161.036 70.7547 160.835 70.6524 160.666 70.4833C160.636 70.4493 160.622 70.4138 160.624 70.3756C160.624 70.3344 160.642 70.2999 160.676 70.2728C160.707 70.2429 160.745 70.2306 160.791 70.2376C160.818 70.2415 160.843 70.2555 160.869 70.28C160.991 70.4037 161.141 70.4801 161.315 70.5063C161.422 70.5223 161.524 70.5184 161.624 70.4936C161.723 70.4686 161.814 70.4283 161.897 70.3715C161.979 70.3144 162.048 70.244 162.105 70.1574C162.164 70.0661 162.203 69.9704 162.221 69.8653Z" fill="#1A1A1A"/>
<path d="M162.75 71.0142C162.709 71.0081 162.678 70.9892 162.654 70.9575C162.631 70.9257 162.622 70.8897 162.628 70.8495L163.115 67.6066C163.121 67.5664 163.14 67.5333 163.172 67.5099C163.204 67.4851 163.24 67.4764 163.28 67.4824C163.32 67.4885 163.352 67.5074 163.377 67.5406C163.401 67.5739 163.41 67.6098 163.404 67.65L162.917 70.8929C162.911 70.9331 162.892 70.9649 162.859 70.9882C162.827 71.0117 162.79 71.0202 162.75 71.0142Z" fill="#1A1A1A"/>
<path d="M164.232 71.2308C164.085 71.2087 163.951 71.1603 163.828 71.0841C163.706 71.008 163.603 70.9155 163.52 70.804C163.436 70.6926 163.377 70.5681 163.34 70.429C163.303 70.2899 163.296 70.1463 163.318 70.0006C163.34 69.8511 163.389 69.7146 163.465 69.5925C163.541 69.4704 163.634 69.3674 163.745 69.284C163.857 69.2005 163.982 69.1396 164.121 69.1028C164.26 69.0646 164.405 69.0569 164.555 69.0793C164.702 69.1014 164.836 69.1498 164.958 69.2259C165.08 69.3021 165.183 69.3958 165.266 69.5085C165.35 69.6212 165.409 69.747 165.446 69.8861C165.483 70.0252 165.49 70.1688 165.468 70.3145L165.328 71.2464C165.322 71.2866 165.303 71.3197 165.271 71.3432C165.239 71.3679 165.203 71.3766 165.163 71.3706C165.123 71.3645 165.091 71.3456 165.067 71.3126C165.044 71.2796 165.035 71.2436 165.041 71.2034L165.181 70.2715C165.198 70.1622 165.192 70.0573 165.165 69.9556C165.137 69.8539 165.093 69.7638 165.033 69.6829C164.974 69.602 164.898 69.5328 164.809 69.477C164.718 69.421 164.618 69.3842 164.509 69.3678C164.284 69.334 164.082 69.3859 163.903 69.5235C163.816 69.59 163.747 69.6694 163.693 69.7628C163.639 69.8562 163.607 69.958 163.597 70.0682C163.587 70.1759 163.596 70.2787 163.625 70.3768C163.654 70.4749 163.7 70.5639 163.76 70.6423C163.82 70.7207 163.894 70.7857 163.982 70.8388C164.069 70.8917 164.167 70.9257 164.274 70.9417C164.45 70.9681 164.613 70.94 164.767 70.8565C164.796 70.8429 164.825 70.8383 164.858 70.8432C164.898 70.8492 164.932 70.871 164.959 70.9071C164.983 70.9429 164.989 70.981 164.976 71.0202C164.964 71.062 164.941 71.0933 164.905 71.111C164.692 71.2267 164.468 71.2662 164.232 71.2308Z" fill="#1A1A1A"/>
<path d="M166.961 69.4523C167.106 69.474 167.236 69.5205 167.355 69.5936C167.474 69.6654 167.574 69.7549 167.657 69.8611C167.74 69.9673 167.8 70.0868 167.841 70.22C167.881 70.352 167.894 70.4913 167.877 70.6352L167.73 71.6149C167.724 71.655 167.705 71.6869 167.673 71.7104C167.642 71.7338 167.606 71.7426 167.565 71.7365C167.525 71.7305 167.493 71.7116 167.47 71.6798C167.446 71.648 167.438 71.612 167.444 71.5718L167.58 70.6663C167.602 70.5605 167.6 70.4548 167.577 70.35C167.553 70.2449 167.51 70.1485 167.446 70.0593C167.382 69.9701 167.306 69.8982 167.214 69.8433C167.122 69.7884 167.023 69.753 166.916 69.737C166.807 69.7206 166.701 69.7265 166.598 69.7534C166.495 69.7803 166.403 69.8244 166.322 69.8841C166.241 69.9439 166.172 70.0183 166.117 70.1063C166.061 70.1955 166.024 70.294 166.008 70.4033L165.868 71.3352C165.862 71.3754 165.843 71.4072 165.811 71.4307C165.779 71.4542 165.743 71.4629 165.703 71.4569C165.663 71.4508 165.631 71.4319 165.608 71.4001C165.584 71.3683 165.575 71.3324 165.581 71.2922L165.861 69.4283C165.867 69.3881 165.886 69.3563 165.918 69.3328C165.95 69.3094 165.986 69.3006 166.026 69.3067C166.066 69.3127 166.098 69.3316 166.122 69.3634C166.145 69.3952 166.154 69.4312 166.148 69.4714L166.117 69.6786C166.124 69.6707 166.136 69.6609 166.152 69.6492C166.268 69.5638 166.395 69.5046 166.532 69.47C166.672 69.4358 166.814 69.4302 166.961 69.4523Z" fill="#1A1A1A"/>
<path d="M169.814 70.0302C169.97 70.1448 170.088 70.2922 170.168 70.4739C170.249 70.6555 170.273 70.8491 170.242 71.0564C170.219 71.2033 170.171 71.3361 170.095 71.4557C170.02 71.5753 169.927 71.6758 169.819 71.7558C169.709 71.8369 169.587 71.8957 169.451 71.9317C169.314 71.9689 169.173 71.976 169.026 71.9539C168.879 71.9318 168.746 71.8836 168.627 71.8079C168.507 71.7321 168.406 71.64 168.326 71.5316C168.246 71.4233 168.186 71.3 168.15 71.1636C168.113 71.027 168.106 70.8859 168.128 70.739C168.159 70.5342 168.238 70.3586 168.364 70.2094C168.491 70.0601 168.645 69.9549 168.83 69.8914C168.749 69.806 168.689 69.7059 168.653 69.5939C168.618 69.4807 168.608 69.3624 168.627 69.2394C168.643 69.1301 168.679 69.0314 168.733 68.9445C168.787 68.8576 168.856 68.7832 168.939 68.7211C169.021 68.6603 169.114 68.6164 169.214 68.5903C169.315 68.5645 169.419 68.5595 169.525 68.5753C169.634 68.5918 169.733 68.6271 169.82 68.6813C169.906 68.7355 169.981 68.8044 170.043 68.887C170.104 68.9693 170.148 69.0607 170.174 69.1609C170.2 69.2599 170.205 69.3647 170.189 69.4739C170.171 69.5945 170.127 69.7023 170.06 69.7988C169.993 69.8941 169.911 69.9704 169.814 70.0302ZM169.071 71.6563C169.174 71.6717 169.275 71.6664 169.374 71.6401C169.472 71.6137 169.56 71.5705 169.64 71.5118C169.719 71.4531 169.785 71.3809 169.841 71.2954C169.895 71.2098 169.929 71.1148 169.945 71.0106C169.961 70.9063 169.955 70.8066 169.929 70.7076C169.903 70.6099 169.859 70.5212 169.801 70.4418C169.742 70.3623 169.67 70.2962 169.584 70.241C169.498 70.187 169.403 70.1522 169.299 70.1366C169.196 70.1211 169.095 70.1265 168.996 70.1527C168.898 70.1791 168.809 70.2223 168.73 70.281C168.651 70.3397 168.584 70.412 168.529 70.4974C168.475 70.5831 168.44 70.678 168.425 70.7822C168.409 70.8865 168.415 70.9862 168.441 71.0852C168.467 71.1829 168.511 71.2716 168.569 71.3511C168.628 71.4305 168.7 71.4966 168.786 71.5518C168.872 71.6058 168.967 71.6406 169.071 71.6563ZM169.48 68.873C169.413 68.863 169.35 68.8663 169.287 68.8838C169.224 68.9013 169.167 68.9275 169.118 68.9638C169.069 69.0001 169.026 69.0463 168.992 69.1015C168.957 69.1566 168.935 69.2175 168.925 69.2828C168.915 69.3494 168.918 69.4128 168.936 69.4758C168.953 69.5388 168.979 69.5954 169.016 69.6445C169.052 69.6936 169.098 69.7365 169.154 69.7705C169.209 69.8058 169.27 69.8278 169.335 69.8376C169.402 69.8476 169.465 69.8443 169.528 69.8268C169.591 69.8093 169.648 69.7831 169.697 69.7468C169.746 69.7105 169.789 69.6643 169.823 69.609C169.858 69.554 169.88 69.4931 169.89 69.4278C169.9 69.3612 169.897 69.2978 169.879 69.2348C169.862 69.1718 169.835 69.1152 169.799 69.0661C169.763 69.017 169.716 68.974 169.661 68.9401C169.606 68.9048 169.546 68.883 169.48 68.873Z" fill="#1A1A1A"/>
<path d="M170.451 68.6875L170.646 68.7167L170.643 68.7394L170.557 68.7265L170.524 68.9488L170.5 68.9452L170.533 68.7229L170.448 68.7101L170.451 68.6875Z" fill="#1A1A1A"/>
<path d="M170.702 68.7652L170.671 68.9712L170.647 68.9676L170.684 68.7227L170.715 68.7274L170.787 68.9643L170.926 68.7591L170.958 68.7638L170.921 69.0087L170.897 69.0051L170.928 68.7991L170.796 68.99L170.77 68.9861L170.702 68.7652Z" fill="#1A1A1A"/>
</svg>
