<svg width="139" height="37" viewBox="0 0 139 37" fill="none" xmlns="http://www.w3.org/2000/svg">
<g id="Group">
<g id="Group_2">
<g id="Group_3">
<path id="Vector" d="M11.3948 20.8028C12.6396 22.0002 13.8711 23.2043 15.1226 24.3883C16.0328 25.2513 16.6217 26.2346 16.9563 27.4989C17.5185 29.6128 18.7968 31.3454 20.4833 32.7635C19.1515 31.0845 18.1476 29.2449 17.5386 26.9972C19.0779 28.4555 20.5235 29.7733 22.3037 30.6229C24.1107 31.4925 26.0047 31.8605 27.9991 31.546C23.3812 31.3855 20.7243 28.2816 18.161 25.0038C19.9412 25.5657 21.7349 25.8132 23.5887 25.5188C22.8191 25.4051 22.0226 25.3917 21.2931 25.1643C19.9078 24.7295 18.5693 24.1676 17.2107 23.6525C17.05 23.5923 16.8894 23.4853 16.7756 23.3648C15.3836 21.9266 13.9982 20.4884 12.5995 19.0301C14.7009 18.923 16.8158 18.4815 18.7767 17.4313C16.6753 17.8795 14.5671 18.3277 12.4188 18.1203C10.2704 17.9129 8.1422 17.5651 5.83325 17.2574C6.18127 16.6018 6.46236 15.866 6.91076 15.2505C9.25317 12.0128 12.6128 11.1767 16.354 12.7286C19.4728 14.0197 21.5675 16.3409 23.2675 19.1371C24.0237 20.3813 24.8335 21.5988 25.6835 22.7829C27.4302 25.2044 29.6656 26.8233 32.7776 26.9972C34.8791 27.1176 36.9739 27.2313 39.0553 26.7898C39.6108 26.6694 40.1462 26.4687 40.7887 26.2748C40.6548 26.5223 40.5477 26.743 40.4273 26.9504C37.4959 32.0344 33.2662 35.5196 27.4169 36.3892C19.8208 37.513 13.4227 35.1918 8.91854 28.6896C7.46624 26.6025 6.54936 24.2545 6.05411 21.746C5.90018 20.95 5.59901 20.756 4.80259 20.9299C3.71839 21.164 2.86843 21.7661 2.1724 22.6156C2.00509 22.823 1.85116 23.0371 1.67715 23.2377C1.20198 23.793 0.639799 23.8799 0.251629 23.4786C-0.136541 23.0772 -0.0896934 22.4618 0.465792 22.0336C1.21536 21.4583 1.98501 20.8764 2.82158 20.4416C5.02345 19.3043 7.30562 19.0301 9.66811 20C10.1634 20.2074 10.3708 20.4215 10.3775 20.9901C10.3976 23.9535 11.4617 26.549 13.2152 28.897C13.2486 28.9438 13.3156 28.9706 13.3356 28.984C12.8471 27.6996 12.2581 26.4219 11.8767 25.084C11.5019 23.7461 11.3413 22.3414 11.0936 20.97C11.194 20.9098 11.2944 20.8563 11.3948 20.8028Z" fill="#109872"/>
<g id="Group_4">
<path id="Vector_2" d="M22.7788 13.0484C22.9796 12.3059 23.2339 11.6302 22.317 11.3426C23.4347 10.7673 24.5189 10.2054 25.5495 9.67691C25.6968 9.19527 25.8306 8.74707 25.9645 8.30557C26.0314 8.30557 26.0916 8.30557 26.1585 8.29888C26.2589 8.58652 26.3794 8.86748 26.4664 9.15513C26.5936 9.60332 26.9483 9.71704 27.3766 9.60332C28.0526 9.41601 28.3872 9.07485 28.501 8.35908C28.5545 8.05137 28.9895 7.81055 29.2238 7.56973C29.2773 7.58311 29.2171 7.55635 29.1568 7.55635C27.9655 7.54297 27.9254 7.47608 28.2533 6.36563C28.3069 6.1917 28.26 5.98433 28.26 5.79702C28.1864 5.77695 28.1128 5.76357 28.0392 5.7435C27.8116 6.20508 27.5774 6.65996 27.3632 7.12822C27.3231 7.21518 27.303 7.38242 27.3565 7.43594C27.9187 8.04468 27.3297 8.45943 27.1557 9.04141C26.868 8.61997 26.7006 8.15171 26.3928 8.00454C26.1251 7.87744 25.6834 8.13164 25.3153 8.21191C24.8535 7.46938 24.9806 7.02788 25.6767 6.55962C26.0515 6.30542 26.3392 5.92412 26.6337 5.56958C27.2628 4.81367 28.7352 4.43906 29.5852 4.85381C29.6855 4.90063 29.8395 5.09463 29.8194 5.1147C29.6789 5.30869 29.5048 5.47593 29.3308 5.65654C29.5115 5.80371 29.7458 6.0044 30.0202 6.23184C30.3883 5.68999 30.7497 5.16821 31.0977 4.63974C31.3052 4.32534 31.8004 4.09121 31.4524 3.59619C31.2315 3.28179 30.9772 2.98745 30.7363 2.68643C30.5489 2.45899 30.3548 2.24492 30.1005 1.93721C30.4083 1.877 30.569 1.85025 30.7363 1.8168C30.7497 1.76997 30.7631 1.71646 30.7764 1.66963C29.6588 1.3084 28.5344 0.947168 27.4168 0.585938C34.9392 0.599316 43.5593 9.97793 42.2208 19.0756C42.0668 18.4602 41.9531 17.9919 41.8259 17.4634C41.1165 17.7243 41.2035 17.0286 40.9291 16.7209C40.2866 16.6674 39.8851 17.8046 39.1221 17.1089C38.4997 17.6507 37.9107 17.43 37.3419 16.8614C37.3017 16.9417 37.2616 17.0152 37.2214 17.0955C37.5426 17.5972 37.8304 18.1324 38.2052 18.5939C38.406 18.8481 38.6804 18.7746 38.8142 18.4334C38.9146 18.1725 39.015 17.9116 39.1221 17.6374C39.9854 18.2126 40.2063 18.7478 39.8984 19.6174C39.4233 20.9754 38.6335 22.146 37.6163 23.1495C37.4289 23.3368 37.1478 23.4371 36.8132 23.6311C36.4718 21.6979 35.3542 20.3533 34.0759 19.0622C34.0424 19.972 35.0932 21.7848 37.0809 24.28C37.8037 23.7047 38.5332 23.1361 39.4032 22.4404C38.9012 23.7381 38.4796 24.8687 38.0178 25.9791C37.9643 26.1129 37.7233 26.2333 37.556 26.2467C35.4278 26.4541 33.3129 26.3872 31.2181 25.9523C29.4178 25.5777 28.0525 24.4673 26.955 23.0826C25.9578 21.825 25.1011 20.4469 24.2043 19.1023C23.5417 18.1123 22.9126 17.1089 22.1765 15.965C23.4882 15.8513 24.7063 15.7375 25.9243 15.6707C26.018 15.664 26.2255 15.9917 26.2121 16.1456C26.105 17.2293 26.0849 17.2293 27.1825 17.5169C27.3097 17.5504 27.4569 17.5638 27.5573 17.6374C28.3403 18.2394 29.0364 18.1458 29.7257 17.45C29.8595 17.3163 30.1808 17.3096 30.4083 17.3296C30.8032 17.3698 31.1847 17.4835 31.5795 17.5571C33.3129 17.8916 33.9755 17.3096 33.8751 15.4767C33.2995 15.5703 32.7307 15.6707 32.1618 15.7576C32.0614 15.771 31.9343 15.7576 31.8473 15.7175C31.2248 15.4165 30.8166 14.9281 30.6091 14.1856C30.4418 14.2324 30.2477 14.2859 29.9934 14.3595C30.1072 14.6873 30.2009 14.9616 30.308 15.2693C30.221 15.3897 30.1139 15.5502 29.8729 15.8914C29.4446 15.189 29.1368 14.5134 28.6683 13.9849C28.1797 13.4364 27.5372 13.0216 26.8211 12.4396C27.0487 13.5033 27.6711 14.0184 28.4742 14.3729C28.2065 14.8612 27.9522 15.3295 27.6711 15.8513C27.3766 15.7108 27.1223 15.5904 26.8747 15.4767C26.8747 15.4231 26.8813 15.3763 26.8813 15.3228C27.1022 15.296 27.3298 15.2894 27.5372 15.2225C27.6644 15.1823 27.8317 15.0619 27.8652 14.9482C27.8919 14.8412 27.8049 14.6539 27.7045 14.5669C27.1825 14.0719 26.6605 13.5769 26.105 13.1287C25.9845 13.0283 25.7168 13.0618 25.5294 13.1019C25.322 13.142 25.0944 13.3695 24.9271 13.3227C24.1775 13.1019 23.9165 13.5835 23.6221 14.0986C23.4681 14.3595 23.254 14.6003 23.0264 14.8077C22.2768 15.4967 21.7481 15.47 21.032 14.7876C20.5903 14.3729 20.0081 14.0451 20.4899 13.2691C20.7509 12.8544 21.032 12.6537 21.5206 12.7607C21.9221 12.8678 22.3304 12.948 22.7788 13.0484ZM34.2298 13.2223C34.0223 12.5534 33.3129 12.1988 32.2957 12.2657C32.0882 12.0717 31.9209 11.9112 31.7469 11.7439C31.6264 11.958 31.4992 12.1721 31.3922 12.3928C31.2851 12.6069 31.178 12.8276 31.1178 13.0618C31.0575 13.3026 30.9371 13.6371 31.0441 13.7909C31.1445 13.9314 31.526 13.9648 31.7536 13.9113C32.5767 13.7106 33.3799 13.4631 34.2298 13.2223ZM35.5683 11.3091C35.6486 11.2422 35.729 11.1753 35.816 11.1084C35.6687 10.9145 35.5215 10.7205 35.3742 10.5265C35.1935 10.7205 34.8589 10.9011 34.8589 11.1018C34.8455 11.4295 34.9459 11.871 35.1735 12.0717C35.6353 12.4731 36.0502 12.8343 36.1573 13.4832C36.1907 13.6772 36.425 13.8913 36.6191 13.9983C36.7797 14.0919 37.0809 14.1254 37.208 14.0317C37.3352 13.9381 37.4222 13.5835 37.3419 13.4698C37.0072 12.9815 36.6057 12.5333 36.2242 12.0717C36.01 11.8175 35.7825 11.5633 35.5683 11.3091Z" fill="#109872"/>
<path id="Vector_3" d="M20.4698 1.33618C20.8982 1.06191 21.3265 0.787647 21.7682 0.5C22.3371 1.72417 23.5685 1.69072 24.6192 2.33291C24.1441 2.67407 23.7224 2.9751 23.2941 3.26943C22.8524 3.57046 22.3973 3.85142 21.9422 4.13237C21.795 4.21934 21.6276 4.33305 21.467 4.33974C19.9679 4.38657 18.5022 4.50698 17.3979 5.77798C17.3444 5.72446 17.2908 5.66426 17.2373 5.61074C17.3845 5.30302 17.4582 4.91504 17.6924 4.69429C18.3081 4.09893 18.9841 3.57046 19.6399 3.02861C19.9478 2.7811 20.2958 2.58042 20.5903 2.31953C21.1391 1.83789 21.1123 1.71079 20.4899 1.3228L20.4698 1.33618Z" fill="#109872"/>
<path id="Vector_4" d="M16.307 3.13481C16.0393 3.50273 15.4705 3.97769 15.5575 4.21182C15.7917 4.83394 15.2094 4.86069 15.0555 5.1751C14.9752 5.34233 14.7543 5.4293 14.6272 5.58316C14.5201 5.71026 14.413 5.8708 14.3729 6.03135C14.1922 6.74043 13.6367 6.93442 12.9607 6.60664C12.7064 6.47954 12.3383 6.5665 12.0238 6.57988C11.6958 6.59326 11.3679 6.64009 10.8994 6.68692C12.3383 4.68677 13.6568 2.82041 16.2401 2.37891C15.35 3.06123 14.5201 3.69004 13.6902 4.32554C13.7371 4.39243 13.7772 4.45933 13.8241 4.53291C14.6272 4.05127 15.4303 3.56294 16.2334 3.0813C16.2602 3.09468 16.287 3.11475 16.307 3.13481Z" fill="#109872"/>
<path id="Vector_5" d="M20.4961 1.31481C20.2752 1.4486 20.0477 1.56232 19.8469 1.72287C19.084 2.31154 18.3478 2.93366 17.5714 3.50226C17.3506 3.6695 17.036 3.70964 16.6211 3.8568C16.8286 3.18786 17.0695 2.84669 17.6183 2.67946C18.2474 2.48546 18.843 2.17106 19.4521 1.91017C19.432 1.84997 19.4119 1.79645 19.3918 1.73625C19.2111 1.7028 19.0237 1.66935 18.8363 1.6359C19.104 1.08737 19.9005 0.759586 20.65 0.886685C20.5898 1.04723 20.5363 1.1944 20.4827 1.34826C20.4693 1.33488 20.4961 1.31481 20.4961 1.31481Z" fill="#109872"/>
<path id="Vector_6" d="M24.0038 10.106C23.4416 10.2531 22.9196 10.3869 22.5381 10.4873C22.605 9.9588 22.6719 9.43702 22.7322 8.92193C22.7656 8.62759 22.7054 8.3065 22.8058 8.04561C22.9865 7.55059 23.2743 7.72452 23.5286 7.98541C23.4684 8.01885 23.4148 8.04561 23.3546 8.07906C23.4349 8.38677 23.5018 8.69449 23.5955 8.99551C23.7026 9.3233 23.8364 9.64439 24.0038 10.106Z" fill="#109872"/>
<path id="Vector_7" d="M9.17969 8.64831C9.38716 8.2737 9.57455 7.88571 9.8021 7.52448C10.2438 6.82877 10.4178 6.8087 11.1005 7.36393C10.4847 7.81881 9.86902 8.26701 9.26 8.7152C9.23323 8.69513 9.20646 8.66837 9.17969 8.64831Z" fill="#109872"/>
<path id="Vector_8" d="M22.197 5.43652C22.11 5.92485 21.782 5.9583 21.4139 5.84458C20.9856 5.71079 20.9856 5.39639 21.0994 5.03516C21.4608 5.16895 21.7954 5.28936 22.197 5.43652Z" fill="#109872"/>
<path id="Vector_9" d="M21.3467 9.81748C21.4939 9.42949 21.6144 9.12847 21.775 8.70703C21.9691 8.8542 22.3506 9.00806 22.3372 9.14185C22.2903 9.69707 21.8219 9.75058 21.3467 9.81748Z" fill="#109872"/>
<path id="Vector_10" d="M13.5634 7.49063C13.3225 7.74483 13.1618 7.91206 12.9945 8.08599C12.8741 7.92544 12.6532 7.7582 12.6666 7.61104C12.6867 7.41704 12.8941 7.24312 13.0213 7.0625C13.1685 7.17622 13.3158 7.29663 13.5634 7.49063Z" fill="#109872"/>
<path id="Vector_11" d="M11.7624 8.14526C11.2537 7.24888 11.7356 7.00137 12.3513 6.70703C12.1438 7.20205 11.9832 7.59673 11.7624 8.14526Z" fill="#109872"/>
<path id="Vector_12" d="M30.4623 4.23843C29.7328 3.88388 29.4651 3.34204 29.6726 2.77344C29.9135 3.22832 30.1745 3.70327 30.4623 4.23843Z" fill="#109872"/>
<path id="Vector_13" d="M7.7472 11.6461C7.47949 12.402 7.21179 13.1646 6.94408 13.9206C6.87716 13.8938 6.81693 13.8737 6.75 13.847C7.03109 13.0911 7.31218 12.3418 7.59327 11.5859C7.64681 11.606 7.70035 11.6261 7.7472 11.6461Z" fill="#109872"/>
</g>
</g>
<g id="Group_5">
<path id="Vector_14" d="M64.5947 12.9609C65.3577 12.9609 66.0804 13.1014 66.7564 13.3891C67.4324 13.67 68.0213 14.058 68.5232 14.5463C69.0319 15.0347 69.4401 15.61 69.7547 16.2722C70.0692 16.9278 70.2432 17.6436 70.27 18.4062V23.5972C70.27 23.8112 70.1964 23.9918 70.0492 24.139C69.9019 24.2862 69.7212 24.3598 69.5071 24.3598C69.2929 24.3598 69.1122 24.2862 68.965 24.139C68.8177 23.9918 68.7441 23.8112 68.7441 23.5972V18.6603C68.7441 18.0784 68.637 17.5365 68.4229 17.0415C68.2087 16.5465 67.9142 16.105 67.5461 15.7304C67.178 15.3558 66.743 15.0547 66.2478 14.834C65.7525 14.6132 65.2104 14.4928 64.6282 14.4794C64.0593 14.4794 63.5306 14.5731 63.0286 14.7671C62.5334 14.9611 62.0917 15.2287 61.7169 15.5698C61.3421 15.9177 61.0342 16.3257 60.8 16.8074C60.5658 17.289 60.4185 17.8175 60.3717 18.3794V23.5972C60.3717 23.8112 60.2981 23.9918 60.1508 24.139C60.0036 24.2862 59.8229 24.3598 59.6087 24.3598C59.3945 24.3598 59.2139 24.2862 59.0666 24.139C58.9194 23.9918 58.8458 23.8112 58.8458 23.5972V18.7941C58.8926 17.6168 58.4977 16.5933 57.6746 15.7371C56.8648 14.8942 55.8609 14.4728 54.6629 14.4728C54.094 14.4728 53.5586 14.5798 53.0433 14.7938C52.5279 15.0079 52.0862 15.3089 51.7115 15.6902C51.3367 16.0715 51.0355 16.5197 50.8146 17.0214C50.5938 17.5298 50.48 18.0717 50.48 18.6537V23.5905C50.48 23.8045 50.4064 23.9852 50.2592 24.1323C50.1119 24.2795 49.9312 24.3531 49.7171 24.3531C49.5029 24.3531 49.3222 24.2795 49.175 24.1323C49.0277 23.9852 48.9541 23.8045 48.9541 23.5905V13.7235C48.9541 13.5095 49.0277 13.3289 49.175 13.1817C49.3222 13.0345 49.5029 12.9609 49.7171 12.9609C49.9312 12.9609 50.1119 13.0345 50.2592 13.1817C50.4064 13.3289 50.48 13.5095 50.48 13.7235V14.7805C51.0623 14.1985 51.6981 13.7503 52.3874 13.4359C53.0767 13.1215 53.833 12.9676 54.6629 12.9676C55.6869 12.9676 56.6439 13.2218 57.5273 13.7369C58.4107 14.252 59.1001 14.941 59.6087 15.8173C60.1307 14.9276 60.8201 14.2319 61.6901 13.7235C62.5535 13.2151 63.5105 12.9676 64.5545 12.9676H64.5947V12.9609Z" fill="#109872"/>
<path id="Vector_15" d="M82.3167 12.8945C82.5309 12.8945 82.7116 12.9681 82.8588 13.1153C83.0061 13.2625 83.0797 13.4431 83.0797 13.6571V26.3403H83.0596C83.0127 27.0762 82.832 27.7652 82.5108 28.4074C82.1896 29.0496 81.7679 29.6048 81.2593 30.073C80.744 30.5413 80.155 30.9092 79.4924 31.1902C78.8232 31.4645 78.1272 31.6049 77.391 31.6049C76.6548 31.6049 75.9587 31.4778 75.2962 31.2169C74.6403 30.9561 74.0581 30.5948 73.5494 30.1399C73.0408 29.6784 72.6325 29.1365 72.3113 28.5077C71.99 27.8789 71.7893 27.1966 71.7156 26.4607C71.6822 26.2467 71.7491 26.0527 71.8964 25.8854C72.0369 25.7182 72.2176 25.6313 72.4451 25.6313C72.6459 25.6313 72.8132 25.6981 72.9605 25.8252C73.1077 25.9523 73.188 26.1196 73.2014 26.3203C73.2616 26.8554 73.4089 27.3571 73.6498 27.812C73.884 28.2736 74.1919 28.6683 74.5667 29.0094C74.9415 29.3439 75.3698 29.6115 75.8517 29.7988C76.3335 29.9928 76.8422 30.0864 77.3776 30.0864C77.9598 30.0864 78.5019 29.9727 79.0106 29.752C79.5192 29.5312 79.9542 29.2302 80.3357 28.8556C80.7105 28.481 81.0117 28.0328 81.2325 27.5244C81.4534 27.0093 81.5671 26.4607 81.5671 25.8788V22.4805C81.0317 23.0625 80.3959 23.5174 79.6731 23.8385C78.9436 24.1596 78.1807 24.3201 77.3843 24.3201C76.6012 24.3201 75.8651 24.1729 75.169 23.8719C74.473 23.5709 73.864 23.1695 73.3419 22.6544C72.8199 22.1394 72.4117 21.5373 72.1105 20.8416C71.8093 20.1459 71.6621 19.4034 71.6621 18.6274V13.6638C71.6621 13.4498 71.7357 13.2691 71.883 13.122C72.0302 12.9748 72.2109 12.9012 72.4251 12.9012C72.6392 12.9012 72.8199 12.9748 72.9672 13.122C73.1144 13.2691 73.188 13.4498 73.188 13.6638V18.6274C73.188 19.196 73.3018 19.7312 73.5226 20.2462C73.7435 20.7613 74.0447 21.2028 74.4195 21.5774C74.7942 21.9521 75.236 22.2531 75.7513 22.4738C76.2666 22.6946 76.8154 22.8083 77.3977 22.8083C77.9799 22.8083 78.522 22.6946 79.0307 22.4738C79.5393 22.2531 79.9743 21.9521 80.3558 21.5774C80.7306 21.2028 81.0317 20.7613 81.2526 20.2462C81.4734 19.7312 81.5872 19.196 81.5872 18.6274V13.6638C81.5872 13.4498 81.6608 13.2691 81.8081 13.122C81.9219 12.9681 82.1026 12.8945 82.3167 12.8945Z" fill="#109872"/>
<path id="Vector_16" d="M94.3629 18.8042C94.4097 17.6067 94.0149 16.5833 93.1917 15.727C92.3618 14.8708 91.3512 14.4426 90.16 14.4426C89.5911 14.4426 89.0557 14.5563 88.5403 14.7771C88.025 14.9979 87.5833 15.2989 87.2085 15.6735C86.8337 16.0481 86.5326 16.4896 86.3117 16.998C86.0909 17.5064 85.9771 18.0482 85.9771 18.6302V30.8786C85.9771 31.0927 85.9035 31.2733 85.7562 31.4205C85.609 31.5676 85.4283 31.6412 85.2141 31.6412C85 31.6412 84.8193 31.5676 84.672 31.4205C84.5248 31.2733 84.4512 31.0927 84.4512 30.8786V18.6302C84.4512 17.8476 84.5984 17.1117 84.8996 16.416C85.2007 15.7203 85.6023 15.1116 86.1176 14.6032C86.633 14.0881 87.2353 13.6867 87.9313 13.3857C88.6274 13.0847 89.3702 12.9375 90.1466 12.9375C90.9564 12.9375 91.7126 13.0847 92.402 13.3857C93.0913 13.6867 93.6936 14.0948 94.2157 14.6166C94.7377 15.1383 95.1459 15.7471 95.4337 16.4428C95.7215 17.1385 95.8687 17.8877 95.8687 18.6837C95.8687 19.4664 95.7215 20.2022 95.4203 20.8913C95.1192 21.5803 94.7109 22.1823 94.1889 22.6974C93.6669 23.2125 93.0578 23.6139 92.3618 23.9149C91.6658 24.2159 90.9229 24.3631 90.1466 24.3631C88.8884 24.3631 87.7573 23.9885 86.7467 23.2393C86.566 23.0854 86.4656 22.9115 86.4456 22.7108C86.4121 22.4967 86.479 22.3027 86.633 22.1355C86.7735 21.9549 86.9609 21.8612 87.2085 21.8612C87.3491 21.8612 87.4896 21.9147 87.6435 22.0218C88.3797 22.5703 89.2163 22.8513 90.1466 22.8513C90.7154 22.8513 91.2442 22.7509 91.7461 22.5436C92.2414 22.3362 92.6831 22.0552 93.0712 21.694C93.4527 21.3328 93.7606 20.9113 93.9881 20.4163C94.2224 19.8945 94.3495 19.3661 94.3629 18.8042Z" fill="#109872"/>
<path id="Vector_17" d="M98.0178 24.3615C97.8037 24.3615 97.623 24.2879 97.4757 24.1408C97.3285 23.9936 97.2549 23.813 97.2549 23.5989V6.32676C97.2549 6.11269 97.3285 5.92539 97.4757 5.77822C97.623 5.62436 97.8037 5.55078 98.0178 5.55078C98.232 5.55078 98.4127 5.62436 98.5666 5.77822C98.7206 5.93208 98.7942 6.11269 98.7942 6.32676V23.5989C98.7942 23.813 98.7206 23.9936 98.5666 24.1408C98.4194 24.2879 98.232 24.3615 98.0178 24.3615Z" fill="#109872"/>
<path id="Vector_18" d="M105.902 24.334C105.119 24.334 104.383 24.1869 103.687 23.8858C102.991 23.5848 102.382 23.1834 101.86 22.6684C101.338 22.1533 100.929 21.5512 100.628 20.8555C100.327 20.1598 100.18 19.4173 100.18 18.6413C100.18 17.8453 100.327 17.096 100.628 16.4003C100.929 15.7046 101.331 15.0959 101.846 14.5741C102.361 14.0523 102.964 13.6376 103.66 13.3366C104.356 13.0289 105.105 12.875 105.902 12.875C106.685 12.875 107.421 13.0222 108.117 13.3232C108.813 13.6242 109.422 14.0323 109.944 14.5541C110.466 15.0758 110.874 15.6846 111.176 16.3803C111.477 17.076 111.624 17.8185 111.624 18.5945V23.5581C111.624 23.7721 111.55 23.9594 111.403 24.1066C111.256 24.2604 111.075 24.334 110.861 24.334C110.647 24.334 110.466 24.2604 110.319 24.1066C110.172 23.9527 110.098 23.7721 110.098 23.5581V18.5945C110.098 18.0125 109.984 17.4707 109.763 16.9623C109.543 16.4539 109.241 16.019 108.867 15.6444C108.492 15.2698 108.043 14.9688 107.535 14.748C107.02 14.5273 106.471 14.4136 105.888 14.4136C104.69 14.4136 103.68 14.8417 102.857 15.698C102.455 16.1127 102.154 16.581 101.947 17.1094C101.739 17.6379 101.652 18.1931 101.686 18.7751C101.719 19.3437 101.846 19.8722 102.074 20.3605C102.301 20.8488 102.609 21.2769 102.984 21.6382C103.359 21.9994 103.794 22.2804 104.296 22.4877C104.791 22.6951 105.326 22.7955 105.895 22.7955C106.832 22.7955 107.662 22.5212 108.398 21.966C108.539 21.8723 108.686 21.8255 108.86 21.8255C109.074 21.8255 109.268 21.9125 109.436 22.0797C109.589 22.2469 109.65 22.4409 109.616 22.655C109.583 22.8824 109.489 23.063 109.315 23.1834C108.298 23.9527 107.16 24.334 105.902 24.334Z" fill="#109872"/>
<path id="Vector_19" d="M118.731 12.9408C119.501 12.9408 120.217 13.0813 120.893 13.3689C121.569 13.6499 122.158 14.0379 122.673 14.5262C123.189 15.0146 123.597 15.5898 123.911 16.2521C124.226 16.9077 124.4 17.6234 124.427 18.386V23.6038C124.427 23.8179 124.353 23.9985 124.206 24.1457C124.059 24.2928 123.878 24.3664 123.664 24.3664C123.45 24.3664 123.269 24.2928 123.122 24.1457C122.974 23.9985 122.901 23.8179 122.901 23.6038V18.7807C122.934 18.2121 122.841 17.6636 122.64 17.1351C122.432 16.6066 122.131 16.1384 121.73 15.7236C121.328 15.3089 120.873 14.9945 120.351 14.7804C119.829 14.5664 119.287 14.4593 118.718 14.4593C118.136 14.4593 117.587 14.573 117.072 14.7938C116.556 15.0146 116.115 15.3156 115.74 15.6902C115.365 16.0648 115.064 16.5063 114.843 17.008C114.622 17.5164 114.508 18.0583 114.508 18.6402V23.6038C114.508 23.8179 114.435 23.9985 114.287 24.1457C114.14 24.2928 113.96 24.3664 113.745 24.3664C113.531 24.3664 113.351 24.2928 113.203 24.1457C113.056 23.9985 112.982 23.8179 112.982 23.6038V13.6767C112.982 13.4626 113.056 13.282 113.203 13.1348C113.351 12.9876 113.531 12.9141 113.745 12.9141C113.96 12.9141 114.14 12.9876 114.287 13.1348C114.435 13.282 114.508 13.4626 114.508 13.6767V14.7804C114.542 14.7336 114.595 14.6734 114.669 14.5998C115.204 14.0646 115.82 13.6566 116.509 13.3689C117.212 13.0813 117.948 12.9408 118.731 12.9408Z" fill="#109872"/>
<path id="Vector_20" d="M134.037 13.7267C134.94 14.2017 135.67 14.8773 136.232 15.7603C136.794 16.6433 137.068 17.6334 137.068 18.7371C137.068 19.5198 136.921 20.2489 136.62 20.9312C136.319 21.6136 135.917 22.2089 135.415 22.7106C134.907 23.219 134.318 23.6204 133.635 23.9147C132.953 24.2158 132.223 24.3629 131.44 24.3629C130.657 24.3629 129.927 24.2158 129.245 23.9147C128.562 23.6137 127.967 23.2124 127.465 22.7106C126.963 22.2089 126.554 21.6136 126.26 20.9312C125.959 20.2489 125.812 19.5198 125.812 18.7371C125.812 17.6467 126.086 16.6701 126.628 15.7937C127.17 14.9174 127.893 14.2485 128.803 13.7735C128.315 13.3922 127.926 12.9173 127.652 12.3621C127.378 11.8001 127.237 11.1914 127.237 10.5358C127.237 9.95386 127.344 9.41201 127.558 8.91699C127.772 8.42197 128.074 7.98047 128.455 7.59248C128.837 7.21118 129.285 6.91016 129.787 6.69609C130.296 6.48203 130.831 6.375 131.393 6.375C131.975 6.375 132.518 6.48203 133.013 6.69609C133.508 6.91016 133.95 7.21118 134.338 7.59248C134.719 7.97378 135.021 8.41528 135.235 8.91699C135.449 9.41201 135.556 9.95386 135.556 10.5358C135.556 11.178 135.415 11.7734 135.141 12.3286C134.867 12.8771 134.499 13.3387 134.037 13.7267ZM131.44 22.7775C131.989 22.7775 132.511 22.6705 133.006 22.4564C133.495 22.2424 133.923 21.9481 134.291 21.5801C134.659 21.2122 134.947 20.7841 135.168 20.2958C135.382 19.8074 135.489 19.2856 135.489 18.7304C135.489 18.1752 135.382 17.6601 135.168 17.1651C134.954 16.6768 134.659 16.2486 134.291 15.8807C133.923 15.5128 133.495 15.2251 133.006 15.0044C132.518 14.7903 131.995 14.6833 131.44 14.6833C130.891 14.6833 130.369 14.7903 129.874 15.0044C129.385 15.2185 128.957 15.5128 128.589 15.8807C128.221 16.2486 127.933 16.6768 127.712 17.1651C127.498 17.6534 127.391 18.1752 127.391 18.7304C127.391 19.2856 127.498 19.8007 127.712 20.2958C127.926 20.7841 128.221 21.2122 128.589 21.5801C128.957 21.9481 129.385 22.2357 129.874 22.4564C130.362 22.6705 130.885 22.7775 131.44 22.7775ZM131.393 7.9604C131.038 7.9604 130.711 8.02729 130.396 8.16777C130.081 8.30825 129.807 8.48887 129.579 8.71631C129.352 8.94375 129.165 9.21802 129.031 9.53242C128.89 9.84683 128.823 10.1813 128.823 10.5291C128.823 10.8837 128.89 11.2115 129.031 11.5259C129.171 11.8403 129.352 12.1146 129.579 12.342C129.807 12.5694 130.081 12.7567 130.396 12.8905C130.711 13.031 131.045 13.0979 131.393 13.0979C131.748 13.0979 132.076 13.031 132.39 12.8905C132.705 12.7501 132.979 12.5694 133.207 12.342C133.434 12.1146 133.622 11.8403 133.756 11.5259C133.896 11.2115 133.963 10.877 133.963 10.5291C133.963 10.1746 133.896 9.84683 133.756 9.53242C133.615 9.21802 133.434 8.94375 133.207 8.71631C132.979 8.48887 132.705 8.30156 132.39 8.16777C132.076 8.02729 131.748 7.9604 131.393 7.9604Z" fill="#109872"/>
</g>
</g>
<g id="Group_6">
<path id="Vector_21" d="M136.312 6.26562H137.35V6.38603H136.895V7.57007H136.768V6.38603H136.312V6.26562Z" fill="#109872"/>
<path id="Vector_22" d="M137.671 6.473V7.57007H137.544V6.26562H137.711L138.273 7.44297L138.836 6.26562H139.003V7.57007H138.876V6.473L138.34 7.57007H138.2L137.671 6.473Z" fill="#109872"/>
</g>
</g>
</svg>
