<svg width="33" height="32" viewBox="0 0 33 32" fill="none" xmlns="http://www.w3.org/2000/svg">
<path d="M21.277 15.312C21.657 15.712 21.64 16.345 21.24 16.726L17.688 20.099C17.117 20.662 16.359 20.945 15.6 20.945C14.841 20.945 14.079 20.663 13.499 20.096L11.887 18.631C11.478 18.259 11.449 17.626 11.82 17.218C12.191 16.81 12.824 16.78 13.233 17.151L14.871 18.64C15.285 19.043 15.913 19.041 16.298 18.661L19.863 15.274C20.264 14.894 20.896 14.912 21.277 15.311V15.312ZM27.501 9C27.501 9.553 27.054 10 26.501 10H25.615L24.338 23.472C24.094 26.053 21.954 28 19.361 28H13.633C11.044 28 8.904 26.057 8.656 23.479L7.36 10H6.5C5.948 10 5.5 9.553 5.5 9C5.5 8.447 5.948 8 6.5 8H10.601C11.066 5.721 13.086 4 15.5 4H17.5C19.914 4 21.935 5.721 22.399 8H26.5C27.053 8 27.501 8.447 27.501 9ZM12.673 8H20.329C19.916 6.836 18.805 6 17.501 6H15.501C14.197 6 13.086 6.836 12.673 8ZM23.607 10H9.371L10.649 23.287C10.797 24.834 12.081 26 13.635 26H19.363C20.919 26 22.202 24.832 22.349 23.283L23.607 10Z" fill="#5C5C5C"/>
</svg>
