<svg width="33" height="32" viewBox="0 0 33 32" fill="none" xmlns="http://www.w3.org/2000/svg">
<g id="Icons">
<path id="Vector" d="M26.666 8H22.565C22.1 5.721 20.081 4 17.666 4H15.666C13.252 4 11.232 5.721 10.767 8H6.66602C6.11402 8 5.66602 8.447 5.66602 9C5.66602 9.553 6.11402 10 6.66602 10H7.52602L8.82202 23.479C9.07002 26.057 11.21 28 13.799 28H19.527C22.12 28 24.259 26.053 24.504 23.472L25.781 10H26.667C27.22 10 27.667 9.553 27.667 9C27.667 8.447 27.219 8 26.666 8ZM15.666 6H17.666C18.968 6 20.068 6.839 20.482 8H12.851C13.265 6.839 14.365 6 15.667 6H15.666ZM21.405 16.726L17.853 20.099C17.282 20.662 16.524 20.945 15.765 20.945C15.006 20.945 14.244 20.663 13.664 20.096L12.052 18.631C11.643 18.259 11.614 17.626 11.985 17.218C12.356 16.81 12.989 16.78 13.398 17.151L15.036 18.64C15.45 19.043 16.078 19.041 16.463 18.661L20.028 15.274C20.429 14.894 21.061 14.912 21.442 15.311C21.822 15.711 21.805 16.345 21.405 16.726Z" fill="#109872"/>
</g>
</svg>
