<svg width="32" height="32" viewBox="0 0 32 32" fill="none" xmlns="http://www.w3.org/2000/svg">
<g id="Icons">
<path id="Vector" d="M25.9959 9.72743V6.00412C25.9959 5.45223 25.549 5.00431 24.9961 5.00431C24.4432 5.00431 23.9963 5.45223 23.9963 6.00412V8.36968L18.7942 4.85934C17.0955 3.71355 14.9 3.71355 13.2013 4.85934L6.20259 9.58245C4.82385 10.5133 4 12.062 4 13.7267V23.0009C4 25.7574 6.24258 28 8.99906 28H11.9985C12.5514 28 12.9983 27.5521 12.9983 27.0002V19.0017C12.9983 18.4508 13.4462 18.0019 13.9981 18.0019H17.9974C18.5493 18.0019 18.9972 18.4508 18.9972 19.0017V27.0002C18.9972 27.5521 19.4441 28 19.997 28H22.9964C25.7529 28 27.9955 25.7574 27.9955 23.0009V13.7267C27.9955 12.146 27.2516 10.6692 25.9959 9.72743ZM25.9959 23.0009C25.9959 24.6546 24.6501 26.0004 22.9964 26.0004H20.9968V19.0017C20.9968 17.348 19.6511 16.0022 17.9974 16.0022H13.9981C12.3444 16.0022 10.9987 17.348 10.9987 19.0017V26.0004H8.99906C7.34537 26.0004 5.99963 24.6546 5.99963 23.0009V13.7267C5.99963 12.7279 6.49353 11.798 7.32138 11.2401L14.3201 6.51703C15.3399 5.82916 16.6556 5.82916 17.6744 6.51703L24.6731 11.2401C25.501 11.798 25.9949 12.7279 25.9949 13.7267L25.9959 23.0009Z" fill="#5C5C5C"/>
</g>
</svg>
