<svg width="32" height="32" viewBox="0 0 32 32" fill="none" xmlns="http://www.w3.org/2000/svg">
<g id="Icons">
<path id="Vector" d="M25.9959 9.72743V6.00412C25.9959 5.45223 25.549 5.00431 24.9961 5.00431C24.4432 5.00431 23.9962 5.45223 23.9962 6.00412V8.36968L18.7942 4.85934C17.0955 3.71355 14.9 3.71355 13.2013 4.85934L6.20259 9.58245C4.82385 10.5133 4 12.062 4 13.7267V23.0009C4 25.7574 6.24258 28 8.99906 28H10.9987C11.5516 28 11.9985 27.5521 11.9985 27.0002V18.0019C11.9985 17.451 12.4464 17.0021 12.9983 17.0021H18.9972C19.5491 17.0021 19.997 17.451 19.997 18.0019V27.0002C19.997 27.5521 20.4439 28 20.9968 28H22.9964C25.7529 28 27.9955 25.7574 27.9955 23.0009V13.7267C27.9955 12.146 27.2516 10.6692 25.9959 9.72743Z" fill="#109872"/>
</g>
</svg>
