<svg width="33" height="32" viewBox="0 0 33 32" fill="none" xmlns="http://www.w3.org/2000/svg">
<g id="Icons">
<path id="Vector" d="M26.963 8.077C26.6817 7.73944 26.3296 7.46795 25.9315 7.28182C25.5335 7.09568 25.0994 6.99946 24.66 7H8.492L8.45 6.649C8.36405 5.91942 8.01338 5.24673 7.46449 4.75848C6.9156 4.27022 6.20663 4.00034 5.472 4H5.25C4.98478 4 4.73043 4.10536 4.54289 4.29289C4.35536 4.48043 4.25 4.73478 4.25 5C4.25 5.26522 4.35536 5.51957 4.54289 5.70711C4.73043 5.89464 4.98478 6 5.25 6H5.472C5.71693 6.00003 5.95334 6.08996 6.13637 6.25272C6.31941 6.41547 6.43634 6.63975 6.465 6.883L7.841 18.583C7.98385 19.7998 8.56848 20.9218 9.48391 21.736C10.3993 22.5502 11.5819 23 12.807 23H23.25C23.5152 23 23.7696 22.8946 23.9571 22.7071C24.1446 22.5196 24.25 22.2652 24.25 22C24.25 21.7348 24.1446 21.4804 23.9571 21.2929C23.7696 21.1054 23.5152 21 23.25 21H12.807C12.1881 20.9983 11.5848 20.8051 11.0799 20.4471C10.5751 20.089 10.1933 19.5835 9.987 19H21.907C23.0793 19.0001 24.2143 18.5882 25.1138 17.8364C26.0133 17.0846 26.62 16.0407 26.828 14.887L27.613 10.533C27.6914 10.101 27.6737 9.65707 27.5614 9.23264C27.4491 8.80821 27.2448 8.41368 26.963 8.077ZM25.65 10.178L24.864 14.532C24.7391 15.225 24.3745 15.852 23.8339 16.3032C23.2933 16.7544 22.6112 17.0011 21.907 17H9.669L8.728 9H24.66C24.8069 8.99912 24.9522 9.03062 25.0855 9.09226C25.2189 9.15389 25.337 9.24415 25.4315 9.35661C25.526 9.46907 25.5946 9.60097 25.6324 9.74294C25.6701 9.8849 25.6762 10.0334 25.65 10.178Z" fill="#5C5C5C"/>
<path id="Vector_2" d="M11.25 28C12.3546 28 13.25 27.1046 13.25 26C13.25 24.8954 12.3546 24 11.25 24C10.1454 24 9.25 24.8954 9.25 26C9.25 27.1046 10.1454 28 11.25 28Z" fill="#5C5C5C"/>
<path id="Vector_3" d="M21.25 28C22.3546 28 23.25 27.1046 23.25 26C23.25 24.8954 22.3546 24 21.25 24C20.1454 24 19.25 24.8954 19.25 26C19.25 27.1046 20.1454 28 21.25 28Z" fill="#5C5C5C"/>
</g>
</svg>
