<svg width="33" height="32" viewBox="0 0 33 32" fill="none" xmlns="http://www.w3.org/2000/svg">
<g id="Icons">
<path id="Vector" d="M27.963 8.077C27.6817 7.73944 27.3296 7.46795 26.9315 7.28182C26.5335 7.09568 26.0994 6.99946 25.66 7H9.492L9.45 6.649C9.36405 5.91942 9.01338 5.24673 8.46449 4.75848C7.9156 4.27022 7.20663 4.00034 6.472 4H6.25C5.98478 4 5.73043 4.10536 5.54289 4.29289C5.35536 4.48043 5.25 4.73478 5.25 5C5.25 5.26522 5.35536 5.51957 5.54289 5.70711C5.73043 5.89464 5.98478 6 6.25 6H6.472C6.71693 6.00003 6.95334 6.08996 7.13637 6.25272C7.31941 6.41547 7.43634 6.63975 7.465 6.883L8.841 18.583C8.98385 19.7998 9.56848 20.9218 10.4839 21.736C11.3993 22.5502 12.5819 23 13.807 23H24.25C24.5152 23 24.7696 22.8946 24.9571 22.7071C25.1446 22.5196 25.25 22.2652 25.25 22C25.25 21.7348 25.1446 21.4804 24.9571 21.2929C24.7696 21.1054 24.5152 21 24.25 21H13.807C13.1881 20.9983 12.5848 20.8051 12.0799 20.4471C11.5751 20.089 11.1933 19.5835 10.987 19H22.907C24.0793 19.0001 25.2143 18.5882 26.1138 17.8364C27.0133 17.0846 27.62 16.0407 27.828 14.887L28.613 10.533C28.6914 10.101 28.6737 9.65707 28.5614 9.23264C28.4491 8.80821 28.2448 8.41368 27.963 8.077Z" fill="#109872"/>
<path id="Vector_2" d="M12.25 28C13.3546 28 14.25 27.1046 14.25 26C14.25 24.8954 13.3546 24 12.25 24C11.1454 24 10.25 24.8954 10.25 26C10.25 27.1046 11.1454 28 12.25 28Z" fill="#109872"/>
<path id="Vector_3" d="M22.25 28C23.3546 28 24.25 27.1046 24.25 26C24.25 24.8954 23.3546 24 22.25 24C21.1454 24 20.25 24.8954 20.25 26C20.25 27.1046 21.1454 28 22.25 28Z" fill="#109872"/>
</g>
</svg>
