<svg width="33" height="32" viewBox="0 0 33 32" fill="none" xmlns="http://www.w3.org/2000/svg">
<g id="Icons">
<path id="Vector" d="M28.334 26.0417C28.334 26.5707 27.9046 27 27.3757 27H8.20898C6.6239 27 5.33398 25.7101 5.33398 24.125V4.95833C5.33398 4.42933 5.76332 4 6.29232 4C6.82132 4 7.25065 4.42933 7.25065 4.95833V24.125C7.25065 24.653 7.68094 25.0833 8.20898 25.0833H27.3757C27.9046 25.0833 28.334 25.5127 28.334 26.0417ZM25.459 8.79167H21.6257C21.0967 8.79167 20.6673 9.221 20.6673 9.75C20.6673 10.279 21.0967 10.7083 21.6257 10.7083H25.0402L20.3856 15.2192C20.0243 15.5815 19.3927 15.5815 19.0314 15.2192C18.9922 15.1809 17.8441 14.3634 17.8441 14.3634C16.7535 13.3351 14.8953 13.3735 13.8555 14.4123L9.46057 18.6424C9.07915 19.0094 9.06765 19.616 9.43469 19.9975C9.62348 20.193 9.87361 20.2917 10.1257 20.2917C10.3652 20.2917 10.6048 20.2025 10.7898 20.0243L15.1981 15.7808C15.5594 15.4185 16.1909 15.4185 16.5522 15.7808C16.5915 15.8191 17.7396 16.6366 17.7396 16.6366C18.8312 17.6658 20.6874 17.6294 21.7301 16.5848L26.4164 12.0423V15.499C26.4164 16.028 26.8457 16.4574 27.3747 16.4574C27.9037 16.4574 28.333 16.028 28.333 15.499V11.6657C28.333 10.0806 27.0431 8.79071 25.458 8.79071L25.459 8.79167Z" fill="#5C5C5C"/>
</g>
</svg>
