<svg width="33" height="32" viewBox="0 0 33 32" fill="none" xmlns="http://www.w3.org/2000/svg">
<g id="Icons">
<path id="Vector" d="M28.333 26.0417C28.333 26.5707 27.9037 27 27.3747 27H8.20801C6.62292 27 5.33301 25.7101 5.33301 24.125V4.95833C5.33301 4.42933 5.76234 4 6.29134 4C6.82034 4 7.24967 4.42933 7.24967 4.95833V24.125C7.24967 24.653 7.67997 25.0833 8.20801 25.0833H27.3747C27.9037 25.0833 28.333 25.5127 28.333 26.0417ZM25.458 8.79167H21.6247C21.0957 8.79167 20.6663 9.221 20.6663 9.75C20.6663 10.279 21.0957 10.7083 21.6247 10.7083H25.0392L20.3846 15.2192C20.0233 15.5815 19.3918 15.5815 19.0305 15.2192C18.9912 15.1809 17.8431 14.3634 17.8431 14.3634C16.7525 13.3351 14.8943 13.3735 13.8545 14.4123L9.45959 18.6424C9.07817 19.0094 9.06667 19.616 9.43372 19.9975C9.62251 20.193 9.87263 20.2917 10.1247 20.2917C10.3643 20.2917 10.6038 20.2025 10.7888 20.0243L15.1971 15.7808C15.5584 15.4185 16.19 15.4185 16.5513 15.7808C16.5905 15.8191 17.7386 16.6366 17.7386 16.6366C18.8302 17.6658 20.6865 17.6294 21.7291 16.5848L26.4154 12.0423V15.499C26.4154 16.028 26.8447 16.4574 27.3737 16.4574C27.9027 16.4574 28.3321 16.028 28.3321 15.499V11.6657C28.3321 10.0806 27.0421 8.79071 25.4571 8.79071L25.458 8.79167Z" fill="#109872"/>
</g>
</svg>
